<ttFont>
<head>
    <!-- Most of this table will be recalculated by the compiler -->
    <tableVersion value="1.0"/>
    <fontRevision value="2.01"/>
    <checkSumAdjustment value="0xde6a94fa"/>
    <magicNumber value="0x5f0f3cf5"/>
    <flags value="00000000 00000011"/>
    <unitsPerEm value="1000"/>
    <created value="Wed Feb  7 19:23:17 2018"/>
    <modified value="Wed Feb  7 11:23:21 2018"/>
    <xMin value="-411"/>
    <yMin value="-594"/>
    <xMax value="1756"/>
    <yMax value="910"/>
    <macStyle value="00000000 00000000"/>
    <lowestRecPPEM value="7"/>
    <fontDirectionHint value="2"/>
    <indexToLocFormat value="0"/>
    <glyphDataFormat value="0"/>
  </head>
    <TTGlyph name=".notdef" xMin="176" yMin="0" xMax="575" yMax="701">
      <contour>
        <pt x="575" y="701" on="1"/>
        <pt x="575" y="0" on="1"/>
        <pt x="176" y="0" on="1"/>
        <pt x="176" y="701" on="1"/>
      </contour>
      <contour>
        <pt x="516" y="55" on="1"/>
        <pt x="516" y="646" on="1"/>
        <pt x="235" y="646" on="1"/>
        <pt x="235" y="55" on="1"/>
      </contour>
    </TTGlyph>
    <TTGlyph name="A" xMin="17" yMin="0" xMax="418" yMax="671">
      <contour>
        <pt x="308" y="189" on="1"/>
        <pt x="126" y="189" on="1"/>
        <pt x="85" y="0" on="1"/>
        <pt x="17" y="0" on="1"/>
        <pt x="170" y="671" on="1"/>
        <pt x="266" y="671" on="1"/>
        <pt x="418" y="0" on="1"/>
        <pt x="350" y="0" on="1"/>
      </contour>
      <contour>
        <pt x="295" y="248" on="1"/>
        <pt x="217" y="603" on="1"/>
        <pt x="139" y="248" on="1"/>
      </contour>
    </TTGlyph>
    <TTGlyph name="AE" xMin="8" yMin="0" xMax="642" yMax="671">
      <contour>
        <pt x="420" y="611" on="1"/>
        <pt x="420" y="368" on="1"/>
        <pt x="613" y="368" on="1"/>
        <pt x="613" y="308" on="1"/>
        <pt x="420" y="308" on="1"/>
        <pt x="420" y="60" on="1"/>
        <pt x="642" y="60" on="1"/>
        <pt x="642" y="0" on="1"/>
        <pt x="354" y="0" on="1"/>
        <pt x="354" y="189" on="1"/>
        <pt x="163" y="189" on="1"/>
        <pt x="79" y="0" on="1"/>
        <pt x="8" y="0" on="1"/>
        <pt x="313" y="671" on="1"/>
        <pt x="642" y="671" on="1"/>
        <pt x="642" y="611" on="1"/>
      </contour>
      <contour>
        <pt x="354" y="248" on="1"/>
        <pt x="354" y="621" on="1"/>
        <pt x="189" y="248" on="1"/>
      </contour>
    </TTGlyph>
    <TTGlyph name="Aacute" xMin="17" yMin="0" xMax="418" yMax="819">
      <component glyphName="A" x="0" y="0" flags="0x0"/>
      <component glyphName="acute" x="72" y="100" flags="0x4"/>
    </TTGlyph>
    <TTGlyph name="Abreve" xMin="17" yMin="0" xMax="418" yMax="819">
      <component glyphName="A" x="0" y="0" flags="0x0"/>
      <component glyphName="breve" x="42" y="100" flags="0x4"/>
    </TTGlyph>
    <TTGlyph name="Acircumflex" xMin="17" yMin="0" xMax="418" yMax="819">
      <component glyphName="A" x="0" y="0" flags="0x0"/>
      <component glyphName="circumflex" x="45" y="100" flags="0x4"/>
    </TTGlyph>
    <TTGlyph name="Adieresis" xMin="17" yMin="0" xMax="418" yMax="801">
      <component glyphName="dieresis" x="42" y="100" flags="0x4"/>
      <component glyphName="A" x="0" y="0" flags="0x0"/>
    </TTGlyph>
    <TTGlyph name="Agrave" xMin="17" yMin="0" xMax="418" yMax="819">
      <component glyphName="A" x="0" y="0" flags="0x0"/>
      <component glyphName="grave" x="8" y="100" flags="0x4"/>
    </TTGlyph>
    <TTGlyph name="Amacron" xMin="17" yMin="0" xMax="418" yMax="788">
      <component glyphName="A" x="0" y="0" flags="0x0"/>
      <component glyphName="macron" x="41" y="100" flags="0x4"/>
    </TTGlyph>
    <TTGlyph name="Aogonek" xMin="17" yMin="-175" xMax="418" yMax="671">
      <component glyphName="A" x="0" y="0" flags="0x0"/>
      <component glyphName="ogonek" x="194" y="0" flags="0x0"/>
    </TTGlyph>
    <TTGlyph name="Aring" xMin="17" yMin="0" xMax="418" yMax="838">
      <component glyphName="A" x="0" y="0" flags="0x0"/>
      <component glyphName="ring" x="42" y="100" flags="0x4"/>
    </TTGlyph>
    <TTGlyph name="Atilde" xMin="17" yMin="0" xMax="418" yMax="810">
      <component glyphName="A" x="0" y="0" flags="0x0"/>
      <component glyphName="tilde" x="48" y="100" flags="0x4"/>
    </TTGlyph>
    <TTGlyph name="B" xMin="70" yMin="0" xMax="407" yMax="671">
      <contour>
        <pt x="407" y="311" on="0"/>
        <pt x="407" y="211" on="1"/>
        <pt x="407" y="152" on="1"/>
        <pt x="407" y="81" on="0"/>
        <pt x="326" y="0" on="0"/>
        <pt x="246" y="0" on="1"/>
        <pt x="70" y="0" on="1"/>
        <pt x="70" y="671" on="1"/>
        <pt x="240" y="671" on="1"/>
        <pt x="320" y="671" on="0"/>
        <pt x="401" y="590" on="0"/>
        <pt x="401" y="519" on="1"/>
        <pt x="401" y="463" on="1"/>
        <pt x="401" y="367" on="0"/>
        <pt x="326" y="338" on="1"/>
      </contour>
      <contour>
        <pt x="137" y="611" on="1"/>
        <pt x="137" y="367" on="1"/>
        <pt x="236" y="367" on="1"/>
        <pt x="334" y="367" on="0"/>
        <pt x="334" y="461" on="1"/>
        <pt x="334" y="517" on="1"/>
        <pt x="334" y="611" on="0"/>
        <pt x="236" y="611" on="1"/>
      </contour>
      <contour>
        <pt x="340" y="213" on="1"/>
        <pt x="340" y="307" on="0"/>
        <pt x="242" y="307" on="1"/>
        <pt x="137" y="307" on="1"/>
        <pt x="137" y="59" on="1"/>
        <pt x="242" y="59" on="1"/>
        <pt x="340" y="59" on="0"/>
        <pt x="340" y="153" on="1"/>
      </contour>
    </TTGlyph>
    <TTGlyph name="C" xMin="60" yMin="-5" xMax="356" yMax="676">
      <contour>
        <pt x="60" y="602" on="0"/>
        <pt x="148" y="676" on="0"/>
        <pt x="238" y="676" on="1"/>
        <pt x="296" y="676" on="0"/>
        <pt x="354" y="660" on="1"/>
        <pt x="354" y="597" on="1"/>
        <pt x="295" y="614" on="0"/>
        <pt x="239" y="614" on="1"/>
        <pt x="177" y="614" on="0"/>
        <pt x="128" y="573" on="0"/>
        <pt x="128" y="532" on="1"/>
        <pt x="128" y="138" on="1"/>
        <pt x="128" y="98" on="0"/>
        <pt x="177" y="57" on="0"/>
        <pt x="239" y="57" on="1"/>
        <pt x="301" y="57" on="0"/>
        <pt x="356" y="73" on="1"/>
        <pt x="356" y="11" on="1"/>
        <pt x="334" y="4" on="0"/>
        <pt x="271" y="-5" on="0"/>
        <pt x="238" y="-5" on="1"/>
        <pt x="148" y="-5" on="0"/>
        <pt x="60" y="68" on="0"/>
        <pt x="60" y="136" on="1"/>
        <pt x="60" y="535" on="1"/>
      </contour>
    </TTGlyph>
    <TTGlyph name="Cacute" xMin="60" yMin="-5" xMax="356" yMax="819">
      <component glyphName="C" x="0" y="0" flags="0x0"/>
      <component glyphName="acute" x="79" y="100" flags="0x4"/>
    </TTGlyph>
    <TTGlyph name="Ccaron" xMin="60" yMin="-5" xMax="356" yMax="819">
      <component glyphName="C" x="0" y="0" flags="0x0"/>
      <component glyphName="caron" x="51" y="100" flags="0x4"/>
    </TTGlyph>
    <TTGlyph name="Ccedilla" xMin="60" yMin="-181" xMax="356" yMax="676">
      <component glyphName="C" x="0" y="0" flags="0x0"/>
      <component glyphName="cedilla" x="56" y="0" flags="0x0"/>
    </TTGlyph>
    <TTGlyph name="D" xMin="70" yMin="0" xMax="405" yMax="671">
      <contour>
        <pt x="323" y="671" on="0"/>
        <pt x="405" y="589" on="0"/>
        <pt x="405" y="520" on="1"/>
        <pt x="405" y="152" on="1"/>
        <pt x="405" y="82" on="0"/>
        <pt x="325" y="0" on="0"/>
        <pt x="245" y="0" on="1"/>
        <pt x="70" y="0" on="1"/>
        <pt x="70" y="671" on="1"/>
        <pt x="244" y="671" on="1"/>
      </contour>
      <contour>
        <pt x="337" y="612" on="0"/>
        <pt x="240" y="612" on="1"/>
        <pt x="137" y="612" on="1"/>
        <pt x="137" y="60" on="1"/>
        <pt x="240" y="60" on="1"/>
        <pt x="337" y="60" on="0"/>
        <pt x="337" y="154" on="1"/>
        <pt x="337" y="519" on="1"/>
      </contour>
    </TTGlyph>
    <TTGlyph name="Dcaron" xMin="70" yMin="0" xMax="405" yMax="819">
      <component glyphName="D" x="0" y="0" flags="0x0"/>
      <component glyphName="caron" x="50" y="100" flags="0x4"/>
    </TTGlyph>
    <TTGlyph name="Dcroat" xMin="11" yMin="0" xMax="407" yMax="671">
      <contour>
        <pt x="325" y="671" on="0"/>
        <pt x="407" y="589" on="0"/>
        <pt x="407" y="520" on="1"/>
        <pt x="407" y="152" on="1"/>
        <pt x="407" y="82" on="0"/>
        <pt x="327" y="0" on="0"/>
        <pt x="247" y="0" on="1"/>
        <pt x="72" y="0" on="1"/>
        <pt x="72" y="305" on="1"/>
        <pt x="11" y="305" on="1"/>
        <pt x="11" y="364" on="1"/>
        <pt x="72" y="364" on="1"/>
        <pt x="72" y="671" on="1"/>
        <pt x="246" y="671" on="1"/>
      </contour>
      <contour>
        <pt x="339" y="519" on="1"/>
        <pt x="339" y="612" on="0"/>
        <pt x="242" y="612" on="1"/>
        <pt x="139" y="612" on="1"/>
        <pt x="139" y="364" on="1"/>
        <pt x="242" y="364" on="1"/>
        <pt x="242" y="305" on="1"/>
        <pt x="139" y="305" on="1"/>
        <pt x="139" y="60" on="1"/>
        <pt x="242" y="60" on="1"/>
        <pt x="339" y="60" on="0"/>
        <pt x="339" y="154" on="1"/>
      </contour>
    </TTGlyph>
    <TTGlyph name="E" xMin="70" yMin="0" xMax="359" yMax="671">
      <contour>
        <pt x="359" y="611" on="1"/>
        <pt x="137" y="611" on="1"/>
        <pt x="137" y="368" on="1"/>
        <pt x="330" y="368" on="1"/>
        <pt x="330" y="308" on="1"/>
        <pt x="137" y="308" on="1"/>
        <pt x="137" y="60" on="1"/>
        <pt x="359" y="60" on="1"/>
        <pt x="359" y="0" on="1"/>
        <pt x="70" y="0" on="1"/>
        <pt x="70" y="671" on="1"/>
        <pt x="359" y="671" on="1"/>
      </contour>
    </TTGlyph>
    <TTGlyph name="Eacute" xMin="70" yMin="0" xMax="359" yMax="819">
      <component glyphName="E" x="0" y="0" flags="0x0"/>
      <component glyphName="acute" x="70" y="100" flags="0x4"/>
    </TTGlyph>
    <TTGlyph name="Ecaron" xMin="70" yMin="0" xMax="359" yMax="819">
      <component glyphName="E" x="0" y="0" flags="0x0"/>
      <component glyphName="caron" x="41" y="100" flags="0x4"/>
    </TTGlyph>
    <TTGlyph name="Ecircumflex" xMin="70" yMin="0" xMax="359" yMax="819">
      <component glyphName="E" x="0" y="0" flags="0x0"/>
      <component glyphName="circumflex" x="34" y="100" flags="0x4"/>
    </TTGlyph>
    <TTGlyph name="Edieresis" xMin="70" yMin="0" xMax="359" yMax="801">
      <component glyphName="E" x="0" y="0" flags="0x0"/>
      <component glyphName="dieresis" x="42" y="100" flags="0x4"/>
    </TTGlyph>
    <TTGlyph name="Edotaccent" xMin="70" yMin="0" xMax="359" yMax="825">
      <component glyphName="E" x="0" y="0" flags="0x0"/>
      <component glyphName="dotaccent" x="46" y="100" flags="0x4"/>
    </TTGlyph>
    <TTGlyph name="Egrave" xMin="70" yMin="0" xMax="359" yMax="819">
      <component glyphName="E" x="0" y="0" flags="0x0"/>
      <component glyphName="grave" x="11" y="100" flags="0x4"/>
    </TTGlyph>
    <TTGlyph name="Emacron" xMin="70" yMin="0" xMax="359" yMax="788">
      <component glyphName="E" x="0" y="0" flags="0x0"/>
      <component glyphName="macron" x="40" y="100" flags="0x4"/>
    </TTGlyph>
    <TTGlyph name="Eogonek" xMin="70" yMin="-175" xMax="359" yMax="671">
      <component glyphName="E" x="0" y="0" flags="0x0"/>
      <component glyphName="ogonek" x="135" y="0" flags="0x0"/>
    </TTGlyph>
    <TTGlyph name="Eth" xMin="-2" yMin="0" xMax="407" yMax="671">
      <contour>
        <pt x="325" y="671" on="0"/>
        <pt x="407" y="589" on="0"/>
        <pt x="407" y="520" on="1"/>
        <pt x="407" y="152" on="1"/>
        <pt x="407" y="82" on="0"/>
        <pt x="327" y="0" on="0"/>
        <pt x="247" y="0" on="1"/>
        <pt x="72" y="0" on="1"/>
        <pt x="72" y="300" on="1"/>
        <pt x="-2" y="300" on="1"/>
        <pt x="-2" y="359" on="1"/>
        <pt x="72" y="359" on="1"/>
        <pt x="72" y="671" on="1"/>
        <pt x="246" y="671" on="1"/>
      </contour>
      <contour>
        <pt x="339" y="519" on="1"/>
        <pt x="339" y="612" on="0"/>
        <pt x="242" y="612" on="1"/>
        <pt x="139" y="612" on="1"/>
        <pt x="139" y="359" on="1"/>
        <pt x="249" y="359" on="1"/>
        <pt x="249" y="300" on="1"/>
        <pt x="139" y="300" on="1"/>
        <pt x="139" y="60" on="1"/>
        <pt x="242" y="60" on="1"/>
        <pt x="339" y="60" on="0"/>
        <pt x="339" y="154" on="1"/>
      </contour>
    </TTGlyph>
    <TTGlyph name="Euro" xMin="14" yMin="-5" xMax="363" yMax="676">
      <contour>
        <pt x="308" y="57" on="0"/>
        <pt x="363" y="73" on="1"/>
        <pt x="363" y="11" on="1"/>
        <pt x="341" y="4" on="0"/>
        <pt x="278" y="-5" on="0"/>
        <pt x="245" y="-5" on="1"/>
        <pt x="155" y="-5" on="0"/>
        <pt x="67" y="68" on="0"/>
        <pt x="67" y="136" on="1"/>
        <pt x="67" y="249" on="1"/>
        <pt x="14" y="249" on="1"/>
        <pt x="14" y="299" on="1"/>
        <pt x="67" y="299" on="1"/>
        <pt x="67" y="382" on="1"/>
        <pt x="14" y="382" on="1"/>
        <pt x="14" y="432" on="1"/>
        <pt x="67" y="432" on="1"/>
        <pt x="67" y="535" on="1"/>
        <pt x="67" y="602" on="0"/>
        <pt x="155" y="676" on="0"/>
        <pt x="245" y="676" on="1"/>
        <pt x="303" y="676" on="0"/>
        <pt x="361" y="660" on="1"/>
        <pt x="361" y="597" on="1"/>
        <pt x="302" y="614" on="0"/>
        <pt x="246" y="614" on="1"/>
        <pt x="184" y="614" on="0"/>
        <pt x="135" y="573" on="0"/>
        <pt x="135" y="532" on="1"/>
        <pt x="135" y="432" on="1"/>
        <pt x="291" y="432" on="1"/>
        <pt x="291" y="382" on="1"/>
        <pt x="135" y="382" on="1"/>
        <pt x="135" y="299" on="1"/>
        <pt x="291" y="299" on="1"/>
        <pt x="291" y="249" on="1"/>
        <pt x="135" y="249" on="1"/>
        <pt x="135" y="138" on="1"/>
        <pt x="135" y="98" on="0"/>
        <pt x="184" y="57" on="0"/>
        <pt x="246" y="57" on="1"/>
      </contour>
    </TTGlyph>
    <TTGlyph name="F" xMin="70" yMin="0" xMax="350" yMax="671">
      <contour>
        <pt x="350" y="611" on="1"/>
        <pt x="138" y="611" on="1"/>
        <pt x="138" y="356" on="1"/>
        <pt x="340" y="356" on="1"/>
        <pt x="340" y="295" on="1"/>
        <pt x="138" y="295" on="1"/>
        <pt x="138" y="0" on="1"/>
        <pt x="70" y="0" on="1"/>
        <pt x="70" y="671" on="1"/>
        <pt x="350" y="671" on="1"/>
      </contour>
    </TTGlyph>
    <TTGlyph name="G" xMin="60" yMin="-5" xMax="385" yMax="676">
      <contour>
        <pt x="60" y="598" on="0"/>
        <pt x="149" y="676" on="0"/>
        <pt x="244" y="676" on="1"/>
        <pt x="305" y="676" on="0"/>
        <pt x="365" y="659" on="1"/>
        <pt x="365" y="594" on="1"/>
        <pt x="304" y="613" on="0"/>
        <pt x="245" y="613" on="1"/>
        <pt x="182" y="613" on="0"/>
        <pt x="128" y="569" on="0"/>
        <pt x="128" y="526" on="1"/>
        <pt x="128" y="139" on="1"/>
        <pt x="128" y="95" on="0"/>
        <pt x="177" y="56" on="0"/>
        <pt x="225" y="56" on="1"/>
        <pt x="256" y="56" on="0"/>
        <pt x="306" y="70" on="0"/>
        <pt x="318" y="77" on="1"/>
        <pt x="318" y="328" on="1"/>
        <pt x="385" y="328" on="1"/>
        <pt x="385" y="35" on="1"/>
        <pt x="352" y="17" on="0"/>
        <pt x="284" y="-5" on="0"/>
        <pt x="225" y="-5" on="1"/>
        <pt x="149" y="-5" on="0"/>
        <pt x="60" y="63" on="0"/>
        <pt x="60" y="136" on="1"/>
        <pt x="60" y="529" on="1"/>
      </contour>
    </TTGlyph>
    <TTGlyph name="Gbreve" xMin="60" yMin="-5" xMax="385" yMax="819">
      <component glyphName="G" x="0" y="0" flags="0x0"/>
      <component glyphName="breve" x="53" y="100" flags="0x4"/>
    </TTGlyph>
    <TTGlyph name="H" xMin="70" yMin="0" xMax="424" yMax="671">
      <contour>
        <pt x="424" y="671" on="1"/>
        <pt x="424" y="0" on="1"/>
        <pt x="355" y="0" on="1"/>
        <pt x="355" y="299" on="1"/>
        <pt x="138" y="299" on="1"/>
        <pt x="138" y="0" on="1"/>
        <pt x="70" y="0" on="1"/>
        <pt x="70" y="671" on="1"/>
        <pt x="138" y="671" on="1"/>
        <pt x="138" y="359" on="1"/>
        <pt x="355" y="359" on="1"/>
        <pt x="355" y="671" on="1"/>
      </contour>
    </TTGlyph>
    <TTGlyph name="I" xMin="70" yMin="0" xMax="138" yMax="671">
      <contour>
        <pt x="138" y="0" on="1"/>
        <pt x="70" y="0" on="1"/>
        <pt x="70" y="671" on="1"/>
        <pt x="138" y="671" on="1"/>
      </contour>
    </TTGlyph>
    <TTGlyph name="Iacute" xMin="70" yMin="0" xMax="181" yMax="819">
      <component glyphName="I" x="0" y="0" flags="0x0"/>
      <component glyphName="acute" x="-45" y="100" flags="0x4"/>
    </TTGlyph>
    <TTGlyph name="Icircumflex" xMin="30" yMin="0" xMax="187" yMax="819">
      <component glyphName="I" x="0" y="0" flags="0x0"/>
      <component glyphName="circumflex" x="-66" y="100" flags="0x4"/>
    </TTGlyph>
    <TTGlyph name="Idieresis" xMin="-1" yMin="0" xMax="207" yMax="801">
      <component glyphName="I" x="0" y="0" flags="0x0"/>
      <component glyphName="dieresis" x="-72" y="100" flags="0x4"/>
    </TTGlyph>
    <TTGlyph name="Idotaccent" xMin="64" yMin="0" xMax="139" yMax="825">
      <component glyphName="I" x="0" y="0" flags="0x0"/>
      <component glyphName="dotaccent" x="-72" y="100" flags="0x4"/>
    </TTGlyph>
    <TTGlyph name="Igrave" xMin="26" yMin="0" xMax="138" yMax="819">
      <component glyphName="I" x="0" y="0" flags="0x0"/>
      <component glyphName="grave" x="-98" y="100" flags="0x4"/>
    </TTGlyph>
    <TTGlyph name="Imacron" xMin="-5" yMin="0" xMax="215" yMax="788">
      <component glyphName="I" x="0" y="0" flags="0x0"/>
      <component glyphName="macron" x="-70" y="100" flags="0x4"/>
    </TTGlyph>
    <TTGlyph name="Iogonek" xMin="43" yMin="-175" xMax="138" yMax="671">
      <component glyphName="I" x="0" y="0" flags="0x0"/>
      <component glyphName="ogonek" x="-85" y="0" flags="0x0"/>
    </TTGlyph>
    <TTGlyph name="J" xMin="5" yMin="-149" xMax="139" yMax="671">
      <contour>
        <pt x="139" y="197" on="1"/>
        <pt x="139" y="120" on="0"/>
        <pt x="121" y="10" on="0"/>
        <pt x="105" y="-44" on="1"/>
        <pt x="74" y="-149" on="1"/>
        <pt x="5" y="-149" on="1"/>
        <pt x="35" y="-44" on="1"/>
        <pt x="54" y="22" on="0"/>
        <pt x="71" y="127" on="0"/>
        <pt x="71" y="196" on="1"/>
        <pt x="71" y="671" on="1"/>
        <pt x="139" y="671" on="1"/>
      </contour>
    </TTGlyph>
    <TTGlyph name="K" xMin="70" yMin="0" xMax="414" yMax="671">
      <contour>
        <pt x="137" y="0" on="1"/>
        <pt x="70" y="0" on="1"/>
        <pt x="70" y="671" on="1"/>
        <pt x="137" y="671" on="1"/>
      </contour>
      <contour>
        <pt x="264" y="337" on="1"/>
        <pt x="414" y="0" on="1"/>
        <pt x="338" y="0" on="1"/>
        <pt x="191" y="335" on="1"/>
        <pt x="332" y="671" on="1"/>
        <pt x="406" y="671" on="1"/>
      </contour>
    </TTGlyph>
    <TTGlyph name="L" xMin="70" yMin="0" xMax="342" yMax="671">
      <contour>
        <pt x="138" y="59" on="1"/>
        <pt x="342" y="59" on="1"/>
        <pt x="342" y="0" on="1"/>
        <pt x="70" y="0" on="1"/>
        <pt x="70" y="671" on="1"/>
        <pt x="138" y="671" on="1"/>
      </contour>
    </TTGlyph>
    <TTGlyph name="Lacute" xMin="70" yMin="0" xMax="342" yMax="819">
      <component glyphName="L" x="0" y="0" flags="0x0"/>
      <component glyphName="acute" x="-45" y="100" flags="0x4"/>
    </TTGlyph>
    <TTGlyph name="Lcaron" xMin="70" yMin="0" xMax="342" yMax="717">
      <contour>
        <pt x="244" y="717" on="0"/>
        <pt x="259" y="704" on="0"/>
        <pt x="259" y="692" on="1"/>
        <pt x="259" y="668" on="0"/>
        <pt x="213" y="597" on="1"/>
        <pt x="179" y="597" on="1"/>
        <pt x="205" y="717" on="1"/>
        <pt x="232" y="717" on="1"/>
      </contour>
      <contour>
        <pt x="138" y="59" on="1"/>
        <pt x="342" y="59" on="1"/>
        <pt x="342" y="0" on="1"/>
        <pt x="70" y="0" on="1"/>
        <pt x="70" y="671" on="1"/>
        <pt x="138" y="671" on="1"/>
      </contour>
    </TTGlyph>
    <TTGlyph name="Lslash" xMin="16" yMin="0" xMax="344" yMax="671">
      <contour>
        <pt x="344" y="59" on="1"/>
        <pt x="344" y="0" on="1"/>
        <pt x="72" y="0" on="1"/>
        <pt x="72" y="280" on="1"/>
        <pt x="16" y="251" on="1"/>
        <pt x="16" y="306" on="1"/>
        <pt x="72" y="335" on="1"/>
        <pt x="72" y="671" on="1"/>
        <pt x="140" y="671" on="1"/>
        <pt x="140" y="371" on="1"/>
        <pt x="237" y="421" on="1"/>
        <pt x="237" y="366" on="1"/>
        <pt x="140" y="316" on="1"/>
        <pt x="140" y="59" on="1"/>
      </contour>
    </TTGlyph>
    <TTGlyph name="M" xMin="70" yMin="0" xMax="540" yMax="671">
      <contour>
        <pt x="540" y="0" on="1"/>
        <pt x="475" y="0" on="1"/>
        <pt x="475" y="359" on="1"/>
        <pt x="475" y="432" on="0"/>
        <pt x="479" y="543" on="0"/>
        <pt x="480" y="558" on="1"/>
        <pt x="341" y="179" on="1"/>
        <pt x="268" y="179" on="1"/>
        <pt x="127" y="558" on="1"/>
        <pt x="128" y="542" on="0"/>
        <pt x="134" y="425" on="0"/>
        <pt x="134" y="360" on="1"/>
        <pt x="134" y="0" on="1"/>
        <pt x="70" y="0" on="1"/>
        <pt x="70" y="671" on="1"/>
        <pt x="151" y="671" on="1"/>
        <pt x="304" y="247" on="1"/>
        <pt x="457" y="671" on="1"/>
        <pt x="540" y="671" on="1"/>
      </contour>
    </TTGlyph>
    <TTGlyph name="N" xMin="70" yMin="0" xMax="429" yMax="671">
      <contour>
        <pt x="429" y="0" on="1"/>
        <pt x="349" y="0" on="1"/>
        <pt x="210" y="352" on="1"/>
        <pt x="162" y="477" on="1"/>
        <pt x="130" y="561" on="1"/>
        <pt x="130" y="542" on="0"/>
        <pt x="132" y="488" on="1"/>
        <pt x="134" y="443" on="0"/>
        <pt x="136" y="344" on="1"/>
        <pt x="136" y="0" on="1"/>
        <pt x="70" y="0" on="1"/>
        <pt x="70" y="671" on="1"/>
        <pt x="149" y="671" on="1"/>
        <pt x="288" y="318" on="1"/>
        <pt x="367" y="109" on="1"/>
        <pt x="367" y="128" on="0"/>
        <pt x="365" y="182" on="1"/>
        <pt x="363" y="228" on="0"/>
        <pt x="361" y="327" on="1"/>
        <pt x="361" y="671" on="1"/>
        <pt x="429" y="671" on="1"/>
      </contour>
    </TTGlyph>
    <TTGlyph name="Nacute" xMin="70" yMin="0" xMax="429" yMax="819">
      <component glyphName="N" x="0" y="0" flags="0x0"/>
      <component glyphName="acute" x="105" y="100" flags="0x4"/>
    </TTGlyph>
    <TTGlyph name="Ncaron" xMin="70" yMin="0" xMax="429" yMax="819">
      <component glyphName="N" x="0" y="0" flags="0x0"/>
      <component glyphName="caron" x="76" y="100" flags="0x4"/>
    </TTGlyph>
    <TTGlyph name="Ntilde" xMin="70" yMin="0" xMax="429" yMax="810">
      <component glyphName="N" x="0" y="0" flags="0x0"/>
      <component glyphName="tilde" x="83" y="100" flags="0x4"/>
    </TTGlyph>
    <TTGlyph name="O" xMin="60" yMin="-10" xMax="396" yMax="681">
      <contour>
        <pt x="60" y="594" on="0"/>
        <pt x="145" y="681" on="0"/>
        <pt x="228" y="681" on="1"/>
        <pt x="311" y="681" on="0"/>
        <pt x="396" y="594" on="0"/>
        <pt x="396" y="523" on="1"/>
        <pt x="396" y="148" on="1"/>
        <pt x="396" y="77" on="0"/>
        <pt x="311" y="-10" on="0"/>
        <pt x="228" y="-10" on="1"/>
        <pt x="145" y="-10" on="0"/>
        <pt x="60" y="77" on="0"/>
        <pt x="60" y="148" on="1"/>
        <pt x="60" y="523" on="1"/>
      </contour>
      <contour>
        <pt x="328" y="619" on="0"/>
        <pt x="228" y="619" on="1"/>
        <pt x="127" y="619" on="0"/>
        <pt x="127" y="522" on="1"/>
        <pt x="127" y="149" on="1"/>
        <pt x="127" y="103" on="0"/>
        <pt x="176" y="51" on="0"/>
        <pt x="228" y="51" on="1"/>
        <pt x="280" y="51" on="0"/>
        <pt x="328" y="103" on="0"/>
        <pt x="328" y="149" on="1"/>
        <pt x="328" y="522" on="1"/>
      </contour>
    </TTGlyph>
    <TTGlyph name="OE" xMin="80" yMin="0" xMax="639" yMax="671">
      <contour>
        <pt x="417" y="611" on="1"/>
        <pt x="417" y="368" on="1"/>
        <pt x="610" y="368" on="1"/>
        <pt x="610" y="308" on="1"/>
        <pt x="417" y="308" on="1"/>
        <pt x="417" y="60" on="1"/>
        <pt x="639" y="60" on="1"/>
        <pt x="639" y="0" on="1"/>
        <pt x="239" y="0" on="1"/>
        <pt x="159" y="0" on="0"/>
        <pt x="80" y="82" on="0"/>
        <pt x="80" y="152" on="1"/>
        <pt x="80" y="520" on="1"/>
        <pt x="80" y="589" on="0"/>
        <pt x="161" y="671" on="0"/>
        <pt x="241" y="671" on="1"/>
        <pt x="639" y="671" on="1"/>
        <pt x="639" y="611" on="1"/>
      </contour>
      <contour>
        <pt x="350" y="60" on="1"/>
        <pt x="350" y="612" on="1"/>
        <pt x="244" y="612" on="1"/>
        <pt x="147" y="612" on="0"/>
        <pt x="147" y="519" on="1"/>
        <pt x="147" y="154" on="1"/>
        <pt x="147" y="60" on="0"/>
        <pt x="244" y="60" on="1"/>
      </contour>
    </TTGlyph>
    <TTGlyph name="Oacute" xMin="60" yMin="-10" xMax="396" yMax="819">
      <component glyphName="O" x="0" y="0" flags="0x0"/>
      <component glyphName="acute" x="82" y="100" flags="0x4"/>
    </TTGlyph>
    <TTGlyph name="Ocircumflex" xMin="60" yMin="-10" xMax="396" yMax="819">
      <component glyphName="O" x="0" y="0" flags="0x0"/>
      <component glyphName="circumflex" x="52" y="100" flags="0x4"/>
    </TTGlyph>
    <TTGlyph name="Odieresis" xMin="60" yMin="-10" xMax="396" yMax="801">
      <component glyphName="O" x="0" y="0" flags="0x0"/>
      <component glyphName="dieresis" x="53" y="100" flags="0x4"/>
    </TTGlyph>
    <TTGlyph name="Ograve" xMin="60" yMin="-10" xMax="396" yMax="819">
      <component glyphName="O" x="0" y="0" flags="0x0"/>
      <component glyphName="grave" x="17" y="100" flags="0x4"/>
    </TTGlyph>
    <TTGlyph name="Ohungarumlaut" xMin="60" yMin="-10" xMax="396" yMax="819">
      <component glyphName="O" x="0" y="0" flags="0x0"/>
      <component glyphName="hungarumlaut" x="81" y="100" flags="0x4"/>
    </TTGlyph>
    <TTGlyph name="Omacron" xMin="60" yMin="-10" xMax="396" yMax="788">
      <component glyphName="O" x="0" y="0" flags="0x0"/>
      <component glyphName="macron" x="54" y="100" flags="0x4"/>
    </TTGlyph>
    <TTGlyph name="Oslash" xMin="59" yMin="-10" xMax="396" yMax="681">
      <contour>
        <pt x="372" y="614" on="1"/>
        <pt x="396" y="577" on="0"/>
        <pt x="396" y="523" on="1"/>
        <pt x="396" y="148" on="1"/>
        <pt x="396" y="77" on="0"/>
        <pt x="311" y="-10" on="0"/>
        <pt x="228" y="-10" on="1"/>
        <pt x="163" y="-10" on="0"/>
        <pt x="119" y="19" on="1"/>
        <pt x="111" y="0" on="1"/>
        <pt x="59" y="0" on="1"/>
        <pt x="83" y="57" on="1"/>
        <pt x="60" y="97" on="0"/>
        <pt x="60" y="148" on="1"/>
        <pt x="60" y="523" on="1"/>
        <pt x="60" y="594" on="0"/>
        <pt x="145" y="681" on="0"/>
        <pt x="228" y="681" on="1"/>
        <pt x="293" y="681" on="0"/>
        <pt x="336" y="652" on="1"/>
        <pt x="344" y="671" on="1"/>
        <pt x="396" y="671" on="1"/>
      </contour>
      <contour>
        <pt x="127" y="160" on="1"/>
        <pt x="309" y="588" on="1"/>
        <pt x="284" y="619" on="0"/>
        <pt x="228" y="619" on="1"/>
        <pt x="127" y="619" on="0"/>
        <pt x="127" y="522" on="1"/>
      </contour>
      <contour>
        <pt x="328" y="511" on="1"/>
        <pt x="146" y="83" on="1"/>
        <pt x="172" y="51" on="0"/>
        <pt x="228" y="51" on="1"/>
        <pt x="280" y="51" on="0"/>
        <pt x="328" y="103" on="0"/>
        <pt x="328" y="149" on="1"/>
      </contour>
    </TTGlyph>
    <TTGlyph name="Otilde" xMin="60" yMin="-10" xMax="396" yMax="810">
      <component glyphName="O" x="0" y="0" flags="0x0"/>
      <component glyphName="tilde" x="54" y="100" flags="0x4"/>
    </TTGlyph>
    <TTGlyph name="P" xMin="70" yMin="0" xMax="392" yMax="671">
      <contour>
        <pt x="310" y="671" on="0"/>
        <pt x="392" y="589" on="0"/>
        <pt x="392" y="520" on="1"/>
        <pt x="392" y="383" on="1"/>
        <pt x="392" y="314" on="0"/>
        <pt x="310" y="232" on="0"/>
        <pt x="231" y="232" on="1"/>
        <pt x="138" y="232" on="1"/>
        <pt x="138" y="0" on="1"/>
        <pt x="70" y="0" on="1"/>
        <pt x="70" y="671" on="1"/>
        <pt x="231" y="671" on="1"/>
      </contour>
      <contour>
        <pt x="325" y="611" on="0"/>
        <pt x="227" y="611" on="1"/>
        <pt x="138" y="611" on="1"/>
        <pt x="138" y="292" on="1"/>
        <pt x="227" y="292" on="1"/>
        <pt x="325" y="292" on="0"/>
        <pt x="325" y="386" on="1"/>
        <pt x="325" y="517" on="1"/>
      </contour>
    </TTGlyph>
    <TTGlyph name="Q" xMin="60" yMin="-101" xMax="441" yMax="681">
      <contour>
        <pt x="357" y="-101" on="1"/>
        <pt x="271" y="-6" on="1"/>
        <pt x="254" y="-10" on="0"/>
        <pt x="228" y="-10" on="1"/>
        <pt x="145" y="-10" on="0"/>
        <pt x="60" y="77" on="0"/>
        <pt x="60" y="148" on="1"/>
        <pt x="60" y="523" on="1"/>
        <pt x="60" y="594" on="0"/>
        <pt x="145" y="681" on="0"/>
        <pt x="228" y="681" on="1"/>
        <pt x="311" y="681" on="0"/>
        <pt x="396" y="594" on="0"/>
        <pt x="396" y="523" on="1"/>
        <pt x="396" y="148" on="1"/>
        <pt x="396" y="106" on="0"/>
        <pt x="365" y="38" on="0"/>
        <pt x="334" y="17" on="1"/>
        <pt x="441" y="-101" on="1"/>
      </contour>
      <contour>
        <pt x="127" y="103" on="0"/>
        <pt x="176" y="51" on="0"/>
        <pt x="228" y="51" on="1"/>
        <pt x="280" y="51" on="0"/>
        <pt x="328" y="103" on="0"/>
        <pt x="328" y="149" on="1"/>
        <pt x="328" y="522" on="1"/>
        <pt x="328" y="619" on="0"/>
        <pt x="228" y="619" on="1"/>
        <pt x="127" y="619" on="0"/>
        <pt x="127" y="522" on="1"/>
        <pt x="127" y="149" on="1"/>
      </contour>
    </TTGlyph>
    <TTGlyph name="R" xMin="70" yMin="0" xMax="413" yMax="671">
      <contour>
        <pt x="338" y="0" on="1"/>
        <pt x="240" y="271" on="1"/>
        <pt x="233" y="271" on="1"/>
        <pt x="137" y="271" on="1"/>
        <pt x="137" y="0" on="1"/>
        <pt x="70" y="0" on="1"/>
        <pt x="70" y="671" on="1"/>
        <pt x="231" y="671" on="1"/>
        <pt x="310" y="671" on="0"/>
        <pt x="392" y="589" on="0"/>
        <pt x="392" y="520" on="1"/>
        <pt x="392" y="423" on="1"/>
        <pt x="392" y="371" on="0"/>
        <pt x="349" y="299" on="0"/>
        <pt x="306" y="283" on="1"/>
        <pt x="413" y="0" on="1"/>
      </contour>
      <contour>
        <pt x="228" y="330" on="1"/>
        <pt x="279" y="330" on="0"/>
        <pt x="325" y="377" on="0"/>
        <pt x="325" y="423" on="1"/>
        <pt x="325" y="518" on="1"/>
        <pt x="325" y="611" on="0"/>
        <pt x="228" y="611" on="1"/>
        <pt x="137" y="611" on="1"/>
        <pt x="137" y="330" on="1"/>
      </contour>
    </TTGlyph>
    <TTGlyph name="Racute" xMin="70" yMin="0" xMax="413" yMax="819">
      <component glyphName="R" x="0" y="0" flags="0x0"/>
      <component glyphName="acute" x="81" y="100" flags="0x4"/>
    </TTGlyph>
    <TTGlyph name="Rcaron" xMin="70" yMin="0" xMax="413" yMax="819">
      <component glyphName="R" x="0" y="0" flags="0x0"/>
      <component glyphName="caron" x="49" y="100" flags="0x4"/>
    </TTGlyph>
    <TTGlyph name="S" xMin="28" yMin="-5" xMax="354" yMax="676">
      <contour>
        <pt x="28" y="602" on="0"/>
        <pt x="115" y="676" on="0"/>
        <pt x="200" y="676" on="1"/>
        <pt x="274" y="676" on="0"/>
        <pt x="328" y="660" on="1"/>
        <pt x="328" y="595" on="1"/>
        <pt x="279" y="613" on="0"/>
        <pt x="201" y="613" on="1"/>
        <pt x="97" y="613" on="0"/>
        <pt x="97" y="534" on="1"/>
        <pt x="97" y="484" on="1"/>
        <pt x="97" y="450" on="0"/>
        <pt x="124" y="407" on="0"/>
        <pt x="156" y="390" on="1"/>
        <pt x="272" y="325" on="1"/>
        <pt x="314" y="303" on="0"/>
        <pt x="354" y="240" on="0"/>
        <pt x="354" y="193" on="1"/>
        <pt x="354" y="139" on="1"/>
        <pt x="354" y="71" on="0"/>
        <pt x="260" y="-5" on="0"/>
        <pt x="167" y="-5" on="1"/>
        <pt x="128" y="-5" on="0"/>
        <pt x="55" y="7" on="0"/>
        <pt x="33" y="15" on="1"/>
        <pt x="33" y="80" on="1"/>
        <pt x="59" y="70" on="0"/>
        <pt x="131" y="57" on="0"/>
        <pt x="166" y="57" on="1"/>
        <pt x="228" y="57" on="0"/>
        <pt x="285" y="103" on="0"/>
        <pt x="285" y="143" on="1"/>
        <pt x="285" y="186" on="1"/>
        <pt x="285" y="219" on="0"/>
        <pt x="261" y="258" on="0"/>
        <pt x="230" y="274" on="1"/>
        <pt x="115" y="337" on="1"/>
        <pt x="71" y="361" on="0"/>
        <pt x="28" y="428" on="0"/>
        <pt x="28" y="477" on="1"/>
        <pt x="28" y="536" on="1"/>
      </contour>
    </TTGlyph>
    <TTGlyph name="Sacute" xMin="28" yMin="-5" xMax="354" yMax="819">
      <component glyphName="S" x="0" y="0" flags="0x0"/>
      <component glyphName="acute" x="47" y="100" flags="0x4"/>
    </TTGlyph>
    <TTGlyph name="Scaron" xMin="28" yMin="-5" xMax="354" yMax="819">
      <component glyphName="S" x="0" y="0" flags="0x0"/>
      <component glyphName="caron" x="24" y="100" flags="0x4"/>
    </TTGlyph>
    <TTGlyph name="T" xMin="9" yMin="0" xMax="339" yMax="671">
      <contour>
        <pt x="339" y="611" on="1"/>
        <pt x="208" y="611" on="1"/>
        <pt x="208" y="0" on="1"/>
        <pt x="140" y="0" on="1"/>
        <pt x="140" y="611" on="1"/>
        <pt x="9" y="611" on="1"/>
        <pt x="9" y="671" on="1"/>
        <pt x="339" y="671" on="1"/>
      </contour>
    </TTGlyph>
    <TTGlyph name="Tcaron" xMin="9" yMin="0" xMax="339" yMax="819">
      <component glyphName="T" x="0" y="0" flags="0x0"/>
      <component glyphName="caron" x="-2" y="100" flags="0x4"/>
    </TTGlyph>
    <TTGlyph name="Thorn" xMin="80" yMin="0" xMax="400" yMax="671">
      <contour>
        <pt x="318" y="549" on="0"/>
        <pt x="400" y="467" on="0"/>
        <pt x="400" y="398" on="1"/>
        <pt x="400" y="273" on="1"/>
        <pt x="400" y="204" on="0"/>
        <pt x="318" y="122" on="0"/>
        <pt x="239" y="122" on="1"/>
        <pt x="146" y="122" on="1"/>
        <pt x="146" y="0" on="1"/>
        <pt x="80" y="0" on="1"/>
        <pt x="80" y="671" on="1"/>
        <pt x="146" y="671" on="1"/>
        <pt x="146" y="549" on="1"/>
        <pt x="239" y="549" on="1"/>
      </contour>
      <contour>
        <pt x="334" y="395" on="1"/>
        <pt x="334" y="489" on="0"/>
        <pt x="236" y="489" on="1"/>
        <pt x="146" y="489" on="1"/>
        <pt x="146" y="183" on="1"/>
        <pt x="236" y="183" on="1"/>
        <pt x="287" y="183" on="0"/>
        <pt x="334" y="231" on="0"/>
        <pt x="334" y="276" on="1"/>
      </contour>
    </TTGlyph>
    <TTGlyph name="U" xMin="65" yMin="-10" xMax="400" yMax="671">
      <contour>
        <pt x="400" y="148" on="1"/>
        <pt x="400" y="77" on="0"/>
        <pt x="315" y="-10" on="0"/>
        <pt x="232" y="-10" on="1"/>
        <pt x="149" y="-10" on="0"/>
        <pt x="65" y="77" on="0"/>
        <pt x="65" y="148" on="1"/>
        <pt x="65" y="671" on="1"/>
        <pt x="132" y="671" on="1"/>
        <pt x="132" y="149" on="1"/>
        <pt x="132" y="103" on="0"/>
        <pt x="180" y="51" on="0"/>
        <pt x="232" y="51" on="1"/>
        <pt x="332" y="51" on="0"/>
        <pt x="332" y="149" on="1"/>
        <pt x="332" y="671" on="1"/>
        <pt x="400" y="671" on="1"/>
      </contour>
    </TTGlyph>
    <TTGlyph name="Uacute" xMin="65" yMin="-10" xMax="400" yMax="819">
      <component glyphName="U" x="0" y="0" flags="0x0"/>
      <component glyphName="acute" x="87" y="100" flags="0x4"/>
    </TTGlyph>
    <TTGlyph name="Ucircumflex" xMin="65" yMin="-10" xMax="400" yMax="819">
      <component glyphName="U" x="0" y="0" flags="0x0"/>
      <component glyphName="circumflex" x="57" y="100" flags="0x4"/>
    </TTGlyph>
    <TTGlyph name="Udieresis" xMin="65" yMin="-10" xMax="400" yMax="801">
      <component glyphName="U" x="0" y="0" flags="0x0"/>
      <component glyphName="dieresis" x="57" y="100" flags="0x4"/>
    </TTGlyph>
    <TTGlyph name="Ugrave" xMin="65" yMin="-10" xMax="400" yMax="819">
      <component glyphName="U" x="0" y="0" flags="0x0"/>
      <component glyphName="grave" x="28" y="100" flags="0x4"/>
    </TTGlyph>
    <TTGlyph name="Uhungarumlaut" xMin="65" yMin="-10" xMax="400" yMax="819">
      <component glyphName="hungarumlaut" x="78" y="100" flags="0x4"/>
      <component glyphName="U" x="0" y="0" flags="0x0"/>
    </TTGlyph>
    <TTGlyph name="Umacron" xMin="65" yMin="-10" xMax="400" yMax="788">
      <component glyphName="U" x="0" y="0" flags="0x0"/>
      <component glyphName="macron" x="57" y="100" flags="0x4"/>
    </TTGlyph>
    <TTGlyph name="Uogonek" xMin="65" yMin="-165" xMax="400" yMax="671">
      <component glyphName="U" x="0" y="0" flags="0x0"/>
      <component glyphName="ogonek" x="100" y="10" flags="0x4"/>
    </TTGlyph>
    <TTGlyph name="Uring" xMin="65" yMin="-10" xMax="400" yMax="838">
      <component glyphName="U" x="0" y="0" flags="0x0"/>
      <component glyphName="ring" x="60" y="100" flags="0x4"/>
    </TTGlyph>
    <TTGlyph name="V" xMin="13" yMin="0" xMax="403" yMax="671">
      <contour>
        <pt x="257" y="0" on="1"/>
        <pt x="160" y="0" on="1"/>
        <pt x="13" y="671" on="1"/>
        <pt x="83" y="671" on="1"/>
        <pt x="155" y="336" on="1"/>
        <pt x="167" y="273" on="1"/>
        <pt x="209" y="67" on="1"/>
        <pt x="262" y="336" on="1"/>
        <pt x="333" y="671" on="1"/>
        <pt x="403" y="671" on="1"/>
      </contour>
    </TTGlyph>
    <TTGlyph name="W" xMin="21" yMin="0" xMax="588" yMax="671">
      <contour>
        <pt x="476" y="0" on="1"/>
        <pt x="393" y="0" on="1"/>
        <pt x="336" y="337" on="1"/>
        <pt x="323" y="413" on="0"/>
        <pt x="307" y="547" on="0"/>
        <pt x="305" y="565" on="1"/>
        <pt x="303" y="546" on="0"/>
        <pt x="288" y="412" on="0"/>
        <pt x="275" y="338" on="1"/>
        <pt x="217" y="0" on="1"/>
        <pt x="133" y="0" on="1"/>
        <pt x="21" y="671" on="1"/>
        <pt x="87" y="671" on="1"/>
        <pt x="154" y="263" on="1"/>
        <pt x="163" y="209" on="0"/>
        <pt x="176" y="101" on="0"/>
        <pt x="178" y="86" on="1"/>
        <pt x="180" y="101" on="0"/>
        <pt x="195" y="208" on="0"/>
        <pt x="204" y="264" on="1"/>
        <pt x="270" y="671" on="1"/>
        <pt x="341" y="671" on="1"/>
        <pt x="406" y="263" on="1"/>
        <pt x="415" y="206" on="0"/>
        <pt x="429" y="105" on="0"/>
        <pt x="431" y="87" on="1"/>
        <pt x="433" y="105" on="0"/>
        <pt x="448" y="219" on="0"/>
        <pt x="456" y="263" on="1"/>
        <pt x="522" y="671" on="1"/>
        <pt x="588" y="671" on="1"/>
      </contour>
    </TTGlyph>
    <TTGlyph name="X" xMin="13" yMin="0" xMax="376" yMax="671">
      <contour>
        <pt x="229" y="335" on="1"/>
        <pt x="376" y="0" on="1"/>
        <pt x="302" y="0" on="1"/>
        <pt x="195" y="257" on="1"/>
        <pt x="87" y="0" on="1"/>
        <pt x="13" y="0" on="1"/>
        <pt x="159" y="335" on="1"/>
        <pt x="13" y="671" on="1"/>
        <pt x="87" y="671" on="1"/>
        <pt x="195" y="412" on="1"/>
        <pt x="302" y="671" on="1"/>
        <pt x="376" y="671" on="1"/>
      </contour>
    </TTGlyph>
    <TTGlyph name="Y" xMin="4" yMin="0" xMax="402" yMax="671">
      <contour>
        <pt x="237" y="227" on="1"/>
        <pt x="237" y="0" on="1"/>
        <pt x="169" y="0" on="1"/>
        <pt x="169" y="227" on="1"/>
        <pt x="4" y="671" on="1"/>
        <pt x="74" y="671" on="1"/>
        <pt x="143" y="485" on="1"/>
        <pt x="151" y="463" on="0"/>
        <pt x="188" y="355" on="1"/>
        <pt x="204" y="307" on="1"/>
        <pt x="216" y="342" on="1"/>
        <pt x="265" y="485" on="1"/>
        <pt x="333" y="671" on="1"/>
        <pt x="402" y="671" on="1"/>
      </contour>
    </TTGlyph>
    <TTGlyph name="Yacute" xMin="4" yMin="0" xMax="402" yMax="819">
      <component glyphName="Y" x="0" y="0" flags="0x0"/>
      <component glyphName="acute" x="55" y="100" flags="0x4"/>
    </TTGlyph>
    <TTGlyph name="Ydieresis" xMin="4" yMin="0" xMax="402" yMax="801">
      <component glyphName="dieresis" x="24" y="100" flags="0x4"/>
      <component glyphName="Y" x="0" y="0" flags="0x0"/>
    </TTGlyph>
    <TTGlyph name="Z" xMin="28" yMin="0" xMax="352" yMax="671">
      <contour>
        <pt x="352" y="612" on="1"/>
        <pt x="100" y="60" on="1"/>
        <pt x="347" y="60" on="1"/>
        <pt x="347" y="0" on="1"/>
        <pt x="28" y="0" on="1"/>
        <pt x="28" y="60" on="1"/>
        <pt x="279" y="611" on="1"/>
        <pt x="34" y="611" on="1"/>
        <pt x="34" y="671" on="1"/>
        <pt x="352" y="671" on="1"/>
      </contour>
    </TTGlyph>
    <TTGlyph name="Zacute" xMin="28" yMin="0" xMax="352" yMax="819">
      <component glyphName="Z" x="0" y="0" flags="0x0"/>
      <component glyphName="acute" x="42" y="100" flags="0x4"/>
    </TTGlyph>
    <TTGlyph name="Zcaron" xMin="28" yMin="0" xMax="352" yMax="819">
      <component glyphName="Z" x="0" y="0" flags="0x0"/>
      <component glyphName="caron" x="19" y="100" flags="0x4"/>
    </TTGlyph>
    <TTGlyph name="Zdotaccent" xMin="28" yMin="0" xMax="352" yMax="825">
      <component glyphName="Z" x="0" y="0" flags="0x0"/>
      <component glyphName="dotaccent" x="15" y="100" flags="0x4"/>
    </TTGlyph>
    <TTGlyph name="a" xMin="32" yMin="-4" xMax="360" yMax="573">
      <contour>
        <pt x="82" y="562" on="0"/>
        <pt x="154" y="573" on="0"/>
        <pt x="191" y="573" on="1"/>
        <pt x="280" y="573" on="0"/>
        <pt x="360" y="499" on="0"/>
        <pt x="360" y="429" on="1"/>
        <pt x="360" y="0" on="1"/>
        <pt x="295" y="0" on="1"/>
        <pt x="295" y="41" on="1"/>
        <pt x="269" y="19" on="0"/>
        <pt x="216" y="-4" on="0"/>
        <pt x="171" y="-4" on="1"/>
        <pt x="32" y="-4" on="0"/>
        <pt x="32" y="132" on="1"/>
        <pt x="32" y="165" on="1"/>
        <pt x="32" y="217" on="0"/>
        <pt x="91" y="284" on="0"/>
        <pt x="153" y="302" on="1"/>
        <pt x="294" y="341" on="1"/>
        <pt x="294" y="429" on="1"/>
        <pt x="294" y="471" on="0"/>
        <pt x="249" y="510" on="0"/>
        <pt x="188" y="510" on="1"/>
        <pt x="153" y="510" on="0"/>
        <pt x="83" y="498" on="0"/>
        <pt x="59" y="490" on="1"/>
        <pt x="59" y="555" on="1"/>
      </contour>
      <contour>
        <pt x="177" y="249" on="1"/>
        <pt x="132" y="236" on="0"/>
        <pt x="99" y="197" on="0"/>
        <pt x="99" y="162" on="1"/>
        <pt x="99" y="131" on="1"/>
        <pt x="99" y="91" on="0"/>
        <pt x="137" y="52" on="0"/>
        <pt x="182" y="52" on="1"/>
        <pt x="215" y="52" on="0"/>
        <pt x="273" y="75" on="0"/>
        <pt x="294" y="92" on="1"/>
        <pt x="294" y="281" on="1"/>
      </contour>
    </TTGlyph>
    <TTGlyph name="aacute" xMin="32" yMin="-4" xMax="360" yMax="719">
      <component glyphName="a" x="0" y="0" flags="0x0"/>
      <component glyphName="acute" x="60" y="0" flags="0x0"/>
    </TTGlyph>
    <TTGlyph name="abreve" xMin="32" yMin="-4" xMax="360" yMax="719">
      <component glyphName="a" x="0" y="0" flags="0x0"/>
      <component glyphName="breve" x="37" y="0" flags="0x0"/>
    </TTGlyph>
    <TTGlyph name="acircumflex" xMin="32" yMin="-4" xMax="360" yMax="719">
      <component glyphName="a" x="0" y="0" flags="0x0"/>
      <component glyphName="circumflex" x="40" y="0" flags="0x0"/>
    </TTGlyph>
    <TTGlyph name="acute" xMin="124" yMin="612" xMax="226" yMax="719">
      <contour>
        <pt x="168" y="612" on="1"/>
        <pt x="124" y="612" on="1"/>
        <pt x="162" y="719" on="1"/>
        <pt x="226" y="719" on="1"/>
      </contour>
    </TTGlyph>
    <TTGlyph name="adieresis" xMin="32" yMin="-4" xMax="360" yMax="701">
      <component glyphName="a" x="0" y="0" flags="0x0"/>
      <component glyphName="dieresis" x="35" y="0" flags="0x0"/>
    </TTGlyph>
    <TTGlyph name="ae" xMin="33" yMin="-5" xMax="619" yMax="578">
      <contour>
        <pt x="348" y="547" on="0"/>
        <pt x="415" y="578" on="0"/>
        <pt x="458" y="578" on="1"/>
        <pt x="540" y="578" on="0"/>
        <pt x="619" y="493" on="0"/>
        <pt x="619" y="423" on="1"/>
        <pt x="619" y="249" on="1"/>
        <pt x="360" y="249" on="1"/>
        <pt x="360" y="146" on="1"/>
        <pt x="360" y="101" on="0"/>
        <pt x="421" y="57" on="0"/>
        <pt x="486" y="57" on="1"/>
        <pt x="540" y="57" on="0"/>
        <pt x="602" y="74" on="1"/>
        <pt x="602" y="11" on="1"/>
        <pt x="552" y="-5" on="0"/>
        <pt x="484" y="-5" on="1"/>
        <pt x="375" y="-5" on="0"/>
        <pt x="331" y="44" on="1"/>
        <pt x="304" y="22" on="0"/>
        <pt x="221" y="-4" on="0"/>
        <pt x="175" y="-4" on="1"/>
        <pt x="103" y="-4" on="0"/>
        <pt x="33" y="67" on="0"/>
        <pt x="33" y="132" on="1"/>
        <pt x="33" y="165" on="1"/>
        <pt x="33" y="217" on="0"/>
        <pt x="91" y="284" on="0"/>
        <pt x="153" y="302" on="1"/>
        <pt x="294" y="343" on="1"/>
        <pt x="294" y="431" on="1"/>
        <pt x="294" y="471" on="0"/>
        <pt x="249" y="510" on="0"/>
        <pt x="188" y="510" on="1"/>
        <pt x="153" y="510" on="0"/>
        <pt x="83" y="498" on="0"/>
        <pt x="59" y="490" on="1"/>
        <pt x="59" y="554" on="1"/>
        <pt x="82" y="562" on="0"/>
        <pt x="153" y="573" on="0"/>
        <pt x="190" y="573" on="1"/>
        <pt x="288" y="573" on="0"/>
        <pt x="329" y="523" on="1"/>
      </contour>
      <contour>
        <pt x="553" y="519" on="0"/>
        <pt x="458" y="519" on="1"/>
        <pt x="408" y="519" on="0"/>
        <pt x="360" y="467" on="0"/>
        <pt x="360" y="422" on="1"/>
        <pt x="360" y="307" on="1"/>
        <pt x="553" y="307" on="1"/>
        <pt x="553" y="422" on="1"/>
      </contour>
      <contour>
        <pt x="177" y="249" on="1"/>
        <pt x="132" y="236" on="0"/>
        <pt x="99" y="197" on="0"/>
        <pt x="99" y="162" on="1"/>
        <pt x="99" y="131" on="1"/>
        <pt x="99" y="90" on="0"/>
        <pt x="137" y="52" on="0"/>
        <pt x="182" y="52" on="1"/>
        <pt x="215" y="52" on="0"/>
        <pt x="275" y="72" on="0"/>
        <pt x="295" y="88" on="1"/>
        <pt x="295" y="282" on="1"/>
      </contour>
    </TTGlyph>
    <TTGlyph name="agrave" xMin="32" yMin="-4" xMax="360" yMax="719">
      <component glyphName="a" x="0" y="0" flags="0x0"/>
      <component glyphName="grave" x="2" y="0" flags="0x0"/>
    </TTGlyph>
    <TTGlyph name="amacron" xMin="32" yMin="-4" xMax="360" yMax="688">
      <component glyphName="a" x="0" y="0" flags="0x0"/>
      <component glyphName="macron" x="32" y="0" flags="0x0"/>
    </TTGlyph>
    <TTGlyph name="ampersand" xMin="53" yMin="-9" xMax="440" yMax="676">
      <contour>
        <pt x="440" y="315" on="1"/>
        <pt x="398" y="315" on="1"/>
        <pt x="398" y="148" on="1"/>
        <pt x="398" y="78" on="0"/>
        <pt x="311" y="-9" on="0"/>
        <pt x="227" y="-9" on="1"/>
        <pt x="144" y="-9" on="0"/>
        <pt x="53" y="78" on="0"/>
        <pt x="53" y="148" on="1"/>
        <pt x="53" y="219" on="1"/>
        <pt x="53" y="266" on="0"/>
        <pt x="92" y="331" on="0"/>
        <pt x="131" y="345" on="1"/>
        <pt x="93" y="360" on="0"/>
        <pt x="54" y="425" on="0"/>
        <pt x="54" y="472" on="1"/>
        <pt x="54" y="527" on="1"/>
        <pt x="54" y="596" on="0"/>
        <pt x="146" y="676" on="0"/>
        <pt x="241" y="676" on="1"/>
        <pt x="311" y="676" on="0"/>
        <pt x="367" y="658" on="1"/>
        <pt x="367" y="592" on="1"/>
        <pt x="309" y="612" on="0"/>
        <pt x="242" y="612" on="1"/>
        <pt x="175" y="612" on="0"/>
        <pt x="122" y="566" on="0"/>
        <pt x="122" y="524" on="1"/>
        <pt x="122" y="473" on="1"/>
        <pt x="122" y="426" on="0"/>
        <pt x="163" y="375" on="0"/>
        <pt x="212" y="375" on="1"/>
        <pt x="332" y="375" on="1"/>
        <pt x="332" y="433" on="1"/>
        <pt x="398" y="433" on="1"/>
        <pt x="398" y="375" on="1"/>
        <pt x="440" y="375" on="1"/>
      </contour>
      <contour>
        <pt x="332" y="315" on="1"/>
        <pt x="214" y="315" on="1"/>
        <pt x="121" y="315" on="0"/>
        <pt x="121" y="218" on="1"/>
        <pt x="121" y="149" on="1"/>
        <pt x="121" y="104" on="0"/>
        <pt x="175" y="51" on="0"/>
        <pt x="227" y="51" on="1"/>
        <pt x="280" y="51" on="0"/>
        <pt x="332" y="104" on="0"/>
        <pt x="332" y="149" on="1"/>
      </contour>
    </TTGlyph>
    <TTGlyph name="aogonek" xMin="32" yMin="-175" xMax="360" yMax="573">
      <component glyphName="a" x="0" y="0" flags="0x0"/>
      <component glyphName="ogonek" x="136" y="0" flags="0x0"/>
    </TTGlyph>
    <TTGlyph name="apostrophemod" xMin="29" yMin="514" xMax="128" yMax="712">
      <component glyphName="quoteright" x="0" y="0" flags="0x0"/>
    </TTGlyph>
    <TTGlyph name="approxequal" xMin="43" yMin="199" xMax="415" yMax="470">
      <contour>
        <pt x="413" y="461" on="0"/>
        <pt x="415" y="446" on="0"/>
        <pt x="415" y="435" on="1"/>
        <pt x="415" y="392" on="0"/>
        <pt x="367" y="346" on="0"/>
        <pt x="329" y="346" on="1"/>
        <pt x="300" y="346" on="0"/>
        <pt x="269" y="360" on="1"/>
        <pt x="183" y="398" on="1"/>
        <pt x="158" y="410" on="0"/>
        <pt x="137" y="410" on="1"/>
        <pt x="119" y="410" on="0"/>
        <pt x="98" y="390" on="0"/>
        <pt x="98" y="370" on="1"/>
        <pt x="98" y="366" on="0"/>
        <pt x="100" y="354" on="1"/>
        <pt x="46" y="354" on="1"/>
        <pt x="45" y="356" on="0"/>
        <pt x="43" y="371" on="0"/>
        <pt x="43" y="382" on="1"/>
        <pt x="43" y="425" on="0"/>
        <pt x="92" y="470" on="0"/>
        <pt x="131" y="470" on="1"/>
        <pt x="160" y="470" on="0"/>
        <pt x="189" y="457" on="1"/>
        <pt x="275" y="419" on="1"/>
        <pt x="304" y="406" on="0"/>
        <pt x="322" y="406" on="1"/>
        <pt x="340" y="406" on="0"/>
        <pt x="360" y="426" on="0"/>
        <pt x="360" y="446" on="1"/>
        <pt x="360" y="451" on="0"/>
        <pt x="358" y="463" on="1"/>
        <pt x="412" y="463" on="1"/>
      </contour>
      <contour>
        <pt x="413" y="313" on="0"/>
        <pt x="415" y="298" on="0"/>
        <pt x="415" y="287" on="1"/>
        <pt x="415" y="244" on="0"/>
        <pt x="366" y="199" on="0"/>
        <pt x="328" y="199" on="1"/>
        <pt x="298" y="199" on="0"/>
        <pt x="269" y="212" on="1"/>
        <pt x="183" y="250" on="1"/>
        <pt x="158" y="262" on="0"/>
        <pt x="137" y="262" on="1"/>
        <pt x="119" y="262" on="0"/>
        <pt x="98" y="242" on="0"/>
        <pt x="98" y="222" on="1"/>
        <pt x="98" y="218" on="0"/>
        <pt x="100" y="206" on="1"/>
        <pt x="46" y="206" on="1"/>
        <pt x="45" y="208" on="0"/>
        <pt x="43" y="224" on="0"/>
        <pt x="43" y="234" on="1"/>
        <pt x="43" y="277" on="0"/>
        <pt x="92" y="322" on="0"/>
        <pt x="130" y="322" on="1"/>
        <pt x="160" y="322" on="0"/>
        <pt x="189" y="309" on="1"/>
        <pt x="275" y="271" on="1"/>
        <pt x="304" y="258" on="0"/>
        <pt x="322" y="258" on="1"/>
        <pt x="340" y="258" on="0"/>
        <pt x="360" y="278" on="0"/>
        <pt x="360" y="298" on="1"/>
        <pt x="360" y="303" on="0"/>
        <pt x="358" y="315" on="1"/>
        <pt x="412" y="315" on="1"/>
      </contour>
    </TTGlyph>
    <TTGlyph name="aring" xMin="32" yMin="-4" xMax="360" yMax="738">
      <component glyphName="a" x="0" y="0" flags="0x0"/>
      <component glyphName="ring" x="34" y="0" flags="0x0"/>
    </TTGlyph>
    <TTGlyph name="asciicircum" xMin="3" yMin="379" xMax="305" yMax="660">
      <contour>
        <pt x="240" y="379" on="1"/>
        <pt x="154" y="626" on="1"/>
        <pt x="68" y="379" on="1"/>
        <pt x="3" y="379" on="1"/>
        <pt x="110" y="660" on="1"/>
        <pt x="199" y="660" on="1"/>
        <pt x="305" y="379" on="1"/>
      </contour>
    </TTGlyph>
    <TTGlyph name="asciitilde" xMin="23" yMin="276" xMax="395" yMax="400">
      <contour>
        <pt x="393" y="391" on="0"/>
        <pt x="395" y="376" on="0"/>
        <pt x="395" y="365" on="1"/>
        <pt x="395" y="322" on="0"/>
        <pt x="347" y="276" on="0"/>
        <pt x="309" y="276" on="1"/>
        <pt x="280" y="276" on="0"/>
        <pt x="249" y="290" on="1"/>
        <pt x="163" y="328" on="1"/>
        <pt x="137" y="340" on="0"/>
        <pt x="117" y="340" on="1"/>
        <pt x="99" y="340" on="0"/>
        <pt x="78" y="320" on="0"/>
        <pt x="78" y="300" on="1"/>
        <pt x="78" y="296" on="0"/>
        <pt x="80" y="284" on="1"/>
        <pt x="26" y="284" on="1"/>
        <pt x="25" y="286" on="0"/>
        <pt x="23" y="301" on="0"/>
        <pt x="23" y="312" on="1"/>
        <pt x="23" y="354" on="0"/>
        <pt x="73" y="400" on="0"/>
        <pt x="111" y="400" on="1"/>
        <pt x="142" y="400" on="0"/>
        <pt x="169" y="387" on="1"/>
        <pt x="255" y="349" on="1"/>
        <pt x="284" y="336" on="0"/>
        <pt x="302" y="336" on="1"/>
        <pt x="320" y="336" on="0"/>
        <pt x="340" y="356" on="0"/>
        <pt x="340" y="376" on="1"/>
        <pt x="340" y="381" on="0"/>
        <pt x="338" y="393" on="1"/>
        <pt x="393" y="393" on="1"/>
      </contour>
    </TTGlyph>
    <TTGlyph name="asterisk" xMin="62" yMin="429" xMax="434" yMax="783">
      <contour>
        <pt x="300" y="574" on="0"/>
        <pt x="321" y="546" on="1"/>
        <pt x="381" y="464" on="1"/>
        <pt x="334" y="429" on="1"/>
        <pt x="274" y="511" on="1"/>
        <pt x="252" y="541" on="0"/>
        <pt x="248" y="562" on="1"/>
        <pt x="240" y="536" on="0"/>
        <pt x="222" y="512" on="1"/>
        <pt x="162" y="429" on="1"/>
        <pt x="115" y="464" on="1"/>
        <pt x="175" y="545" on="1"/>
        <pt x="194" y="571" on="0"/>
        <pt x="214" y="586" on="1"/>
        <pt x="191" y="584" on="0"/>
        <pt x="159" y="595" on="1"/>
        <pt x="62" y="626" on="1"/>
        <pt x="80" y="682" on="1"/>
        <pt x="176" y="651" on="1"/>
        <pt x="207" y="641" on="0"/>
        <pt x="228" y="624" on="1"/>
        <pt x="219" y="647" on="0"/>
        <pt x="219" y="682" on="1"/>
        <pt x="219" y="783" on="1"/>
        <pt x="277" y="783" on="1"/>
        <pt x="277" y="682" on="1"/>
        <pt x="277" y="648" on="0"/>
        <pt x="268" y="625" on="1"/>
        <pt x="287" y="640" on="0"/>
        <pt x="319" y="651" on="1"/>
        <pt x="416" y="683" on="1"/>
        <pt x="434" y="627" on="1"/>
        <pt x="338" y="596" on="1"/>
        <pt x="307" y="586" on="0"/>
        <pt x="281" y="586" on="1"/>
      </contour>
    </TTGlyph>
    <TTGlyph name="at" xMin="73" yMin="-112" xMax="790" yMax="659">
      <contour>
        <pt x="624" y="659" on="0"/>
        <pt x="790" y="471" on="0"/>
        <pt x="790" y="283" on="1"/>
        <pt x="790" y="148" on="0"/>
        <pt x="710" y="28" on="0"/>
        <pt x="633" y="28" on="1"/>
        <pt x="554" y="28" on="0"/>
        <pt x="525" y="77" on="1"/>
        <pt x="479" y="46" on="0"/>
        <pt x="408" y="46" on="1"/>
        <pt x="349" y="46" on="0"/>
        <pt x="285" y="104" on="0"/>
        <pt x="285" y="159" on="1"/>
        <pt x="285" y="173" on="1"/>
        <pt x="285" y="225" on="0"/>
        <pt x="342" y="280" on="0"/>
        <pt x="400" y="298" on="1"/>
        <pt x="506" y="331" on="1"/>
        <pt x="506" y="387" on="1"/>
        <pt x="506" y="421" on="0"/>
        <pt x="474" y="458" on="0"/>
        <pt x="431" y="458" on="1"/>
        <pt x="402" y="458" on="0"/>
        <pt x="351" y="450" on="0"/>
        <pt x="309" y="440" on="1"/>
        <pt x="309" y="494" on="1"/>
        <pt x="373" y="511" on="0"/>
        <pt x="431" y="511" on="1"/>
        <pt x="499" y="511" on="0"/>
        <pt x="563" y="446" on="0"/>
        <pt x="563" y="388" on="1"/>
        <pt x="563" y="161" on="1"/>
        <pt x="563" y="120" on="0"/>
        <pt x="597" y="83" on="0"/>
        <pt x="634" y="83" on="1"/>
        <pt x="680" y="83" on="0"/>
        <pt x="729" y="173" on="0"/>
        <pt x="729" y="283" on="1"/>
        <pt x="729" y="391" on="0"/>
        <pt x="674" y="531" on="0"/>
        <pt x="543" y="604" on="0"/>
        <pt x="431" y="604" on="1"/>
        <pt x="267" y="604" on="0"/>
        <pt x="134" y="438" on="0"/>
        <pt x="134" y="273" on="1"/>
        <pt x="134" y="109" on="0"/>
        <pt x="268" y="-57" on="0"/>
        <pt x="431" y="-57" on="1"/>
        <pt x="517" y="-57" on="1"/>
        <pt x="517" y="-112" on="1"/>
        <pt x="431" y="-112" on="1"/>
        <pt x="239" y="-112" on="0"/>
        <pt x="73" y="84" on="0"/>
        <pt x="73" y="273" on="1"/>
        <pt x="73" y="461" on="0"/>
        <pt x="242" y="659" on="0"/>
        <pt x="431" y="659" on="1"/>
      </contour>
      <contour>
        <pt x="506" y="276" on="1"/>
        <pt x="416" y="249" on="1"/>
        <pt x="377" y="237" on="0"/>
        <pt x="346" y="209" on="0"/>
        <pt x="346" y="174" on="1"/>
        <pt x="346" y="159" on="1"/>
        <pt x="346" y="97" on="0"/>
        <pt x="413" y="97" on="1"/>
        <pt x="440" y="97" on="0"/>
        <pt x="481" y="110" on="0"/>
        <pt x="503" y="124" on="0"/>
        <pt x="506" y="126" on="1"/>
      </contour>
    </TTGlyph>
    <TTGlyph name="atilde" xMin="32" yMin="-4" xMax="360" yMax="710">
      <component glyphName="a" x="0" y="0" flags="0x0"/>
      <component glyphName="tilde" x="37" y="0" flags="0x0"/>
    </TTGlyph>
    <TTGlyph name="b" xMin="70" yMin="0" xMax="387" yMax="719">
      <contour>
        <pt x="137" y="546" on="1"/>
        <pt x="204" y="571" on="0"/>
        <pt x="253" y="571" on="1"/>
        <pt x="315" y="571" on="0"/>
        <pt x="387" y="501" on="0"/>
        <pt x="387" y="438" on="1"/>
        <pt x="387" y="148" on="1"/>
        <pt x="387" y="77" on="0"/>
        <pt x="307" y="0" on="0"/>
        <pt x="239" y="0" on="1"/>
        <pt x="70" y="0" on="1"/>
        <pt x="70" y="719" on="1"/>
        <pt x="137" y="719" on="1"/>
      </contour>
      <contour>
        <pt x="319" y="507" on="0"/>
        <pt x="244" y="507" on="1"/>
        <pt x="218" y="507" on="0"/>
        <pt x="170" y="495" on="0"/>
        <pt x="138" y="483" on="1"/>
        <pt x="138" y="62" on="1"/>
        <pt x="223" y="62" on="1"/>
        <pt x="319" y="62" on="0"/>
        <pt x="319" y="152" on="1"/>
        <pt x="319" y="432" on="1"/>
      </contour>
    </TTGlyph>
    <TTGlyph name="backslash" xMin="32" yMin="-131" xMax="363" yMax="783">
      <contour>
        <pt x="363" y="-131" on="1"/>
        <pt x="302" y="-131" on="1"/>
        <pt x="32" y="783" on="1"/>
        <pt x="93" y="783" on="1"/>
      </contour>
    </TTGlyph>
    <TTGlyph name="bar" xMin="77" yMin="-149" xMax="130" yMax="801">
      <contour>
        <pt x="130" y="-149" on="1"/>
        <pt x="77" y="-149" on="1"/>
        <pt x="77" y="801" on="1"/>
        <pt x="130" y="801" on="1"/>
      </contour>
    </TTGlyph>
    <TTGlyph name="braceleft" xMin="59" yMin="-131" xMax="295" yMax="780">
      <contour>
        <pt x="198" y="390" on="0"/>
        <pt x="161" y="331" on="0"/>
        <pt x="112" y="325" on="1"/>
        <pt x="161" y="319" on="0"/>
        <pt x="198" y="260" on="0"/>
        <pt x="198" y="203" on="1"/>
        <pt x="198" y="-5" on="1"/>
        <pt x="198" y="-38" on="0"/>
        <pt x="237" y="-73" on="0"/>
        <pt x="281" y="-73" on="1"/>
        <pt x="295" y="-73" on="1"/>
        <pt x="295" y="-131" on="1"/>
        <pt x="279" y="-131" on="1"/>
        <pt x="212" y="-131" on="0"/>
        <pt x="138" y="-63" on="0"/>
        <pt x="138" y="-4" on="1"/>
        <pt x="138" y="225" on="1"/>
        <pt x="138" y="258" on="0"/>
        <pt x="98" y="296" on="0"/>
        <pt x="61" y="296" on="1"/>
        <pt x="59" y="296" on="1"/>
        <pt x="59" y="353" on="1"/>
        <pt x="61" y="353" on="1"/>
        <pt x="99" y="353" on="0"/>
        <pt x="138" y="391" on="0"/>
        <pt x="138" y="425" on="1"/>
        <pt x="138" y="653" on="1"/>
        <pt x="138" y="712" on="0"/>
        <pt x="212" y="780" on="0"/>
        <pt x="279" y="780" on="1"/>
        <pt x="295" y="780" on="1"/>
        <pt x="295" y="722" on="1"/>
        <pt x="281" y="722" on="1"/>
        <pt x="237" y="722" on="0"/>
        <pt x="198" y="687" on="0"/>
        <pt x="198" y="654" on="1"/>
        <pt x="198" y="448" on="1"/>
      </contour>
    </TTGlyph>
    <TTGlyph name="braceright" xMin="52" yMin="-131" xMax="289" yMax="780">
      <contour>
        <pt x="289" y="296" on="1"/>
        <pt x="286" y="296" on="1"/>
        <pt x="249" y="296" on="0"/>
        <pt x="210" y="258" on="0"/>
        <pt x="210" y="225" on="1"/>
        <pt x="210" y="-4" on="1"/>
        <pt x="210" y="-63" on="0"/>
        <pt x="136" y="-131" on="0"/>
        <pt x="69" y="-131" on="1"/>
        <pt x="52" y="-131" on="1"/>
        <pt x="52" y="-73" on="1"/>
        <pt x="66" y="-73" on="1"/>
        <pt x="111" y="-73" on="0"/>
        <pt x="150" y="-38" on="0"/>
        <pt x="150" y="-5" on="1"/>
        <pt x="150" y="203" on="1"/>
        <pt x="150" y="260" on="0"/>
        <pt x="186" y="319" on="0"/>
        <pt x="235" y="325" on="1"/>
        <pt x="187" y="331" on="0"/>
        <pt x="150" y="390" on="0"/>
        <pt x="150" y="448" on="1"/>
        <pt x="150" y="654" on="1"/>
        <pt x="150" y="687" on="0"/>
        <pt x="111" y="722" on="0"/>
        <pt x="66" y="722" on="1"/>
        <pt x="52" y="722" on="1"/>
        <pt x="52" y="780" on="1"/>
        <pt x="69" y="780" on="1"/>
        <pt x="136" y="780" on="0"/>
        <pt x="210" y="712" on="0"/>
        <pt x="210" y="653" on="1"/>
        <pt x="210" y="425" on="1"/>
        <pt x="210" y="391" on="0"/>
        <pt x="249" y="353" on="0"/>
        <pt x="286" y="353" on="1"/>
        <pt x="289" y="353" on="1"/>
      </contour>
    </TTGlyph>
    <TTGlyph name="bracketleft" xMin="81" yMin="-131" xMax="263" yMax="783">
      <contour>
        <pt x="263" y="-77" on="1"/>
        <pt x="263" y="-131" on="1"/>
        <pt x="81" y="-131" on="1"/>
        <pt x="81" y="783" on="1"/>
        <pt x="263" y="783" on="1"/>
        <pt x="263" y="729" on="1"/>
        <pt x="140" y="729" on="1"/>
        <pt x="140" y="-77" on="1"/>
      </contour>
    </TTGlyph>
    <TTGlyph name="bracketright" xMin="29" yMin="-131" xMax="211" yMax="783">
      <contour>
        <pt x="211" y="783" on="1"/>
        <pt x="211" y="-131" on="1"/>
        <pt x="29" y="-131" on="1"/>
        <pt x="29" y="-77" on="1"/>
        <pt x="152" y="-77" on="1"/>
        <pt x="152" y="729" on="1"/>
        <pt x="29" y="729" on="1"/>
        <pt x="29" y="783" on="1"/>
      </contour>
    </TTGlyph>
    <TTGlyph name="breve" xMin="66" yMin="612" xMax="284" yMax="719">
      <contour>
        <pt x="283" y="672" on="0"/>
        <pt x="225" y="612" on="0"/>
        <pt x="175" y="612" on="1"/>
        <pt x="125" y="612" on="0"/>
        <pt x="67" y="672" on="0"/>
        <pt x="66" y="719" on="1"/>
        <pt x="115" y="719" on="1"/>
        <pt x="116" y="691" on="0"/>
        <pt x="147" y="657" on="0"/>
        <pt x="175" y="657" on="1"/>
        <pt x="203" y="657" on="0"/>
        <pt x="234" y="691" on="0"/>
        <pt x="235" y="719" on="1"/>
        <pt x="284" y="719" on="1"/>
      </contour>
    </TTGlyph>
    <TTGlyph name="brokenbar" xMin="77" yMin="-149" xMax="130" yMax="801">
      <contour>
        <pt x="130" y="423" on="1"/>
        <pt x="77" y="423" on="1"/>
        <pt x="77" y="801" on="1"/>
        <pt x="130" y="801" on="1"/>
      </contour>
      <contour>
        <pt x="130" y="-149" on="1"/>
        <pt x="77" y="-149" on="1"/>
        <pt x="77" y="229" on="1"/>
        <pt x="130" y="229" on="1"/>
      </contour>
    </TTGlyph>
    <TTGlyph name="bullet" xMin="64" yMin="254" xMax="206" yMax="396">
      <contour>
        <pt x="64" y="396" on="0"/>
        <pt x="135" y="396" on="1"/>
        <pt x="172" y="396" on="0"/>
        <pt x="206" y="357" on="0"/>
        <pt x="206" y="325" on="1"/>
        <pt x="206" y="254" on="0"/>
        <pt x="135" y="254" on="1"/>
        <pt x="64" y="254" on="0"/>
        <pt x="64" y="325" on="1"/>
      </contour>
    </TTGlyph>
    <TTGlyph name="c" xMin="60" yMin="-5" xMax="334" yMax="573">
      <contour>
        <pt x="60" y="501" on="0"/>
        <pt x="140" y="573" on="0"/>
        <pt x="227" y="573" on="1"/>
        <pt x="288" y="573" on="0"/>
        <pt x="332" y="559" on="1"/>
        <pt x="332" y="497" on="1"/>
        <pt x="290" y="510" on="0"/>
        <pt x="231" y="510" on="1"/>
        <pt x="171" y="510" on="0"/>
        <pt x="128" y="471" on="0"/>
        <pt x="128" y="429" on="1"/>
        <pt x="128" y="138" on="1"/>
        <pt x="128" y="96" on="0"/>
        <pt x="171" y="57" on="0"/>
        <pt x="231" y="57" on="1"/>
        <pt x="285" y="57" on="0"/>
        <pt x="334" y="72" on="1"/>
        <pt x="334" y="9" on="1"/>
        <pt x="280" y="-5" on="0"/>
        <pt x="227" y="-5" on="1"/>
        <pt x="140" y="-5" on="0"/>
        <pt x="60" y="66" on="0"/>
        <pt x="60" y="136" on="1"/>
        <pt x="60" y="431" on="1"/>
      </contour>
    </TTGlyph>
    <TTGlyph name="cacute" xMin="60" yMin="-5" xMax="334" yMax="719">
      <component glyphName="c" x="0" y="0" flags="0x0"/>
      <component glyphName="acute" x="79" y="0" flags="0x0"/>
    </TTGlyph>
    <TTGlyph name="caron" xMin="96" yMin="612" xMax="253" yMax="719">
      <contour>
        <pt x="253" y="719" on="1"/>
        <pt x="203" y="612" on="1"/>
        <pt x="147" y="612" on="1"/>
        <pt x="96" y="719" on="1"/>
        <pt x="139" y="719" on="1"/>
        <pt x="175" y="655" on="1"/>
        <pt x="211" y="719" on="1"/>
      </contour>
    </TTGlyph>
    <TTGlyph name="ccaron" xMin="60" yMin="-5" xMax="334" yMax="719">
      <component glyphName="c" x="0" y="0" flags="0x0"/>
      <component glyphName="caron" x="45" y="0" flags="0x0"/>
    </TTGlyph>
    <TTGlyph name="ccedilla" xMin="60" yMin="-181" xMax="334" yMax="573">
      <component glyphName="c" x="0" y="0" flags="0x0"/>
      <component glyphName="cedilla" x="42" y="0" flags="0x0"/>
    </TTGlyph>
    <TTGlyph name="cedilla" xMin="105" yMin="-181" xMax="244" yMax="6">
      <contour>
        <pt x="176" y="-40" on="1"/>
        <pt x="206" y="-42" on="0"/>
        <pt x="244" y="-76" on="0"/>
        <pt x="244" y="-107" on="1"/>
        <pt x="244" y="-142" on="0"/>
        <pt x="194" y="-181" on="0"/>
        <pt x="155" y="-181" on="1"/>
        <pt x="125" y="-181" on="0"/>
        <pt x="105" y="-174" on="1"/>
        <pt x="105" y="-135" on="1"/>
        <pt x="123" y="-143" on="0"/>
        <pt x="148" y="-143" on="1"/>
        <pt x="171" y="-143" on="0"/>
        <pt x="200" y="-124" on="0"/>
        <pt x="200" y="-106" on="1"/>
        <pt x="200" y="-87" on="0"/>
        <pt x="174" y="-69" on="0"/>
        <pt x="147" y="-69" on="1"/>
        <pt x="133" y="-69" on="1"/>
        <pt x="149" y="6" on="1"/>
        <pt x="186" y="6" on="1"/>
      </contour>
    </TTGlyph>
    <TTGlyph name="cent" xMin="69" yMin="-78" xMax="343" yMax="653">
      <contour>
        <pt x="343" y="9" on="1"/>
        <pt x="307" y="-1" on="0"/>
        <pt x="263" y="-4" on="1"/>
        <pt x="263" y="-78" on="1"/>
        <pt x="202" y="-78" on="1"/>
        <pt x="202" y="-3" on="1"/>
        <pt x="133" y="4" on="0"/>
        <pt x="69" y="74" on="0"/>
        <pt x="69" y="136" on="1"/>
        <pt x="69" y="431" on="1"/>
        <pt x="69" y="558" on="0"/>
        <pt x="202" y="571" on="1"/>
        <pt x="202" y="653" on="1"/>
        <pt x="264" y="653" on="1"/>
        <pt x="264" y="572" on="1"/>
        <pt x="307" y="569" on="0"/>
        <pt x="341" y="559" on="1"/>
        <pt x="341" y="497" on="1"/>
        <pt x="299" y="510" on="0"/>
        <pt x="240" y="510" on="1"/>
        <pt x="180" y="510" on="0"/>
        <pt x="137" y="471" on="0"/>
        <pt x="137" y="429" on="1"/>
        <pt x="137" y="138" on="1"/>
        <pt x="137" y="96" on="0"/>
        <pt x="180" y="57" on="0"/>
        <pt x="240" y="57" on="1"/>
        <pt x="294" y="57" on="0"/>
        <pt x="343" y="72" on="1"/>
      </contour>
    </TTGlyph>
    <TTGlyph name="circumflex" xMin="96" yMin="612" xMax="253" yMax="719">
      <contour>
        <pt x="211" y="612" on="1"/>
        <pt x="175" y="676" on="1"/>
        <pt x="139" y="612" on="1"/>
        <pt x="96" y="612" on="1"/>
        <pt x="147" y="719" on="1"/>
        <pt x="203" y="719" on="1"/>
        <pt x="253" y="612" on="1"/>
      </contour>
    </TTGlyph>
    <TTGlyph name="colon" xMin="31" yMin="-6" xMax="115" yMax="433">
      <contour>
        <pt x="31" y="433" on="0"/>
        <pt x="73" y="433" on="1"/>
        <pt x="115" y="433" on="0"/>
        <pt x="115" y="389" on="1"/>
        <pt x="115" y="344" on="0"/>
        <pt x="73" y="344" on="1"/>
        <pt x="31" y="344" on="0"/>
        <pt x="31" y="389" on="1"/>
      </contour>
      <contour>
        <pt x="31" y="83" on="0"/>
        <pt x="73" y="83" on="1"/>
        <pt x="115" y="83" on="0"/>
        <pt x="115" y="38" on="1"/>
        <pt x="115" y="-6" on="0"/>
        <pt x="73" y="-6" on="1"/>
        <pt x="31" y="-6" on="0"/>
        <pt x="31" y="38" on="1"/>
      </contour>
    </TTGlyph>
    <TTGlyph name="comma" xMin="6" yMin="-126" xMax="115" yMax="82">
      <contour>
        <pt x="97" y="82" on="0"/>
        <pt x="115" y="66" on="0"/>
        <pt x="115" y="51" on="1"/>
        <pt x="115" y="27" on="0"/>
        <pt x="70" y="-81" on="0"/>
        <pt x="46" y="-126" on="1"/>
        <pt x="6" y="-126" on="1"/>
        <pt x="47" y="82" on="1"/>
        <pt x="81" y="82" on="1"/>
      </contour>
    </TTGlyph>
    <TTGlyph name="copyright" xMin="47" yMin="0" xMax="638" yMax="649">
      <contour>
        <pt x="47" y="425" on="0"/>
        <pt x="98" y="567" on="0"/>
        <pt x="229" y="649" on="0"/>
        <pt x="344" y="649" on="1"/>
        <pt x="461" y="649" on="0"/>
        <pt x="590" y="569" on="0"/>
        <pt x="638" y="428" on="0"/>
        <pt x="638" y="323" on="1"/>
        <pt x="638" y="171" on="0"/>
        <pt x="506" y="0" on="0"/>
        <pt x="344" y="0" on="1"/>
        <pt x="179" y="0" on="0"/>
        <pt x="47" y="169" on="0"/>
        <pt x="47" y="323" on="1"/>
      </contour>
      <contour>
        <pt x="581" y="414" on="0"/>
        <pt x="547" y="528" on="0"/>
        <pt x="444" y="594" on="0"/>
        <pt x="344" y="594" on="1"/>
        <pt x="244" y="594" on="0"/>
        <pt x="140" y="527" on="0"/>
        <pt x="105" y="413" on="0"/>
        <pt x="105" y="323" on="1"/>
        <pt x="105" y="235" on="0"/>
        <pt x="141" y="120" on="0"/>
        <pt x="245" y="54" on="0"/>
        <pt x="344" y="54" on="1"/>
        <pt x="440" y="54" on="0"/>
        <pt x="544" y="121" on="0"/>
        <pt x="581" y="237" on="0"/>
        <pt x="581" y="323" on="1"/>
      </contour>
      <contour>
        <pt x="226" y="440" on="0"/>
        <pt x="286" y="503" on="0"/>
        <pt x="357" y="503" on="1"/>
        <pt x="400" y="503" on="0"/>
        <pt x="431" y="496" on="1"/>
        <pt x="431" y="442" on="1"/>
        <pt x="394" y="452" on="0"/>
        <pt x="357" y="452" on="1"/>
        <pt x="324" y="452" on="0"/>
        <pt x="292" y="433" on="0"/>
        <pt x="283" y="403" on="0"/>
        <pt x="283" y="378" on="1"/>
        <pt x="283" y="271" on="1"/>
        <pt x="283" y="246" on="0"/>
        <pt x="292" y="215" on="0"/>
        <pt x="324" y="197" on="0"/>
        <pt x="357" y="197" on="1"/>
        <pt x="380" y="197" on="0"/>
        <pt x="412" y="202" on="0"/>
        <pt x="432" y="207" on="1"/>
        <pt x="432" y="152" on="1"/>
        <pt x="390" y="145" on="0"/>
        <pt x="357" y="145" on="1"/>
        <pt x="286" y="145" on="0"/>
        <pt x="226" y="209" on="0"/>
        <pt x="226" y="270" on="1"/>
        <pt x="226" y="378" on="1"/>
      </contour>
    </TTGlyph>
    <TTGlyph name="currency" xMin="44" yMin="133" xMax="417" yMax="537">
      <contour>
        <pt x="386" y="251" on="0"/>
        <pt x="372" y="220" on="1"/>
        <pt x="417" y="177" on="1"/>
        <pt x="373" y="133" on="1"/>
        <pt x="333" y="173" on="1"/>
        <pt x="296" y="147" on="0"/>
        <pt x="231" y="147" on="1"/>
        <pt x="165" y="147" on="0"/>
        <pt x="128" y="172" on="1"/>
        <pt x="88" y="133" on="1"/>
        <pt x="44" y="177" on="1"/>
        <pt x="88" y="221" on="1"/>
        <pt x="75" y="251" on="0"/>
        <pt x="75" y="296" on="1"/>
        <pt x="75" y="374" on="1"/>
        <pt x="75" y="418" on="0"/>
        <pt x="88" y="450" on="1"/>
        <pt x="44" y="493" on="1"/>
        <pt x="88" y="537" on="1"/>
        <pt x="128" y="498" on="1"/>
        <pt x="165" y="524" on="0"/>
        <pt x="231" y="524" on="1"/>
        <pt x="296" y="524" on="0"/>
        <pt x="333" y="498" on="1"/>
        <pt x="373" y="537" on="1"/>
        <pt x="417" y="493" on="1"/>
        <pt x="373" y="450" on="1"/>
        <pt x="386" y="418" on="0"/>
        <pt x="386" y="374" on="1"/>
        <pt x="386" y="296" on="1"/>
      </contour>
      <contour>
        <pt x="282" y="206" on="0"/>
        <pt x="320" y="250" on="0"/>
        <pt x="320" y="297" on="1"/>
        <pt x="320" y="373" on="1"/>
        <pt x="320" y="420" on="0"/>
        <pt x="282" y="464" on="0"/>
        <pt x="231" y="464" on="1"/>
        <pt x="179" y="464" on="0"/>
        <pt x="141" y="420" on="0"/>
        <pt x="141" y="373" on="1"/>
        <pt x="141" y="297" on="1"/>
        <pt x="141" y="250" on="0"/>
        <pt x="179" y="206" on="0"/>
        <pt x="231" y="206" on="1"/>
      </contour>
    </TTGlyph>
    <TTGlyph name="d" xMin="60" yMin="-3" xMax="377" yMax="719">
      <contour>
        <pt x="377" y="0" on="1"/>
        <pt x="310" y="0" on="1"/>
        <pt x="310" y="33" on="1"/>
        <pt x="268" y="-3" on="0"/>
        <pt x="201" y="-3" on="1"/>
        <pt x="132" y="-3" on="0"/>
        <pt x="60" y="71" on="0"/>
        <pt x="60" y="140" on="1"/>
        <pt x="60" y="419" on="1"/>
        <pt x="60" y="490" on="0"/>
        <pt x="143" y="568" on="0"/>
        <pt x="213" y="568" on="1"/>
        <pt x="309" y="568" on="1"/>
        <pt x="309" y="719" on="1"/>
        <pt x="377" y="719" on="1"/>
      </contour>
      <contour>
        <pt x="225" y="506" on="1"/>
        <pt x="128" y="506" on="0"/>
        <pt x="128" y="418" on="1"/>
        <pt x="128" y="144" on="1"/>
        <pt x="128" y="58" on="0"/>
        <pt x="211" y="58" on="1"/>
        <pt x="243" y="58" on="0"/>
        <pt x="293" y="78" on="0"/>
        <pt x="309" y="93" on="1"/>
        <pt x="309" y="506" on="1"/>
      </contour>
    </TTGlyph>
    <TTGlyph name="dagger" xMin="49" yMin="-29" xMax="303" yMax="776">
      <contour>
        <pt x="206" y="737" on="0"/>
        <pt x="202" y="656" on="0"/>
        <pt x="201" y="644" on="1"/>
        <pt x="209" y="645" on="0"/>
        <pt x="269" y="649" on="0"/>
        <pt x="303" y="649" on="1"/>
        <pt x="303" y="595" on="1"/>
        <pt x="269" y="595" on="0"/>
        <pt x="209" y="599" on="0"/>
        <pt x="201" y="600" on="1"/>
        <pt x="202" y="588" on="0"/>
        <pt x="206" y="506" on="0"/>
        <pt x="206" y="463" on="1"/>
        <pt x="206" y="-29" on="1"/>
        <pt x="146" y="-29" on="1"/>
        <pt x="146" y="463" on="1"/>
        <pt x="146" y="506" on="0"/>
        <pt x="150" y="588" on="0"/>
        <pt x="151" y="600" on="1"/>
        <pt x="144" y="599" on="0"/>
        <pt x="87" y="595" on="0"/>
        <pt x="49" y="595" on="1"/>
        <pt x="49" y="649" on="1"/>
        <pt x="87" y="649" on="0"/>
        <pt x="144" y="645" on="0"/>
        <pt x="151" y="644" on="1"/>
        <pt x="150" y="656" on="0"/>
        <pt x="146" y="737" on="0"/>
        <pt x="146" y="776" on="1"/>
        <pt x="206" y="776" on="1"/>
      </contour>
    </TTGlyph>
    <TTGlyph name="daggerdbl" xMin="49" yMin="-29" xMax="302" yMax="776">
      <contour>
        <pt x="206" y="737" on="0"/>
        <pt x="202" y="656" on="0"/>
        <pt x="201" y="644" on="1"/>
        <pt x="208" y="645" on="0"/>
        <pt x="265" y="649" on="0"/>
        <pt x="302" y="649" on="1"/>
        <pt x="302" y="595" on="1"/>
        <pt x="265" y="595" on="0"/>
        <pt x="208" y="599" on="0"/>
        <pt x="201" y="600" on="1"/>
        <pt x="203" y="466" on="0"/>
        <pt x="203" y="374" on="1"/>
        <pt x="203" y="283" on="0"/>
        <pt x="201" y="147" on="1"/>
        <pt x="208" y="148" on="0"/>
        <pt x="265" y="152" on="0"/>
        <pt x="302" y="152" on="1"/>
        <pt x="302" y="98" on="1"/>
        <pt x="265" y="98" on="0"/>
        <pt x="208" y="102" on="0"/>
        <pt x="201" y="103" on="1"/>
        <pt x="202" y="94" on="0"/>
        <pt x="206" y="21" on="0"/>
        <pt x="206" y="-29" on="1"/>
        <pt x="146" y="-29" on="1"/>
        <pt x="146" y="21" on="0"/>
        <pt x="150" y="94" on="0"/>
        <pt x="151" y="103" on="1"/>
        <pt x="144" y="102" on="0"/>
        <pt x="86" y="98" on="0"/>
        <pt x="49" y="98" on="1"/>
        <pt x="49" y="152" on="1"/>
        <pt x="87" y="152" on="0"/>
        <pt x="144" y="148" on="0"/>
        <pt x="151" y="147" on="1"/>
        <pt x="150" y="215" on="0"/>
        <pt x="150" y="374" on="1"/>
        <pt x="150" y="533" on="0"/>
        <pt x="151" y="600" on="1"/>
        <pt x="144" y="599" on="0"/>
        <pt x="87" y="595" on="0"/>
        <pt x="49" y="595" on="1"/>
        <pt x="49" y="649" on="1"/>
        <pt x="87" y="649" on="0"/>
        <pt x="144" y="645" on="0"/>
        <pt x="151" y="644" on="1"/>
        <pt x="150" y="656" on="0"/>
        <pt x="146" y="737" on="0"/>
        <pt x="146" y="776" on="1"/>
        <pt x="206" y="776" on="1"/>
      </contour>
    </TTGlyph>
    <TTGlyph name="danda" xMin="148" yMin="0" xMax="210" yMax="649">
      <contour>
        <pt x="210" y="649" on="1"/>
        <pt x="210" y="0" on="1"/>
        <pt x="148" y="0" on="1"/>
        <pt x="148" y="649" on="1"/>
      </contour>
    </TTGlyph>
    <TTGlyph name="dcaron" xMin="60" yMin="-3" xMax="498" yMax="719">
      <contour>
        <pt x="377" y="0" on="1"/>
        <pt x="310" y="0" on="1"/>
        <pt x="310" y="33" on="1"/>
        <pt x="268" y="-3" on="0"/>
        <pt x="201" y="-3" on="1"/>
        <pt x="132" y="-3" on="0"/>
        <pt x="60" y="71" on="0"/>
        <pt x="60" y="140" on="1"/>
        <pt x="60" y="419" on="1"/>
        <pt x="60" y="490" on="0"/>
        <pt x="143" y="568" on="0"/>
        <pt x="213" y="568" on="1"/>
        <pt x="309" y="568" on="1"/>
        <pt x="309" y="719" on="1"/>
        <pt x="377" y="719" on="1"/>
      </contour>
      <contour>
        <pt x="483" y="717" on="0"/>
        <pt x="498" y="704" on="0"/>
        <pt x="498" y="692" on="1"/>
        <pt x="498" y="678" on="0"/>
        <pt x="466" y="619" on="0"/>
        <pt x="451" y="597" on="1"/>
        <pt x="417" y="597" on="1"/>
        <pt x="444" y="717" on="1"/>
        <pt x="471" y="717" on="1"/>
      </contour>
      <contour>
        <pt x="225" y="506" on="1"/>
        <pt x="128" y="506" on="0"/>
        <pt x="128" y="418" on="1"/>
        <pt x="128" y="144" on="1"/>
        <pt x="128" y="58" on="0"/>
        <pt x="211" y="58" on="1"/>
        <pt x="243" y="58" on="0"/>
        <pt x="293" y="78" on="0"/>
        <pt x="309" y="93" on="1"/>
        <pt x="309" y="506" on="1"/>
      </contour>
    </TTGlyph>
    <TTGlyph name="dcroat" xMin="61" yMin="-3" xMax="417" yMax="719">
      <contour>
        <pt x="417" y="627" on="1"/>
        <pt x="378" y="627" on="1"/>
        <pt x="378" y="0" on="1"/>
        <pt x="311" y="0" on="1"/>
        <pt x="311" y="33" on="1"/>
        <pt x="269" y="-3" on="0"/>
        <pt x="202" y="-3" on="1"/>
        <pt x="133" y="-3" on="0"/>
        <pt x="61" y="71" on="0"/>
        <pt x="61" y="140" on="1"/>
        <pt x="61" y="419" on="1"/>
        <pt x="61" y="490" on="0"/>
        <pt x="144" y="568" on="0"/>
        <pt x="214" y="568" on="1"/>
        <pt x="310" y="568" on="1"/>
        <pt x="310" y="627" on="1"/>
        <pt x="185" y="627" on="1"/>
        <pt x="185" y="672" on="1"/>
        <pt x="310" y="672" on="1"/>
        <pt x="310" y="719" on="1"/>
        <pt x="378" y="719" on="1"/>
        <pt x="378" y="672" on="1"/>
        <pt x="417" y="672" on="1"/>
      </contour>
      <contour>
        <pt x="310" y="506" on="1"/>
        <pt x="226" y="506" on="1"/>
        <pt x="129" y="506" on="0"/>
        <pt x="129" y="418" on="1"/>
        <pt x="129" y="144" on="1"/>
        <pt x="129" y="58" on="0"/>
        <pt x="212" y="58" on="1"/>
        <pt x="244" y="58" on="0"/>
        <pt x="294" y="78" on="0"/>
        <pt x="310" y="93" on="1"/>
      </contour>
    </TTGlyph>
    <TTGlyph name="degree" xMin="53" yMin="507" xMax="320" yMax="793">
      <contour>
        <pt x="53" y="715" on="0"/>
        <pt x="115" y="793" on="0"/>
        <pt x="186" y="793" on="1"/>
        <pt x="257" y="793" on="0"/>
        <pt x="320" y="715" on="0"/>
        <pt x="320" y="649" on="1"/>
        <pt x="320" y="584" on="0"/>
        <pt x="257" y="507" on="0"/>
        <pt x="186" y="507" on="1"/>
        <pt x="115" y="507" on="0"/>
        <pt x="53" y="584" on="0"/>
        <pt x="53" y="649" on="1"/>
      </contour>
      <contour>
        <pt x="266" y="692" on="0"/>
        <pt x="232" y="739" on="0"/>
        <pt x="186" y="739" on="1"/>
        <pt x="140" y="739" on="0"/>
        <pt x="108" y="692" on="0"/>
        <pt x="108" y="648" on="1"/>
        <pt x="108" y="605" on="0"/>
        <pt x="140" y="559" on="0"/>
        <pt x="186" y="559" on="1"/>
        <pt x="232" y="559" on="0"/>
        <pt x="266" y="605" on="0"/>
        <pt x="266" y="648" on="1"/>
      </contour>
    </TTGlyph>
    <TTGlyph name="dieresis" xMin="71" yMin="628" xMax="279" yMax="701">
      <contour>
        <pt x="71" y="701" on="0"/>
        <pt x="108" y="701" on="1"/>
        <pt x="146" y="701" on="0"/>
        <pt x="146" y="664" on="1"/>
        <pt x="146" y="628" on="0"/>
        <pt x="108" y="628" on="1"/>
        <pt x="71" y="628" on="0"/>
        <pt x="71" y="664" on="1"/>
      </contour>
      <contour>
        <pt x="204" y="701" on="0"/>
        <pt x="241" y="701" on="1"/>
        <pt x="279" y="701" on="0"/>
        <pt x="279" y="664" on="1"/>
        <pt x="279" y="628" on="0"/>
        <pt x="241" y="628" on="1"/>
        <pt x="204" y="628" on="0"/>
        <pt x="204" y="664" on="1"/>
      </contour>
    </TTGlyph>
    <TTGlyph name="divide" xMin="40" yMin="110" xMax="394" yMax="534">
      <contour>
        <pt x="179" y="512" on="0"/>
        <pt x="199" y="534" on="0"/>
        <pt x="220" y="534" on="1"/>
        <pt x="260" y="534" on="0"/>
        <pt x="260" y="493" on="1"/>
        <pt x="260" y="453" on="0"/>
        <pt x="220" y="453" on="1"/>
        <pt x="179" y="453" on="0"/>
        <pt x="179" y="493" on="1"/>
      </contour>
      <contour>
        <pt x="394" y="295" on="1"/>
        <pt x="40" y="295" on="1"/>
        <pt x="40" y="351" on="1"/>
        <pt x="394" y="351" on="1"/>
      </contour>
      <contour>
        <pt x="179" y="169" on="0"/>
        <pt x="199" y="191" on="0"/>
        <pt x="220" y="191" on="1"/>
        <pt x="260" y="191" on="0"/>
        <pt x="260" y="150" on="1"/>
        <pt x="260" y="110" on="0"/>
        <pt x="220" y="110" on="1"/>
        <pt x="179" y="110" on="0"/>
        <pt x="179" y="150" on="1"/>
      </contour>
    </TTGlyph>
    <TTGlyph name="dollar" xMin="28" yMin="-75" xMax="354" yMax="735">
      <contour>
        <pt x="314" y="303" on="0"/>
        <pt x="354" y="240" on="0"/>
        <pt x="354" y="193" on="1"/>
        <pt x="354" y="139" on="1"/>
        <pt x="354" y="80" on="0"/>
        <pt x="284" y="7" on="0"/>
        <pt x="213" y="-2" on="1"/>
        <pt x="213" y="-75" on="1"/>
        <pt x="151" y="-75" on="1"/>
        <pt x="151" y="-5" on="1"/>
        <pt x="116" y="-4" on="0"/>
        <pt x="52" y="8" on="0"/>
        <pt x="33" y="15" on="1"/>
        <pt x="33" y="80" on="1"/>
        <pt x="59" y="70" on="0"/>
        <pt x="131" y="57" on="0"/>
        <pt x="166" y="57" on="1"/>
        <pt x="228" y="57" on="0"/>
        <pt x="285" y="103" on="0"/>
        <pt x="285" y="143" on="1"/>
        <pt x="285" y="186" on="1"/>
        <pt x="285" y="219" on="0"/>
        <pt x="261" y="258" on="0"/>
        <pt x="230" y="274" on="1"/>
        <pt x="115" y="337" on="1"/>
        <pt x="71" y="361" on="0"/>
        <pt x="28" y="428" on="0"/>
        <pt x="28" y="477" on="1"/>
        <pt x="28" y="536" on="1"/>
        <pt x="28" y="593" on="0"/>
        <pt x="95" y="665" on="0"/>
        <pt x="160" y="674" on="1"/>
        <pt x="160" y="735" on="1"/>
        <pt x="222" y="735" on="1"/>
        <pt x="222" y="676" on="1"/>
        <pt x="285" y="673" on="0"/>
        <pt x="328" y="660" on="1"/>
        <pt x="328" y="595" on="1"/>
        <pt x="279" y="613" on="0"/>
        <pt x="201" y="613" on="1"/>
        <pt x="97" y="613" on="0"/>
        <pt x="97" y="534" on="1"/>
        <pt x="97" y="484" on="1"/>
        <pt x="97" y="450" on="0"/>
        <pt x="124" y="407" on="0"/>
        <pt x="156" y="390" on="1"/>
        <pt x="272" y="325" on="1"/>
      </contour>
    </TTGlyph>
    <TTGlyph name="dotaccent" xMin="136" yMin="651" xMax="211" yMax="725">
      <contour>
        <pt x="136" y="725" on="0"/>
        <pt x="173" y="725" on="1"/>
        <pt x="211" y="725" on="0"/>
        <pt x="211" y="688" on="1"/>
        <pt x="211" y="651" on="0"/>
        <pt x="173" y="651" on="1"/>
        <pt x="136" y="651" on="0"/>
        <pt x="136" y="688" on="1"/>
      </contour>
    </TTGlyph>
    <TTGlyph name="dotlessi" xMin="70" yMin="0" xMax="138" yMax="565">
      <contour>
        <pt x="138" y="0" on="1"/>
        <pt x="70" y="0" on="1"/>
        <pt x="70" y="565" on="1"/>
        <pt x="138" y="565" on="1"/>
      </contour>
    </TTGlyph>
    <TTGlyph name="dottedcircle" xMin="44" yMin="30" xMax="616" yMax="604">
      <contour>
        <pt x="257" y="580" on="0"/>
        <pt x="282" y="604" on="0"/>
        <pt x="301" y="604" on="1"/>
        <pt x="321" y="604" on="0"/>
        <pt x="345" y="580" on="0"/>
        <pt x="345" y="560" on="1"/>
        <pt x="345" y="541" on="0"/>
        <pt x="321" y="516" on="0"/>
        <pt x="301" y="516" on="1"/>
        <pt x="282" y="516" on="0"/>
        <pt x="257" y="541" on="0"/>
        <pt x="257" y="560" on="1"/>
      </contour>
      <contour>
        <pt x="383" y="565" on="0"/>
        <pt x="409" y="590" on="0"/>
        <pt x="428" y="590" on="1"/>
        <pt x="447" y="590" on="0"/>
        <pt x="471" y="565" on="0"/>
        <pt x="471" y="545" on="1"/>
        <pt x="471" y="527" on="0"/>
        <pt x="446" y="501" on="0"/>
        <pt x="428" y="501" on="1"/>
        <pt x="409" y="501" on="0"/>
        <pt x="383" y="527" on="0"/>
        <pt x="383" y="545" on="1"/>
      </contour>
      <contour>
        <pt x="139" y="536" on="0"/>
        <pt x="164" y="561" on="0"/>
        <pt x="183" y="561" on="1"/>
        <pt x="202" y="561" on="0"/>
        <pt x="227" y="536" on="0"/>
        <pt x="227" y="517" on="1"/>
        <pt x="227" y="497" on="0"/>
        <pt x="202" y="472" on="0"/>
        <pt x="183" y="472" on="1"/>
        <pt x="164" y="472" on="0"/>
        <pt x="139" y="497" on="0"/>
        <pt x="139" y="517" on="1"/>
      </contour>
      <contour>
        <pt x="478" y="496" on="0"/>
        <pt x="503" y="522" on="0"/>
        <pt x="522" y="522" on="1"/>
        <pt x="541" y="522" on="0"/>
        <pt x="566" y="497" on="0"/>
        <pt x="566" y="477" on="1"/>
        <pt x="566" y="458" on="0"/>
        <pt x="541" y="433" on="0"/>
        <pt x="522" y="433" on="1"/>
        <pt x="503" y="433" on="0"/>
        <pt x="478" y="458" on="0"/>
        <pt x="478" y="477" on="1"/>
      </contour>
      <contour>
        <pt x="57" y="426" on="0"/>
        <pt x="83" y="451" on="0"/>
        <pt x="103" y="451" on="1"/>
        <pt x="121" y="451" on="0"/>
        <pt x="147" y="426" on="0"/>
        <pt x="147" y="407" on="1"/>
        <pt x="147" y="388" on="0"/>
        <pt x="121" y="363" on="0"/>
        <pt x="103" y="363" on="1"/>
        <pt x="83" y="363" on="0"/>
        <pt x="57" y="388" on="0"/>
        <pt x="57" y="407" on="1"/>
      </contour>
      <contour>
        <pt x="528" y="379" on="0"/>
        <pt x="553" y="403" on="0"/>
        <pt x="572" y="403" on="1"/>
        <pt x="591" y="403" on="0"/>
        <pt x="616" y="378" on="0"/>
        <pt x="616" y="359" on="1"/>
        <pt x="616" y="340" on="0"/>
        <pt x="591" y="315" on="0"/>
        <pt x="572" y="315" on="1"/>
        <pt x="553" y="315" on="0"/>
        <pt x="528" y="340" on="0"/>
        <pt x="528" y="359" on="1"/>
      </contour>
      <contour>
        <pt x="44" y="300" on="0"/>
        <pt x="69" y="326" on="0"/>
        <pt x="88" y="326" on="1"/>
        <pt x="107" y="326" on="0"/>
        <pt x="132" y="301" on="0"/>
        <pt x="132" y="281" on="1"/>
        <pt x="132" y="262" on="0"/>
        <pt x="107" y="238" on="0"/>
        <pt x="88" y="238" on="1"/>
        <pt x="69" y="238" on="0"/>
        <pt x="44" y="262" on="0"/>
        <pt x="44" y="281" on="1"/>
      </contour>
      <contour>
        <pt x="518" y="245" on="0"/>
        <pt x="544" y="270" on="0"/>
        <pt x="563" y="270" on="1"/>
        <pt x="581" y="270" on="0"/>
        <pt x="606" y="244" on="0"/>
        <pt x="606" y="225" on="1"/>
        <pt x="606" y="206" on="0"/>
        <pt x="581" y="181" on="0"/>
        <pt x="563" y="181" on="1"/>
        <pt x="544" y="181" on="0"/>
        <pt x="518" y="206" on="0"/>
        <pt x="518" y="225" on="1"/>
      </contour>
      <contour>
        <pt x="96" y="184" on="0"/>
        <pt x="121" y="209" on="0"/>
        <pt x="140" y="209" on="1"/>
        <pt x="159" y="209" on="0"/>
        <pt x="184" y="184" on="0"/>
        <pt x="184" y="165" on="1"/>
        <pt x="184" y="146" on="0"/>
        <pt x="159" y="121" on="0"/>
        <pt x="140" y="121" on="1"/>
        <pt x="121" y="121" on="0"/>
        <pt x="96" y="146" on="0"/>
        <pt x="96" y="165" on="1"/>
      </contour>
      <contour>
        <pt x="445" y="146" on="0"/>
        <pt x="470" y="171" on="0"/>
        <pt x="489" y="171" on="1"/>
        <pt x="508" y="171" on="0"/>
        <pt x="534" y="146" on="0"/>
        <pt x="534" y="127" on="1"/>
        <pt x="534" y="108" on="0"/>
        <pt x="508" y="83" on="0"/>
        <pt x="489" y="83" on="1"/>
        <pt x="470" y="83" on="0"/>
        <pt x="445" y="108" on="0"/>
        <pt x="445" y="127" on="1"/>
      </contour>
      <contour>
        <pt x="197" y="108" on="0"/>
        <pt x="223" y="134" on="0"/>
        <pt x="242" y="134" on="1"/>
        <pt x="261" y="134" on="0"/>
        <pt x="286" y="108" on="0"/>
        <pt x="286" y="90" on="1"/>
        <pt x="286" y="70" on="0"/>
        <pt x="261" y="44" on="0"/>
        <pt x="242" y="44" on="1"/>
        <pt x="223" y="44" on="0"/>
        <pt x="197" y="70" on="0"/>
        <pt x="197" y="90" on="1"/>
      </contour>
      <contour>
        <pt x="324" y="94" on="0"/>
        <pt x="349" y="118" on="0"/>
        <pt x="368" y="118" on="1"/>
        <pt x="388" y="118" on="0"/>
        <pt x="413" y="93" on="0"/>
        <pt x="413" y="74" on="1"/>
        <pt x="413" y="55" on="0"/>
        <pt x="388" y="30" on="0"/>
        <pt x="368" y="30" on="1"/>
        <pt x="349" y="30" on="0"/>
        <pt x="324" y="55" on="0"/>
        <pt x="324" y="74" on="1"/>
      </contour>
    </TTGlyph>
    <TTGlyph name="doubledanda" xMin="114" yMin="0" xMax="373" yMax="649">
      <contour>
        <pt x="176" y="649" on="1"/>
        <pt x="176" y="0" on="1"/>
        <pt x="114" y="0" on="1"/>
        <pt x="114" y="649" on="1"/>
      </contour>
      <contour>
        <pt x="373" y="649" on="1"/>
        <pt x="373" y="0" on="1"/>
        <pt x="311" y="0" on="1"/>
        <pt x="311" y="649" on="1"/>
      </contour>
    </TTGlyph>
    <TTGlyph name="dvA" xMin="36" yMin="0" xMax="584" yMax="654">
      <contour>
        <pt x="584" y="649" on="1"/>
        <pt x="584" y="595" on="1"/>
        <pt x="487" y="595" on="1"/>
        <pt x="487" y="0" on="1"/>
        <pt x="425" y="0" on="1"/>
        <pt x="425" y="213" on="1"/>
        <pt x="306" y="213" on="1"/>
        <pt x="306" y="168" on="1"/>
        <pt x="306" y="105" on="0"/>
        <pt x="226" y="34" on="0"/>
        <pt x="148" y="34" on="1"/>
        <pt x="91" y="34" on="0"/>
        <pt x="36" y="49" on="1"/>
        <pt x="36" y="108" on="1"/>
        <pt x="96" y="91" on="0"/>
        <pt x="148" y="91" on="1"/>
        <pt x="243" y="91" on="0"/>
        <pt x="245" y="169" on="1"/>
        <pt x="245" y="242" on="1"/>
        <pt x="245" y="280" on="0"/>
        <pt x="211" y="320" on="0"/>
        <pt x="160" y="321" on="1"/>
        <pt x="100" y="321" on="1"/>
        <pt x="100" y="379" on="1"/>
        <pt x="160" y="379" on="1"/>
        <pt x="211" y="379" on="0"/>
        <pt x="245" y="419" on="0"/>
        <pt x="245" y="457" on="1"/>
        <pt x="245" y="519" on="1"/>
        <pt x="245" y="556" on="0"/>
        <pt x="198" y="597" on="0"/>
        <pt x="148" y="597" on="1"/>
        <pt x="99" y="597" on="0"/>
        <pt x="47" y="579" on="1"/>
        <pt x="47" y="639" on="1"/>
        <pt x="94" y="654" on="0"/>
        <pt x="149" y="654" on="1"/>
        <pt x="226" y="654" on="0"/>
        <pt x="306" y="583" on="0"/>
        <pt x="306" y="520" on="1"/>
        <pt x="306" y="457" on="1"/>
        <pt x="306" y="370" on="0"/>
        <pt x="254" y="350" on="1"/>
        <pt x="298" y="332" on="0"/>
        <pt x="305" y="267" on="1"/>
        <pt x="425" y="267" on="1"/>
        <pt x="425" y="649" on="1"/>
      </contour>
    </TTGlyph>
    <TTGlyph name="dvAA" xMin="61" yMin="0" xMax="817" yMax="654">
      <component glyphName="dvA" x="25" y="0" flags="0x0"/>
      <component glyphName="dvmAA" x="585" y="0" flags="0x0"/>
    </TTGlyph>
    <TTGlyph name="dvAI" xMin="-24" yMin="-5" xMax="450" yMax="878">
      <contour>
        <pt x="450" y="649" on="1"/>
        <pt x="450" y="595" on="1"/>
        <pt x="364" y="595" on="1"/>
        <pt x="364" y="397" on="1"/>
        <pt x="364" y="340" on="0"/>
        <pt x="304" y="272" on="0"/>
        <pt x="241" y="272" on="1"/>
        <pt x="233" y="272" on="0"/>
        <pt x="217" y="274" on="1"/>
        <pt x="217" y="331" on="1"/>
        <pt x="223" y="330" on="0"/>
        <pt x="235" y="330" on="1"/>
        <pt x="273" y="330" on="0"/>
        <pt x="302" y="365" on="0"/>
        <pt x="302" y="398" on="1"/>
        <pt x="302" y="595" on="1"/>
        <pt x="131" y="595" on="1"/>
        <pt x="131" y="126" on="1"/>
        <pt x="131" y="52" on="0"/>
        <pt x="226" y="52" on="1"/>
        <pt x="283" y="52" on="0"/>
        <pt x="348" y="72" on="1"/>
        <pt x="348" y="15" on="1"/>
        <pt x="328" y="7" on="0"/>
        <pt x="262" y="-5" on="0"/>
        <pt x="225" y="-5" on="1"/>
        <pt x="148" y="-5" on="0"/>
        <pt x="69" y="62" on="0"/>
        <pt x="69" y="125" on="1"/>
        <pt x="69" y="595" on="1"/>
        <pt x="-24" y="595" on="1"/>
        <pt x="-24" y="649" on="1"/>
        <pt x="298" y="649" on="1"/>
        <pt x="134" y="878" on="1"/>
        <pt x="204" y="878" on="1"/>
        <pt x="362" y="649" on="1"/>
      </contour>
    </TTGlyph>
    <TTGlyph name="dvAU" xMin="61" yMin="0" xMax="817" yMax="878">
      <component glyphName="dvA" x="25" y="0" flags="0x0"/>
      <component glyphName="dvmAU" x="585" y="0" flags="0x0"/>
    </TTGlyph>
    <TTGlyph name="dvAbbreviationsign" xMin="53" yMin="191" xMax="320" yMax="476">
      <contour>
        <pt x="53" y="476" on="0"/>
        <pt x="186" y="476" on="1"/>
        <pt x="257" y="476" on="0"/>
        <pt x="320" y="399" on="0"/>
        <pt x="320" y="333" on="1"/>
        <pt x="320" y="268" on="0"/>
        <pt x="257" y="191" on="0"/>
        <pt x="186" y="191" on="1"/>
        <pt x="115" y="191" on="0"/>
        <pt x="53" y="268" on="0"/>
        <pt x="53" y="333" on="1"/>
      </contour>
      <contour>
        <pt x="108" y="288" on="0"/>
        <pt x="140" y="244" on="0"/>
        <pt x="186" y="244" on="1"/>
        <pt x="233" y="244" on="0"/>
        <pt x="266" y="289" on="0"/>
        <pt x="266" y="332" on="1"/>
        <pt x="266" y="375" on="0"/>
        <pt x="232" y="422" on="0"/>
        <pt x="186" y="422" on="1"/>
        <pt x="140" y="422" on="0"/>
        <pt x="108" y="376" on="0"/>
        <pt x="108" y="332" on="1"/>
      </contour>
    </TTGlyph>
    <TTGlyph name="dvAcandra" xMin="36" yMin="0" xMax="615" yMax="834">
      <component glyphName="dvA" x="0" y="0" flags="0x0"/>
      <component glyphName="dvmEcandra" x="561" y="0" flags="0x0"/>
    </TTGlyph>
    <TTGlyph name="dvAnusvara" xMin="-145" yMin="727" xMax="-64" yMax="808">
      <contour>
        <pt x="-145" y="808" on="0"/>
        <pt x="-105" y="808" on="1"/>
        <pt x="-64" y="808" on="0"/>
        <pt x="-64" y="767" on="1"/>
        <pt x="-64" y="727" on="0"/>
        <pt x="-105" y="727" on="1"/>
        <pt x="-145" y="727" on="0"/>
        <pt x="-145" y="767" on="1"/>
      </contour>
    </TTGlyph>
    <TTGlyph name="dvAnusvara.amI" xMin="19" yMin="712" xMax="100" yMax="793">
      <component glyphName="dvAnusvara" x="164" y="-15" flags="0x4"/>
    </TTGlyph>
    <TTGlyph name="dvAvagraha" xMin="54" yMin="-5" xMax="383" yMax="649">
      <contour>
        <pt x="383" y="67" on="0"/>
        <pt x="307" y="-5" on="0"/>
        <pt x="222" y="-5" on="1"/>
        <pt x="217" y="-5" on="1"/>
        <pt x="133" y="-5" on="0"/>
        <pt x="57" y="67" on="0"/>
        <pt x="57" y="134" on="1"/>
        <pt x="57" y="202" on="1"/>
        <pt x="118" y="202" on="1"/>
        <pt x="118" y="133" on="1"/>
        <pt x="118" y="95" on="0"/>
        <pt x="160" y="53" on="0"/>
        <pt x="218" y="53" on="1"/>
        <pt x="221" y="53" on="1"/>
        <pt x="280" y="53" on="0"/>
        <pt x="321" y="95" on="0"/>
        <pt x="321" y="133" on="1"/>
        <pt x="321" y="201" on="1"/>
        <pt x="321" y="232" on="0"/>
        <pt x="300" y="274" on="0"/>
        <pt x="270" y="290" on="1"/>
        <pt x="135" y="365" on="1"/>
        <pt x="91" y="389" on="0"/>
        <pt x="54" y="455" on="0"/>
        <pt x="54" y="501" on="1"/>
        <pt x="54" y="528" on="1"/>
        <pt x="54" y="588" on="0"/>
        <pt x="120" y="649" on="0"/>
        <pt x="198" y="649" on="1"/>
        <pt x="359" y="649" on="1"/>
        <pt x="359" y="591" on="1"/>
        <pt x="200" y="591" on="1"/>
        <pt x="148" y="591" on="0"/>
        <pt x="116" y="560" on="0"/>
        <pt x="116" y="527" on="1"/>
        <pt x="116" y="503" on="1"/>
        <pt x="116" y="472" on="0"/>
        <pt x="137" y="431" on="0"/>
        <pt x="167" y="415" on="1"/>
        <pt x="301" y="340" on="1"/>
        <pt x="347" y="315" on="0"/>
        <pt x="383" y="250" on="0"/>
        <pt x="383" y="201" on="1"/>
        <pt x="383" y="134" on="1"/>
      </contour>
    </TTGlyph>
    <TTGlyph name="dvB" xMin="-24" yMin="70" xMax="351" yMax="649">
      <contour>
        <pt x="351" y="595" on="1"/>
        <pt x="-24" y="595" on="1"/>
        <pt x="-24" y="649" on="1"/>
        <pt x="351" y="649" on="1"/>
      </contour>
      <contour>
        <pt x="46" y="505" on="0"/>
        <pt x="197" y="505" on="1"/>
        <pt x="275" y="505" on="0"/>
        <pt x="347" y="441" on="0"/>
        <pt x="347" y="377" on="1"/>
        <pt x="347" y="198" on="1"/>
        <pt x="347" y="134" on="0"/>
        <pt x="275" y="70" on="0"/>
        <pt x="197" y="70" on="1"/>
        <pt x="46" y="70" on="0"/>
        <pt x="46" y="198" on="1"/>
        <pt x="46" y="377" on="1"/>
      </contour>
      <contour>
        <pt x="289" y="450" on="0"/>
        <pt x="198" y="450" on="1"/>
        <pt x="139" y="450" on="0"/>
        <pt x="119" y="419" on="1"/>
        <pt x="289" y="214" on="1"/>
        <pt x="289" y="375" on="1"/>
      </contour>
      <contour>
        <pt x="107" y="163" on="0"/>
        <pt x="148" y="125" on="0"/>
        <pt x="198" y="125" on="1"/>
        <pt x="231" y="125" on="0"/>
        <pt x="270" y="142" on="0"/>
        <pt x="279" y="158" on="1"/>
        <pt x="107" y="366" on="1"/>
        <pt x="107" y="199" on="1"/>
      </contour>
    </TTGlyph>
    <TTGlyph name="dvBA" xMin="-24" yMin="0" xMax="442" yMax="649">
      <contour>
        <pt x="442" y="649" on="1"/>
        <pt x="442" y="595" on="1"/>
        <pt x="345" y="595" on="1"/>
        <pt x="345" y="0" on="1"/>
        <pt x="287" y="0" on="1"/>
        <pt x="287" y="83" on="1"/>
        <pt x="251" y="70" on="0"/>
        <pt x="201" y="70" on="1"/>
        <pt x="126" y="70" on="0"/>
        <pt x="46" y="136" on="0"/>
        <pt x="46" y="200" on="1"/>
        <pt x="46" y="377" on="1"/>
        <pt x="46" y="439" on="0"/>
        <pt x="125" y="505" on="0"/>
        <pt x="200" y="505" on="1"/>
        <pt x="251" y="505" on="0"/>
        <pt x="287" y="492" on="1"/>
        <pt x="287" y="595" on="1"/>
        <pt x="-24" y="595" on="1"/>
        <pt x="-24" y="649" on="1"/>
      </contour>
      <contour>
        <pt x="118" y="450" on="0"/>
        <pt x="108" y="391" on="1"/>
        <pt x="287" y="250" on="1"/>
        <pt x="287" y="437" on="1"/>
        <pt x="251" y="450" on="0"/>
        <pt x="203" y="450" on="1"/>
      </contour>
      <contour>
        <pt x="251" y="125" on="0"/>
        <pt x="287" y="138" on="1"/>
        <pt x="287" y="195" on="1"/>
        <pt x="107" y="339" on="1"/>
        <pt x="107" y="201" on="1"/>
        <pt x="107" y="125" on="0"/>
        <pt x="203" y="125" on="1"/>
      </contour>
    </TTGlyph>
    <TTGlyph name="dvBH" xMin="47" yMin="61" xMax="488" yMax="654">
      <contour>
        <pt x="318" y="341" on="1"/>
        <pt x="318" y="181" on="1"/>
        <pt x="318" y="121" on="0"/>
        <pt x="253" y="61" on="0"/>
        <pt x="182" y="61" on="1"/>
        <pt x="112" y="61" on="0"/>
        <pt x="47" y="121" on="0"/>
        <pt x="47" y="181" on="1"/>
        <pt x="47" y="277" on="1"/>
        <pt x="47" y="336" on="0"/>
        <pt x="112" y="394" on="0"/>
        <pt x="182" y="394" on="1"/>
        <pt x="257" y="394" on="1"/>
        <pt x="257" y="528" on="1"/>
        <pt x="257" y="562" on="0"/>
        <pt x="228" y="596" on="0"/>
        <pt x="185" y="596" on="1"/>
        <pt x="143" y="596" on="0"/>
        <pt x="114" y="562" on="0"/>
        <pt x="114" y="528" on="1"/>
        <pt x="114" y="513" on="0"/>
        <pt x="118" y="481" on="0"/>
        <pt x="119" y="476" on="1"/>
        <pt x="57" y="476" on="1"/>
        <pt x="56" y="481" on="0"/>
        <pt x="52" y="514" on="0"/>
        <pt x="52" y="529" on="1"/>
        <pt x="52" y="654" on="0"/>
        <pt x="185" y="654" on="1"/>
        <pt x="319" y="654" on="0"/>
        <pt x="319" y="529" on="1"/>
        <pt x="319" y="394" on="1"/>
        <pt x="488" y="394" on="1"/>
        <pt x="488" y="341" on="1"/>
      </contour>
      <contour>
        <pt x="182" y="341" on="1"/>
        <pt x="138" y="341" on="0"/>
        <pt x="108" y="310" on="0"/>
        <pt x="108" y="276" on="1"/>
        <pt x="108" y="182" on="1"/>
        <pt x="108" y="148" on="0"/>
        <pt x="138" y="117" on="0"/>
        <pt x="182" y="117" on="1"/>
        <pt x="227" y="117" on="0"/>
        <pt x="257" y="148" on="0"/>
        <pt x="257" y="182" on="1"/>
        <pt x="257" y="341" on="1"/>
      </contour>
    </TTGlyph>
    <TTGlyph name="dvBHA" xMin="48" yMin="0" xMax="608" yMax="654">
      <contour>
        <pt x="257" y="562" on="0"/>
        <pt x="228" y="596" on="0"/>
        <pt x="186" y="596" on="1"/>
        <pt x="144" y="596" on="0"/>
        <pt x="114" y="562" on="0"/>
        <pt x="114" y="528" on="1"/>
        <pt x="114" y="514" on="0"/>
        <pt x="117" y="481" on="0"/>
        <pt x="118" y="476" on="1"/>
        <pt x="56" y="476" on="1"/>
        <pt x="55" y="481" on="0"/>
        <pt x="52" y="514" on="0"/>
        <pt x="52" y="529" on="1"/>
        <pt x="52" y="654" on="0"/>
        <pt x="186" y="654" on="1"/>
        <pt x="319" y="654" on="0"/>
        <pt x="319" y="529" on="1"/>
        <pt x="319" y="394" on="1"/>
        <pt x="450" y="394" on="1"/>
        <pt x="450" y="649" on="1"/>
        <pt x="608" y="649" on="1"/>
        <pt x="608" y="595" on="1"/>
        <pt x="511" y="595" on="1"/>
        <pt x="511" y="0" on="1"/>
        <pt x="450" y="0" on="1"/>
        <pt x="450" y="341" on="1"/>
        <pt x="318" y="341" on="1"/>
        <pt x="318" y="181" on="1"/>
        <pt x="318" y="121" on="0"/>
        <pt x="254" y="61" on="0"/>
        <pt x="183" y="61" on="1"/>
        <pt x="112" y="61" on="0"/>
        <pt x="48" y="121" on="0"/>
        <pt x="48" y="181" on="1"/>
        <pt x="48" y="277" on="1"/>
        <pt x="48" y="337" on="0"/>
        <pt x="112" y="394" on="0"/>
        <pt x="183" y="394" on="1"/>
        <pt x="257" y="394" on="1"/>
        <pt x="257" y="528" on="1"/>
      </contour>
      <contour>
        <pt x="183" y="341" on="1"/>
        <pt x="138" y="341" on="0"/>
        <pt x="108" y="310" on="0"/>
        <pt x="108" y="276" on="1"/>
        <pt x="108" y="182" on="1"/>
        <pt x="108" y="148" on="0"/>
        <pt x="138" y="117" on="0"/>
        <pt x="183" y="117" on="1"/>
        <pt x="227" y="117" on="0"/>
        <pt x="257" y="148" on="0"/>
        <pt x="257" y="182" on="1"/>
        <pt x="257" y="341" on="1"/>
      </contour>
    </TTGlyph>
    <TTGlyph name="dvBH_LA" xMin="47" yMin="0" xMax="1033" yMax="654">
      <contour>
        <pt x="1033" y="649" on="1"/>
        <pt x="1033" y="595" on="1"/>
        <pt x="936" y="595" on="1"/>
        <pt x="936" y="0" on="1"/>
        <pt x="874" y="0" on="1"/>
        <pt x="874" y="408" on="1"/>
        <pt x="843" y="422" on="0"/>
        <pt x="802" y="422" on="1"/>
        <pt x="759" y="422" on="0"/>
        <pt x="720" y="384" on="0"/>
        <pt x="720" y="352" on="1"/>
        <pt x="720" y="207" on="1"/>
        <pt x="659" y="207" on="1"/>
        <pt x="659" y="352" on="1"/>
        <pt x="659" y="385" on="0"/>
        <pt x="625" y="422" on="0"/>
        <pt x="582" y="422" on="1"/>
        <pt x="538" y="422" on="0"/>
        <pt x="505" y="384" on="0"/>
        <pt x="505" y="349" on="1"/>
        <pt x="505" y="153" on="1"/>
        <pt x="505" y="106" on="0"/>
        <pt x="549" y="56" on="0"/>
        <pt x="608" y="56" on="1"/>
        <pt x="637" y="56" on="0"/>
        <pt x="665" y="60" on="1"/>
        <pt x="665" y="5" on="1"/>
        <pt x="638" y="0" on="0"/>
        <pt x="607" y="0" on="1"/>
        <pt x="443" y="0" on="0"/>
        <pt x="443" y="152" on="1"/>
        <pt x="443" y="341" on="1"/>
        <pt x="318" y="341" on="1"/>
        <pt x="318" y="181" on="1"/>
        <pt x="318" y="121" on="0"/>
        <pt x="253" y="61" on="0"/>
        <pt x="182" y="61" on="1"/>
        <pt x="112" y="61" on="0"/>
        <pt x="47" y="121" on="0"/>
        <pt x="47" y="181" on="1"/>
        <pt x="47" y="277" on="1"/>
        <pt x="47" y="336" on="0"/>
        <pt x="112" y="394" on="0"/>
        <pt x="182" y="394" on="1"/>
        <pt x="257" y="394" on="1"/>
        <pt x="257" y="528" on="1"/>
        <pt x="257" y="562" on="0"/>
        <pt x="228" y="596" on="0"/>
        <pt x="185" y="596" on="1"/>
        <pt x="143" y="596" on="0"/>
        <pt x="114" y="562" on="0"/>
        <pt x="114" y="528" on="1"/>
        <pt x="114" y="513" on="0"/>
        <pt x="118" y="481" on="0"/>
        <pt x="119" y="476" on="1"/>
        <pt x="57" y="476" on="1"/>
        <pt x="56" y="481" on="0"/>
        <pt x="52" y="514" on="0"/>
        <pt x="52" y="529" on="1"/>
        <pt x="52" y="654" on="0"/>
        <pt x="185" y="654" on="1"/>
        <pt x="319" y="654" on="0"/>
        <pt x="319" y="529" on="1"/>
        <pt x="319" y="394" on="1"/>
        <pt x="448" y="394" on="1"/>
        <pt x="472" y="479" on="0"/>
        <pt x="581" y="479" on="1"/>
        <pt x="657" y="479" on="0"/>
        <pt x="689" y="434" on="1"/>
        <pt x="704" y="455" on="0"/>
        <pt x="761" y="479" on="0"/>
        <pt x="800" y="479" on="1"/>
        <pt x="840" y="479" on="0"/>
        <pt x="874" y="465" on="1"/>
        <pt x="874" y="595" on="1"/>
        <pt x="377" y="595" on="1"/>
        <pt x="377" y="649" on="1"/>
      </contour>
      <contour>
        <pt x="257" y="341" on="1"/>
        <pt x="182" y="341" on="1"/>
        <pt x="138" y="341" on="0"/>
        <pt x="108" y="310" on="0"/>
        <pt x="108" y="276" on="1"/>
        <pt x="108" y="182" on="1"/>
        <pt x="108" y="148" on="0"/>
        <pt x="138" y="117" on="0"/>
        <pt x="182" y="117" on="1"/>
        <pt x="227" y="117" on="0"/>
        <pt x="257" y="148" on="0"/>
        <pt x="257" y="182" on="1"/>
      </contour>
    </TTGlyph>
    <TTGlyph name="dvBH_NA" xMin="47" yMin="0" xMax="986" yMax="654">
      <contour>
        <pt x="986" y="649" on="1"/>
        <pt x="986" y="595" on="1"/>
        <pt x="889" y="595" on="1"/>
        <pt x="889" y="0" on="1"/>
        <pt x="827" y="0" on="1"/>
        <pt x="827" y="423" on="1"/>
        <pt x="688" y="423" on="1"/>
        <pt x="690" y="421" on="0"/>
        <pt x="700" y="380" on="0"/>
        <pt x="700" y="351" on="1"/>
        <pt x="700" y="182" on="1"/>
        <pt x="700" y="61" on="0"/>
        <pt x="569" y="61" on="1"/>
        <pt x="438" y="61" on="0"/>
        <pt x="438" y="182" on="1"/>
        <pt x="438" y="341" on="1"/>
        <pt x="318" y="341" on="1"/>
        <pt x="318" y="181" on="1"/>
        <pt x="318" y="121" on="0"/>
        <pt x="253" y="61" on="0"/>
        <pt x="182" y="61" on="1"/>
        <pt x="112" y="61" on="0"/>
        <pt x="47" y="121" on="0"/>
        <pt x="47" y="181" on="1"/>
        <pt x="47" y="277" on="1"/>
        <pt x="47" y="336" on="0"/>
        <pt x="112" y="394" on="0"/>
        <pt x="182" y="394" on="1"/>
        <pt x="257" y="394" on="1"/>
        <pt x="257" y="528" on="1"/>
        <pt x="257" y="562" on="0"/>
        <pt x="228" y="596" on="0"/>
        <pt x="185" y="596" on="1"/>
        <pt x="143" y="596" on="0"/>
        <pt x="114" y="562" on="0"/>
        <pt x="114" y="528" on="1"/>
        <pt x="114" y="512" on="0"/>
        <pt x="117" y="481" on="0"/>
        <pt x="118" y="476" on="1"/>
        <pt x="56" y="476" on="1"/>
        <pt x="55" y="481" on="0"/>
        <pt x="52" y="513" on="0"/>
        <pt x="52" y="529" on="1"/>
        <pt x="52" y="654" on="0"/>
        <pt x="185" y="654" on="1"/>
        <pt x="319" y="654" on="0"/>
        <pt x="319" y="529" on="1"/>
        <pt x="319" y="394" on="1"/>
        <pt x="441" y="394" on="1"/>
        <pt x="459" y="479" on="0"/>
        <pt x="569" y="479" on="1"/>
        <pt x="827" y="479" on="1"/>
        <pt x="827" y="595" on="1"/>
        <pt x="379" y="595" on="1"/>
        <pt x="379" y="649" on="1"/>
      </contour>
      <contour>
        <pt x="640" y="350" on="1"/>
        <pt x="640" y="378" on="0"/>
        <pt x="631" y="417" on="0"/>
        <pt x="628" y="423" on="1"/>
        <pt x="569" y="423" on="1"/>
        <pt x="530" y="423" on="0"/>
        <pt x="499" y="391" on="0"/>
        <pt x="499" y="358" on="1"/>
        <pt x="499" y="182" on="1"/>
        <pt x="499" y="150" on="0"/>
        <pt x="530" y="118" on="0"/>
        <pt x="569" y="118" on="1"/>
        <pt x="609" y="118" on="0"/>
        <pt x="640" y="150" on="0"/>
        <pt x="640" y="182" on="1"/>
      </contour>
      <contour>
        <pt x="257" y="341" on="1"/>
        <pt x="182" y="341" on="1"/>
        <pt x="138" y="341" on="0"/>
        <pt x="108" y="310" on="0"/>
        <pt x="108" y="276" on="1"/>
        <pt x="108" y="182" on="1"/>
        <pt x="108" y="148" on="0"/>
        <pt x="138" y="117" on="0"/>
        <pt x="182" y="117" on="1"/>
        <pt x="227" y="117" on="0"/>
        <pt x="257" y="148" on="0"/>
        <pt x="257" y="182" on="1"/>
      </contour>
    </TTGlyph>
    <TTGlyph name="dvBH_R" xMin="53" yMin="-46" xMax="493" yMax="654">
      <contour>
        <pt x="324" y="369" on="1"/>
        <pt x="324" y="250" on="1"/>
        <pt x="324" y="190" on="0"/>
        <pt x="259" y="131" on="0"/>
        <pt x="188" y="131" on="1"/>
        <pt x="118" y="131" on="0"/>
        <pt x="53" y="190" on="0"/>
        <pt x="53" y="250" on="1"/>
        <pt x="53" y="305" on="1"/>
        <pt x="53" y="364" on="0"/>
        <pt x="118" y="423" on="0"/>
        <pt x="188" y="423" on="1"/>
        <pt x="263" y="423" on="1"/>
        <pt x="263" y="528" on="1"/>
        <pt x="263" y="562" on="0"/>
        <pt x="234" y="596" on="0"/>
        <pt x="191" y="596" on="1"/>
        <pt x="149" y="596" on="0"/>
        <pt x="120" y="562" on="0"/>
        <pt x="120" y="528" on="1"/>
        <pt x="120" y="512" on="0"/>
        <pt x="124" y="483" on="0"/>
        <pt x="125" y="479" on="1"/>
        <pt x="63" y="479" on="1"/>
        <pt x="62" y="484" on="0"/>
        <pt x="58" y="515" on="0"/>
        <pt x="58" y="529" on="1"/>
        <pt x="58" y="654" on="0"/>
        <pt x="191" y="654" on="1"/>
        <pt x="325" y="654" on="0"/>
        <pt x="325" y="529" on="1"/>
        <pt x="325" y="423" on="1"/>
        <pt x="493" y="423" on="1"/>
        <pt x="493" y="369" on="1"/>
      </contour>
      <contour>
        <pt x="188" y="369" on="1"/>
        <pt x="144" y="369" on="0"/>
        <pt x="114" y="338" on="0"/>
        <pt x="114" y="304" on="1"/>
        <pt x="114" y="251" on="1"/>
        <pt x="114" y="218" on="0"/>
        <pt x="144" y="186" on="0"/>
        <pt x="188" y="186" on="1"/>
        <pt x="233" y="186" on="0"/>
        <pt x="263" y="217" on="0"/>
        <pt x="263" y="251" on="1"/>
        <pt x="263" y="369" on="1"/>
      </contour>
      <contour>
        <pt x="474" y="181" on="0"/>
        <pt x="404" y="93" on="0"/>
        <pt x="375" y="62" on="1"/>
        <pt x="273" y="-46" on="1"/>
        <pt x="192" y="-46" on="1"/>
        <pt x="493" y="275" on="1"/>
        <pt x="493" y="209" on="1"/>
      </contour>
    </TTGlyph>
    <TTGlyph name="dvBH_RA" xMin="53" yMin="-46" xMax="616" yMax="654">
      <contour>
        <pt x="324" y="369" on="1"/>
        <pt x="324" y="250" on="1"/>
        <pt x="324" y="190" on="0"/>
        <pt x="259" y="131" on="0"/>
        <pt x="188" y="131" on="1"/>
        <pt x="118" y="131" on="0"/>
        <pt x="53" y="190" on="0"/>
        <pt x="53" y="250" on="1"/>
        <pt x="53" y="305" on="1"/>
        <pt x="53" y="364" on="0"/>
        <pt x="118" y="423" on="0"/>
        <pt x="188" y="423" on="1"/>
        <pt x="263" y="423" on="1"/>
        <pt x="263" y="528" on="1"/>
        <pt x="263" y="562" on="0"/>
        <pt x="234" y="596" on="0"/>
        <pt x="191" y="596" on="1"/>
        <pt x="149" y="596" on="0"/>
        <pt x="120" y="562" on="0"/>
        <pt x="120" y="528" on="1"/>
        <pt x="120" y="509" on="0"/>
        <pt x="123" y="482" on="0"/>
        <pt x="124" y="479" on="1"/>
        <pt x="62" y="479" on="1"/>
        <pt x="61" y="483" on="0"/>
        <pt x="58" y="512" on="0"/>
        <pt x="58" y="529" on="1"/>
        <pt x="58" y="654" on="0"/>
        <pt x="191" y="654" on="1"/>
        <pt x="325" y="654" on="0"/>
        <pt x="325" y="529" on="1"/>
        <pt x="325" y="423" on="1"/>
        <pt x="458" y="423" on="1"/>
        <pt x="458" y="649" on="1"/>
        <pt x="616" y="649" on="1"/>
        <pt x="616" y="595" on="1"/>
        <pt x="520" y="595" on="1"/>
        <pt x="520" y="-1" on="1"/>
        <pt x="460" y="-1" on="1"/>
        <pt x="460" y="29" on="1"/>
        <pt x="460" y="128" on="0"/>
        <pt x="464" y="168" on="1"/>
        <pt x="456" y="150" on="0"/>
        <pt x="374" y="61" on="1"/>
        <pt x="273" y="-46" on="1"/>
        <pt x="192" y="-46" on="1"/>
        <pt x="458" y="238" on="1"/>
        <pt x="458" y="369" on="1"/>
      </contour>
      <contour>
        <pt x="188" y="369" on="1"/>
        <pt x="144" y="369" on="0"/>
        <pt x="114" y="338" on="0"/>
        <pt x="114" y="304" on="1"/>
        <pt x="114" y="251" on="1"/>
        <pt x="114" y="218" on="0"/>
        <pt x="144" y="186" on="0"/>
        <pt x="188" y="186" on="1"/>
        <pt x="233" y="186" on="0"/>
        <pt x="263" y="217" on="0"/>
        <pt x="263" y="251" on="1"/>
        <pt x="263" y="369" on="1"/>
      </contour>
    </TTGlyph>
    <TTGlyph name="dvBH_R_YA" xMin="48" yMin="-46" xMax="913" yMax="654">
      <contour>
        <pt x="913" y="649" on="1"/>
        <pt x="913" y="595" on="1"/>
        <pt x="816" y="595" on="1"/>
        <pt x="816" y="0" on="1"/>
        <pt x="754" y="0" on="1"/>
        <pt x="754" y="125" on="1"/>
        <pt x="722" y="85" on="0"/>
        <pt x="631" y="85" on="1"/>
        <pt x="503" y="85" on="0"/>
        <pt x="465" y="164" on="1"/>
        <pt x="416" y="99" on="0"/>
        <pt x="380" y="62" on="1"/>
        <pt x="278" y="-46" on="1"/>
        <pt x="198" y="-46" on="1"/>
        <pt x="449" y="222" on="1"/>
        <pt x="447" y="244" on="0"/>
        <pt x="447" y="256" on="1"/>
        <pt x="447" y="346" on="1"/>
        <pt x="437" y="356" on="0"/>
        <pt x="407" y="356" on="1"/>
        <pt x="318" y="356" on="1"/>
        <pt x="318" y="250" on="1"/>
        <pt x="318" y="190" on="0"/>
        <pt x="254" y="130" on="0"/>
        <pt x="183" y="130" on="1"/>
        <pt x="112" y="130" on="0"/>
        <pt x="48" y="190" on="0"/>
        <pt x="48" y="250" on="1"/>
        <pt x="48" y="293" on="1"/>
        <pt x="48" y="353" on="0"/>
        <pt x="112" y="410" on="0"/>
        <pt x="183" y="410" on="1"/>
        <pt x="257" y="410" on="1"/>
        <pt x="257" y="528" on="1"/>
        <pt x="257" y="562" on="0"/>
        <pt x="228" y="596" on="0"/>
        <pt x="186" y="596" on="1"/>
        <pt x="144" y="596" on="0"/>
        <pt x="114" y="562" on="0"/>
        <pt x="114" y="528" on="1"/>
        <pt x="115" y="488" on="1"/>
        <pt x="53" y="488" on="1"/>
        <pt x="52" y="529" on="1"/>
        <pt x="52" y="654" on="0"/>
        <pt x="186" y="654" on="1"/>
        <pt x="319" y="654" on="0"/>
        <pt x="319" y="529" on="1"/>
        <pt x="319" y="410" on="1"/>
        <pt x="414" y="410" on="1"/>
        <pt x="467" y="410" on="0"/>
        <pt x="486" y="388" on="1"/>
        <pt x="537" y="390" on="0"/>
        <pt x="577" y="421" on="0"/>
        <pt x="577" y="461" on="1"/>
        <pt x="577" y="525" on="1"/>
        <pt x="577" y="560" on="0"/>
        <pt x="545" y="595" on="0"/>
        <pt x="504" y="595" on="1"/>
        <pt x="377" y="595" on="1"/>
        <pt x="377" y="649" on="1"/>
      </contour>
      <contour>
        <pt x="754" y="595" on="1"/>
        <pt x="611" y="595" on="1"/>
        <pt x="623" y="589" on="0"/>
        <pt x="638" y="553" on="0"/>
        <pt x="638" y="525" on="1"/>
        <pt x="638" y="456" on="1"/>
        <pt x="638" y="396" on="0"/>
        <pt x="570" y="338" on="0"/>
        <pt x="508" y="338" on="1"/>
        <pt x="508" y="260" on="1"/>
        <pt x="508" y="198" on="0"/>
        <pt x="564" y="143" on="0"/>
        <pt x="633" y="143" on="1"/>
        <pt x="697" y="143" on="0"/>
        <pt x="751" y="192" on="0"/>
        <pt x="754" y="248" on="1"/>
      </contour>
      <contour>
        <pt x="257" y="357" on="1"/>
        <pt x="183" y="357" on="1"/>
        <pt x="138" y="357" on="0"/>
        <pt x="108" y="326" on="0"/>
        <pt x="108" y="292" on="1"/>
        <pt x="108" y="251" on="1"/>
        <pt x="108" y="218" on="0"/>
        <pt x="138" y="186" on="0"/>
        <pt x="183" y="186" on="1"/>
        <pt x="227" y="186" on="0"/>
        <pt x="257" y="217" on="0"/>
        <pt x="257" y="251" on="1"/>
      </contour>
    </TTGlyph>
    <TTGlyph name="dvBH_VA" xMin="47" yMin="0" xMax="843" yMax="654">
      <contour>
        <pt x="843" y="649" on="1"/>
        <pt x="843" y="595" on="1"/>
        <pt x="746" y="595" on="1"/>
        <pt x="746" y="0" on="1"/>
        <pt x="684" y="0" on="1"/>
        <pt x="684" y="83" on="1"/>
        <pt x="674" y="79" on="0"/>
        <pt x="621" y="70" on="0"/>
        <pt x="591" y="70" on="1"/>
        <pt x="517" y="70" on="0"/>
        <pt x="442" y="138" on="0"/>
        <pt x="442" y="201" on="1"/>
        <pt x="442" y="341" on="1"/>
        <pt x="318" y="341" on="1"/>
        <pt x="318" y="181" on="1"/>
        <pt x="318" y="121" on="0"/>
        <pt x="253" y="61" on="0"/>
        <pt x="182" y="61" on="1"/>
        <pt x="112" y="61" on="0"/>
        <pt x="47" y="121" on="0"/>
        <pt x="47" y="181" on="1"/>
        <pt x="47" y="277" on="1"/>
        <pt x="47" y="336" on="0"/>
        <pt x="112" y="394" on="0"/>
        <pt x="182" y="394" on="1"/>
        <pt x="257" y="394" on="1"/>
        <pt x="257" y="528" on="1"/>
        <pt x="257" y="562" on="0"/>
        <pt x="228" y="596" on="0"/>
        <pt x="185" y="596" on="1"/>
        <pt x="143" y="596" on="0"/>
        <pt x="114" y="562" on="0"/>
        <pt x="114" y="528" on="1"/>
        <pt x="114" y="513" on="0"/>
        <pt x="118" y="481" on="0"/>
        <pt x="119" y="476" on="1"/>
        <pt x="57" y="476" on="1"/>
        <pt x="56" y="481" on="0"/>
        <pt x="52" y="514" on="0"/>
        <pt x="52" y="529" on="1"/>
        <pt x="52" y="654" on="0"/>
        <pt x="185" y="654" on="1"/>
        <pt x="319" y="654" on="0"/>
        <pt x="319" y="529" on="1"/>
        <pt x="319" y="394" on="1"/>
        <pt x="443" y="394" on="1"/>
        <pt x="449" y="446" on="0"/>
        <pt x="524" y="505" on="0"/>
        <pt x="591" y="505" on="1"/>
        <pt x="621" y="505" on="0"/>
        <pt x="674" y="496" on="0"/>
        <pt x="684" y="492" on="1"/>
        <pt x="684" y="595" on="1"/>
        <pt x="381" y="595" on="1"/>
        <pt x="381" y="649" on="1"/>
      </contour>
      <contour>
        <pt x="685" y="437" on="1"/>
        <pt x="674" y="441" on="0"/>
        <pt x="624" y="450" on="0"/>
        <pt x="595" y="450" on="1"/>
        <pt x="547" y="450" on="0"/>
        <pt x="503" y="408" on="0"/>
        <pt x="503" y="374" on="1"/>
        <pt x="503" y="202" on="1"/>
        <pt x="503" y="165" on="0"/>
        <pt x="547" y="126" on="0"/>
        <pt x="596" y="126" on="1"/>
        <pt x="625" y="126" on="0"/>
        <pt x="676" y="134" on="0"/>
        <pt x="685" y="138" on="1"/>
      </contour>
      <contour>
        <pt x="257" y="341" on="1"/>
        <pt x="182" y="341" on="1"/>
        <pt x="138" y="341" on="0"/>
        <pt x="108" y="310" on="0"/>
        <pt x="108" y="276" on="1"/>
        <pt x="108" y="182" on="1"/>
        <pt x="108" y="148" on="0"/>
        <pt x="138" y="117" on="0"/>
        <pt x="182" y="117" on="1"/>
        <pt x="227" y="117" on="0"/>
        <pt x="257" y="148" on="0"/>
        <pt x="257" y="182" on="1"/>
      </contour>
    </TTGlyph>
    <TTGlyph name="dvBH_YA" xMin="48" yMin="0" xMax="913" yMax="654">
      <contour>
        <pt x="913" y="649" on="1"/>
        <pt x="913" y="595" on="1"/>
        <pt x="816" y="595" on="1"/>
        <pt x="816" y="0" on="1"/>
        <pt x="754" y="0" on="1"/>
        <pt x="754" y="97" on="1"/>
        <pt x="708" y="85" on="0"/>
        <pt x="643" y="85" on="1"/>
        <pt x="447" y="85" on="0"/>
        <pt x="447" y="256" on="1"/>
        <pt x="447" y="339" on="1"/>
        <pt x="438" y="353" on="0"/>
        <pt x="405" y="353" on="1"/>
        <pt x="318" y="353" on="1"/>
        <pt x="318" y="181" on="1"/>
        <pt x="318" y="121" on="0"/>
        <pt x="254" y="61" on="0"/>
        <pt x="183" y="61" on="1"/>
        <pt x="112" y="61" on="0"/>
        <pt x="48" y="121" on="0"/>
        <pt x="48" y="181" on="1"/>
        <pt x="48" y="289" on="1"/>
        <pt x="48" y="349" on="0"/>
        <pt x="112" y="407" on="0"/>
        <pt x="183" y="407" on="1"/>
        <pt x="257" y="407" on="1"/>
        <pt x="257" y="528" on="1"/>
        <pt x="257" y="562" on="0"/>
        <pt x="228" y="596" on="0"/>
        <pt x="186" y="596" on="1"/>
        <pt x="144" y="596" on="0"/>
        <pt x="114" y="562" on="0"/>
        <pt x="114" y="528" on="1"/>
        <pt x="114" y="513" on="0"/>
        <pt x="118" y="481" on="0"/>
        <pt x="119" y="476" on="1"/>
        <pt x="57" y="476" on="1"/>
        <pt x="56" y="481" on="0"/>
        <pt x="52" y="514" on="0"/>
        <pt x="52" y="529" on="1"/>
        <pt x="52" y="654" on="0"/>
        <pt x="186" y="654" on="1"/>
        <pt x="319" y="654" on="0"/>
        <pt x="319" y="529" on="1"/>
        <pt x="319" y="407" on="1"/>
        <pt x="411" y="407" on="1"/>
        <pt x="466" y="407" on="0"/>
        <pt x="484" y="384" on="1"/>
        <pt x="537" y="386" on="0"/>
        <pt x="577" y="416" on="0"/>
        <pt x="577" y="457" on="1"/>
        <pt x="577" y="525" on="1"/>
        <pt x="577" y="545" on="0"/>
        <pt x="573" y="577" on="0"/>
        <pt x="570" y="593" on="0"/>
        <pt x="569" y="595" on="1"/>
        <pt x="377" y="595" on="1"/>
        <pt x="377" y="649" on="1"/>
      </contour>
      <contour>
        <pt x="754" y="595" on="1"/>
        <pt x="631" y="595" on="1"/>
        <pt x="632" y="591" on="0"/>
        <pt x="638" y="554" on="0"/>
        <pt x="638" y="525" on="1"/>
        <pt x="638" y="451" on="1"/>
        <pt x="638" y="391" on="0"/>
        <pt x="570" y="334" on="0"/>
        <pt x="508" y="334" on="1"/>
        <pt x="508" y="260" on="1"/>
        <pt x="508" y="200" on="0"/>
        <pt x="573" y="143" on="0"/>
        <pt x="644" y="143" on="1"/>
        <pt x="699" y="143" on="0"/>
        <pt x="754" y="154" on="1"/>
      </contour>
      <contour>
        <pt x="257" y="353" on="1"/>
        <pt x="183" y="353" on="1"/>
        <pt x="138" y="353" on="0"/>
        <pt x="108" y="323" on="0"/>
        <pt x="108" y="289" on="1"/>
        <pt x="108" y="182" on="1"/>
        <pt x="108" y="148" on="0"/>
        <pt x="138" y="117" on="0"/>
        <pt x="183" y="117" on="1"/>
        <pt x="227" y="117" on="0"/>
        <pt x="257" y="148" on="0"/>
        <pt x="257" y="182" on="1"/>
      </contour>
    </TTGlyph>
    <TTGlyph name="dvB_BA" xMin="-24" yMin="0" xMax="686" yMax="649">
      <contour>
        <pt x="686" y="595" on="1"/>
        <pt x="589" y="595" on="1"/>
        <pt x="589" y="0" on="1"/>
        <pt x="531" y="0" on="1"/>
        <pt x="531" y="83" on="1"/>
        <pt x="495" y="70" on="0"/>
        <pt x="445" y="70" on="1"/>
        <pt x="360" y="70" on="0"/>
        <pt x="320" y="113" on="1"/>
        <pt x="285" y="70" on="0"/>
        <pt x="198" y="70" on="1"/>
        <pt x="46" y="70" on="0"/>
        <pt x="46" y="198" on="1"/>
        <pt x="46" y="377" on="1"/>
        <pt x="46" y="505" on="0"/>
        <pt x="196" y="505" on="1"/>
        <pt x="211" y="505" on="0"/>
        <pt x="237" y="502" on="0"/>
        <pt x="241" y="501" on="1"/>
        <pt x="241" y="446" on="1"/>
        <pt x="238" y="447" on="0"/>
        <pt x="213" y="450" on="0"/>
        <pt x="198" y="450" on="1"/>
        <pt x="153" y="450" on="0"/>
        <pt x="111" y="419" on="0"/>
        <pt x="108" y="390" on="1"/>
        <pt x="290" y="250" on="1"/>
        <pt x="290" y="377" on="1"/>
        <pt x="290" y="439" on="0"/>
        <pt x="369" y="505" on="0"/>
        <pt x="444" y="505" on="1"/>
        <pt x="495" y="505" on="0"/>
        <pt x="531" y="492" on="1"/>
        <pt x="531" y="595" on="1"/>
        <pt x="-24" y="595" on="1"/>
        <pt x="-24" y="649" on="1"/>
        <pt x="686" y="649" on="1"/>
      </contour>
      <contour>
        <pt x="362" y="450" on="0"/>
        <pt x="352" y="391" on="1"/>
        <pt x="531" y="250" on="1"/>
        <pt x="531" y="437" on="1"/>
        <pt x="495" y="450" on="0"/>
        <pt x="447" y="450" on="1"/>
      </contour>
      <contour>
        <pt x="495" y="125" on="0"/>
        <pt x="531" y="138" on="1"/>
        <pt x="531" y="195" on="1"/>
        <pt x="351" y="339" on="1"/>
        <pt x="351" y="201" on="1"/>
        <pt x="351" y="125" on="0"/>
        <pt x="447" y="125" on="1"/>
      </contour>
      <contour>
        <pt x="247" y="125" on="0"/>
        <pt x="289" y="160" on="0"/>
        <pt x="290" y="196" on="1"/>
        <pt x="107" y="337" on="1"/>
        <pt x="107" y="199" on="1"/>
        <pt x="107" y="163" on="0"/>
        <pt x="148" y="125" on="0"/>
        <pt x="199" y="125" on="1"/>
      </contour>
    </TTGlyph>
    <TTGlyph name="dvB_BHA" xMin="-24" yMin="0" xMax="849" yMax="654">
      <contour>
        <pt x="849" y="649" on="1"/>
        <pt x="849" y="595" on="1"/>
        <pt x="753" y="595" on="1"/>
        <pt x="753" y="0" on="1"/>
        <pt x="691" y="0" on="1"/>
        <pt x="691" y="341" on="1"/>
        <pt x="559" y="341" on="1"/>
        <pt x="559" y="181" on="1"/>
        <pt x="559" y="121" on="0"/>
        <pt x="495" y="61" on="0"/>
        <pt x="424" y="61" on="1"/>
        <pt x="340" y="61" on="0"/>
        <pt x="310" y="103" on="1"/>
        <pt x="272" y="70" on="0"/>
        <pt x="197" y="70" on="1"/>
        <pt x="46" y="70" on="0"/>
        <pt x="46" y="198" on="1"/>
        <pt x="46" y="377" on="1"/>
        <pt x="46" y="505" on="0"/>
        <pt x="196" y="505" on="1"/>
        <pt x="211" y="505" on="0"/>
        <pt x="237" y="502" on="0"/>
        <pt x="241" y="501" on="1"/>
        <pt x="241" y="446" on="1"/>
        <pt x="238" y="447" on="0"/>
        <pt x="213" y="450" on="0"/>
        <pt x="198" y="450" on="1"/>
        <pt x="153" y="450" on="0"/>
        <pt x="111" y="419" on="0"/>
        <pt x="108" y="390" on="1"/>
        <pt x="289" y="251" on="1"/>
        <pt x="289" y="277" on="1"/>
        <pt x="289" y="337" on="0"/>
        <pt x="353" y="394" on="0"/>
        <pt x="424" y="394" on="1"/>
        <pt x="498" y="394" on="1"/>
        <pt x="498" y="528" on="1"/>
        <pt x="498" y="562" on="0"/>
        <pt x="469" y="596" on="0"/>
        <pt x="427" y="596" on="1"/>
        <pt x="385" y="596" on="0"/>
        <pt x="355" y="562" on="0"/>
        <pt x="355" y="528" on="1"/>
        <pt x="355" y="515" on="0"/>
        <pt x="358" y="481" on="0"/>
        <pt x="359" y="476" on="1"/>
        <pt x="297" y="476" on="1"/>
        <pt x="296" y="481" on="0"/>
        <pt x="294" y="511" on="0"/>
        <pt x="294" y="529" on="1"/>
        <pt x="294" y="654" on="0"/>
        <pt x="427" y="654" on="1"/>
        <pt x="560" y="654" on="0"/>
        <pt x="560" y="529" on="1"/>
        <pt x="560" y="394" on="1"/>
        <pt x="691" y="394" on="1"/>
        <pt x="691" y="649" on="1"/>
      </contour>
      <contour>
        <pt x="237" y="595" on="1"/>
        <pt x="-24" y="595" on="1"/>
        <pt x="-24" y="649" on="1"/>
        <pt x="237" y="649" on="1"/>
      </contour>
      <contour>
        <pt x="498" y="341" on="1"/>
        <pt x="424" y="341" on="1"/>
        <pt x="379" y="341" on="0"/>
        <pt x="349" y="310" on="0"/>
        <pt x="349" y="276" on="1"/>
        <pt x="349" y="182" on="1"/>
        <pt x="349" y="148" on="0"/>
        <pt x="379" y="117" on="0"/>
        <pt x="424" y="117" on="1"/>
        <pt x="468" y="117" on="0"/>
        <pt x="498" y="148" on="0"/>
        <pt x="498" y="182" on="1"/>
      </contour>
      <contour>
        <pt x="247" y="125" on="0"/>
        <pt x="288" y="160" on="0"/>
        <pt x="289" y="196" on="1"/>
        <pt x="107" y="337" on="1"/>
        <pt x="107" y="199" on="1"/>
        <pt x="107" y="163" on="0"/>
        <pt x="148" y="125" on="0"/>
        <pt x="198" y="125" on="1"/>
      </contour>
    </TTGlyph>
    <TTGlyph name="dvB_BH_RA" xMin="-23" yMin="-46" xMax="851" yMax="654">
      <contour>
        <pt x="851" y="649" on="1"/>
        <pt x="851" y="595" on="1"/>
        <pt x="755" y="595" on="1"/>
        <pt x="755" y="-1" on="1"/>
        <pt x="695" y="-1" on="1"/>
        <pt x="695" y="29" on="1"/>
        <pt x="695" y="128" on="0"/>
        <pt x="699" y="168" on="1"/>
        <pt x="691" y="150" on="0"/>
        <pt x="609" y="61" on="1"/>
        <pt x="508" y="-46" on="1"/>
        <pt x="427" y="-46" on="1"/>
        <pt x="693" y="238" on="1"/>
        <pt x="693" y="369" on="1"/>
        <pt x="559" y="369" on="1"/>
        <pt x="559" y="250" on="1"/>
        <pt x="559" y="190" on="0"/>
        <pt x="494" y="131" on="0"/>
        <pt x="423" y="131" on="1"/>
        <pt x="369" y="131" on="0"/>
        <pt x="337" y="149" on="1"/>
        <pt x="314" y="70" on="0"/>
        <pt x="197" y="70" on="1"/>
        <pt x="46" y="70" on="0"/>
        <pt x="46" y="198" on="1"/>
        <pt x="46" y="377" on="1"/>
        <pt x="46" y="505" on="0"/>
        <pt x="196" y="505" on="1"/>
        <pt x="211" y="505" on="0"/>
        <pt x="237" y="502" on="0"/>
        <pt x="241" y="501" on="1"/>
        <pt x="241" y="446" on="1"/>
        <pt x="238" y="447" on="0"/>
        <pt x="213" y="450" on="0"/>
        <pt x="198" y="450" on="1"/>
        <pt x="153" y="450" on="0"/>
        <pt x="111" y="419" on="0"/>
        <pt x="108" y="390" on="1"/>
        <pt x="288" y="252" on="1"/>
        <pt x="288" y="305" on="1"/>
        <pt x="288" y="364" on="0"/>
        <pt x="353" y="423" on="0"/>
        <pt x="423" y="423" on="1"/>
        <pt x="498" y="423" on="1"/>
        <pt x="498" y="528" on="1"/>
        <pt x="498" y="562" on="0"/>
        <pt x="469" y="596" on="0"/>
        <pt x="426" y="596" on="1"/>
        <pt x="384" y="596" on="0"/>
        <pt x="355" y="562" on="0"/>
        <pt x="355" y="528" on="1"/>
        <pt x="355" y="509" on="0"/>
        <pt x="358" y="482" on="0"/>
        <pt x="359" y="479" on="1"/>
        <pt x="297" y="479" on="1"/>
        <pt x="296" y="483" on="0"/>
        <pt x="293" y="512" on="0"/>
        <pt x="293" y="529" on="1"/>
        <pt x="293" y="654" on="0"/>
        <pt x="426" y="654" on="1"/>
        <pt x="560" y="654" on="0"/>
        <pt x="560" y="529" on="1"/>
        <pt x="560" y="423" on="1"/>
        <pt x="693" y="423" on="1"/>
        <pt x="693" y="649" on="1"/>
      </contour>
      <contour>
        <pt x="242" y="595" on="1"/>
        <pt x="-23" y="595" on="1"/>
        <pt x="-23" y="649" on="1"/>
        <pt x="242" y="649" on="1"/>
      </contour>
      <contour>
        <pt x="498" y="369" on="1"/>
        <pt x="423" y="369" on="1"/>
        <pt x="379" y="369" on="0"/>
        <pt x="349" y="338" on="0"/>
        <pt x="349" y="304" on="1"/>
        <pt x="349" y="251" on="1"/>
        <pt x="349" y="218" on="0"/>
        <pt x="379" y="186" on="0"/>
        <pt x="423" y="186" on="1"/>
        <pt x="468" y="186" on="0"/>
        <pt x="498" y="217" on="0"/>
        <pt x="498" y="251" on="1"/>
      </contour>
      <contour>
        <pt x="247" y="125" on="0"/>
        <pt x="288" y="160" on="0"/>
        <pt x="289" y="196" on="1"/>
        <pt x="107" y="337" on="1"/>
        <pt x="107" y="199" on="1"/>
        <pt x="107" y="163" on="0"/>
        <pt x="148" y="125" on="0"/>
        <pt x="198" y="125" on="1"/>
      </contour>
    </TTGlyph>
    <TTGlyph name="dvB_DA" xMin="-24" yMin="-8" xMax="670" yMax="649">
      <contour>
        <pt x="387" y="445" on="0"/>
        <pt x="350" y="411" on="0"/>
        <pt x="350" y="377" on="1"/>
        <pt x="350" y="206" on="1"/>
        <pt x="350" y="131" on="0"/>
        <pt x="445" y="131" on="1"/>
        <pt x="487" y="131" on="0"/>
        <pt x="529" y="140" on="1"/>
        <pt x="529" y="237" on="1"/>
        <pt x="588" y="237" on="1"/>
        <pt x="588" y="-8" on="1"/>
        <pt x="529" y="-8" on="1"/>
        <pt x="529" y="83" on="1"/>
        <pt x="490" y="74" on="0"/>
        <pt x="442" y="74" on="1"/>
        <pt x="360" y="74" on="0"/>
        <pt x="321" y="115" on="1"/>
        <pt x="285" y="70" on="0"/>
        <pt x="198" y="70" on="1"/>
        <pt x="46" y="70" on="0"/>
        <pt x="46" y="198" on="1"/>
        <pt x="46" y="377" on="1"/>
        <pt x="46" y="505" on="0"/>
        <pt x="196" y="505" on="1"/>
        <pt x="211" y="505" on="0"/>
        <pt x="237" y="502" on="0"/>
        <pt x="241" y="501" on="1"/>
        <pt x="241" y="446" on="1"/>
        <pt x="238" y="447" on="0"/>
        <pt x="213" y="450" on="0"/>
        <pt x="198" y="450" on="1"/>
        <pt x="153" y="450" on="0"/>
        <pt x="111" y="419" on="0"/>
        <pt x="108" y="390" on="1"/>
        <pt x="288" y="252" on="1"/>
        <pt x="288" y="378" on="1"/>
        <pt x="288" y="441" on="0"/>
        <pt x="360" y="502" on="0"/>
        <pt x="435" y="502" on="1"/>
        <pt x="511" y="502" on="1"/>
        <pt x="511" y="595" on="1"/>
        <pt x="-24" y="595" on="1"/>
        <pt x="-24" y="649" on="1"/>
        <pt x="670" y="649" on="1"/>
        <pt x="670" y="595" on="1"/>
        <pt x="573" y="595" on="1"/>
        <pt x="573" y="445" on="1"/>
        <pt x="435" y="445" on="1"/>
      </contour>
      <contour>
        <pt x="243" y="125" on="0"/>
        <pt x="286" y="155" on="0"/>
        <pt x="289" y="184" on="1"/>
        <pt x="288" y="197" on="1"/>
        <pt x="107" y="337" on="1"/>
        <pt x="107" y="199" on="1"/>
        <pt x="107" y="163" on="0"/>
        <pt x="148" y="125" on="0"/>
        <pt x="199" y="125" on="1"/>
      </contour>
    </TTGlyph>
    <TTGlyph name="dvB_DHA" xMin="-24" yMin="0" xMax="740" yMax="649">
      <contour>
        <pt x="740" y="649" on="1"/>
        <pt x="740" y="595" on="1"/>
        <pt x="644" y="595" on="1"/>
        <pt x="644" y="0" on="1"/>
        <pt x="582" y="0" on="1"/>
        <pt x="582" y="77" on="1"/>
        <pt x="531" y="63" on="0"/>
        <pt x="469" y="63" on="1"/>
        <pt x="366" y="63" on="0"/>
        <pt x="320" y="115" on="1"/>
        <pt x="286" y="70" on="0"/>
        <pt x="197" y="70" on="1"/>
        <pt x="46" y="70" on="0"/>
        <pt x="46" y="198" on="1"/>
        <pt x="46" y="377" on="1"/>
        <pt x="46" y="505" on="0"/>
        <pt x="196" y="505" on="1"/>
        <pt x="211" y="505" on="0"/>
        <pt x="237" y="502" on="0"/>
        <pt x="241" y="501" on="1"/>
        <pt x="241" y="446" on="1"/>
        <pt x="238" y="447" on="0"/>
        <pt x="213" y="450" on="0"/>
        <pt x="198" y="450" on="1"/>
        <pt x="153" y="450" on="0"/>
        <pt x="111" y="419" on="0"/>
        <pt x="108" y="390" on="1"/>
        <pt x="289" y="251" on="1"/>
        <pt x="289" y="265" on="1"/>
        <pt x="289" y="343" on="0"/>
        <pt x="349" y="361" on="1"/>
        <pt x="318" y="372" on="0"/>
        <pt x="295" y="420" on="0"/>
        <pt x="295" y="458" on="1"/>
        <pt x="295" y="525" on="1"/>
        <pt x="295" y="546" on="0"/>
        <pt x="299" y="578" on="0"/>
        <pt x="303" y="593" on="0"/>
        <pt x="304" y="595" on="1"/>
        <pt x="-24" y="595" on="1"/>
        <pt x="-24" y="649" on="1"/>
        <pt x="466" y="649" on="1"/>
        <pt x="466" y="595" on="1"/>
        <pt x="367" y="595" on="1"/>
        <pt x="366" y="593" on="0"/>
        <pt x="361" y="576" on="0"/>
        <pt x="357" y="545" on="0"/>
        <pt x="357" y="525" on="1"/>
        <pt x="357" y="458" on="1"/>
        <pt x="357" y="424" on="0"/>
        <pt x="391" y="391" on="0"/>
        <pt x="438" y="390" on="1"/>
        <pt x="473" y="390" on="1"/>
        <pt x="473" y="332" on="1"/>
        <pt x="437" y="332" on="1"/>
        <pt x="389" y="332" on="0"/>
        <pt x="351" y="297" on="0"/>
        <pt x="351" y="264" on="1"/>
        <pt x="351" y="211" on="1"/>
        <pt x="351" y="161" on="0"/>
        <pt x="413" y="119" on="0"/>
        <pt x="472" y="119" on="1"/>
        <pt x="530" y="119" on="0"/>
        <pt x="582" y="134" on="1"/>
        <pt x="582" y="649" on="1"/>
      </contour>
      <contour>
        <pt x="247" y="125" on="0"/>
        <pt x="288" y="160" on="0"/>
        <pt x="289" y="196" on="1"/>
        <pt x="107" y="337" on="1"/>
        <pt x="107" y="199" on="1"/>
        <pt x="107" y="163" on="0"/>
        <pt x="148" y="125" on="0"/>
        <pt x="198" y="125" on="1"/>
      </contour>
    </TTGlyph>
    <TTGlyph name="dvB_DH_VA" xMin="-24" yMin="0" xMax="973" yMax="649">
      <contour>
        <pt x="973" y="649" on="1"/>
        <pt x="973" y="595" on="1"/>
        <pt x="876" y="595" on="1"/>
        <pt x="876" y="0" on="1"/>
        <pt x="815" y="0" on="1"/>
        <pt x="815" y="83" on="1"/>
        <pt x="805" y="79" on="0"/>
        <pt x="752" y="70" on="0"/>
        <pt x="721" y="70" on="1"/>
        <pt x="647" y="70" on="0"/>
        <pt x="609" y="105" on="1"/>
        <pt x="535" y="84" on="0"/>
        <pt x="472" y="84" on="1"/>
        <pt x="376" y="84" on="0"/>
        <pt x="329" y="128" on="1"/>
        <pt x="296" y="70" on="0"/>
        <pt x="197" y="70" on="1"/>
        <pt x="46" y="70" on="0"/>
        <pt x="46" y="198" on="1"/>
        <pt x="46" y="377" on="1"/>
        <pt x="46" y="505" on="0"/>
        <pt x="195" y="505" on="1"/>
        <pt x="211" y="505" on="0"/>
        <pt x="237" y="502" on="0"/>
        <pt x="241" y="501" on="1"/>
        <pt x="241" y="446" on="1"/>
        <pt x="238" y="447" on="0"/>
        <pt x="213" y="450" on="0"/>
        <pt x="198" y="450" on="1"/>
        <pt x="153" y="450" on="0"/>
        <pt x="111" y="419" on="0"/>
        <pt x="108" y="390" on="1"/>
        <pt x="288" y="252" on="1"/>
        <pt x="288" y="253" on="1"/>
        <pt x="289" y="253" on="1"/>
        <pt x="289" y="281" on="1"/>
        <pt x="289" y="361" on="0"/>
        <pt x="349" y="377" on="1"/>
        <pt x="318" y="389" on="0"/>
        <pt x="295" y="437" on="0"/>
        <pt x="295" y="474" on="1"/>
        <pt x="295" y="525" on="1"/>
        <pt x="295" y="546" on="0"/>
        <pt x="299" y="578" on="0"/>
        <pt x="302" y="593" on="0"/>
        <pt x="303" y="595" on="1"/>
        <pt x="-24" y="595" on="1"/>
        <pt x="-24" y="649" on="1"/>
        <pt x="438" y="649" on="1"/>
        <pt x="438" y="595" on="1"/>
        <pt x="366" y="595" on="1"/>
        <pt x="365" y="593" on="0"/>
        <pt x="361" y="577" on="0"/>
        <pt x="357" y="545" on="0"/>
        <pt x="357" y="525" on="1"/>
        <pt x="357" y="475" on="1"/>
        <pt x="357" y="441" on="0"/>
        <pt x="391" y="407" on="0"/>
        <pt x="438" y="406" on="1"/>
        <pt x="473" y="406" on="1"/>
        <pt x="473" y="349" on="1"/>
        <pt x="437" y="349" on="1"/>
        <pt x="389" y="349" on="0"/>
        <pt x="351" y="314" on="0"/>
        <pt x="351" y="280" on="1"/>
        <pt x="351" y="233" on="1"/>
        <pt x="351" y="183" on="0"/>
        <pt x="413" y="141" on="0"/>
        <pt x="473" y="141" on="1"/>
        <pt x="522" y="141" on="0"/>
        <pt x="579" y="154" on="1"/>
        <pt x="572" y="174" on="0"/>
        <pt x="572" y="201" on="1"/>
        <pt x="572" y="375" on="1"/>
        <pt x="572" y="436" on="0"/>
        <pt x="648" y="505" on="0"/>
        <pt x="721" y="505" on="1"/>
        <pt x="752" y="505" on="0"/>
        <pt x="805" y="496" on="0"/>
        <pt x="815" y="492" on="1"/>
        <pt x="815" y="595" on="1"/>
        <pt x="557" y="595" on="1"/>
        <pt x="557" y="649" on="1"/>
      </contour>
      <contour>
        <pt x="816" y="437" on="1"/>
        <pt x="806" y="441" on="0"/>
        <pt x="755" y="450" on="0"/>
        <pt x="726" y="450" on="1"/>
        <pt x="678" y="450" on="0"/>
        <pt x="633" y="408" on="0"/>
        <pt x="633" y="374" on="1"/>
        <pt x="633" y="202" on="1"/>
        <pt x="633" y="165" on="0"/>
        <pt x="677" y="126" on="0"/>
        <pt x="726" y="126" on="1"/>
        <pt x="756" y="126" on="0"/>
        <pt x="807" y="134" on="0"/>
        <pt x="816" y="138" on="1"/>
      </contour>
      <contour>
        <pt x="246" y="125" on="0"/>
        <pt x="287" y="160" on="0"/>
        <pt x="288" y="197" on="1"/>
        <pt x="107" y="337" on="1"/>
        <pt x="107" y="199" on="1"/>
        <pt x="107" y="163" on="0"/>
        <pt x="148" y="125" on="0"/>
        <pt x="198" y="125" on="1"/>
      </contour>
    </TTGlyph>
    <TTGlyph name="dvB_JA" xMin="-24" yMin="0" xMax="878" yMax="649">
      <contour>
        <pt x="878" y="595" on="1"/>
        <pt x="783" y="595" on="1"/>
        <pt x="783" y="0" on="1"/>
        <pt x="721" y="0" on="1"/>
        <pt x="721" y="440" on="1"/>
        <pt x="577" y="440" on="1"/>
        <pt x="578" y="438" on="0"/>
        <pt x="581" y="423" on="0"/>
        <pt x="585" y="391" on="0"/>
        <pt x="585" y="370" on="1"/>
        <pt x="585" y="197" on="1"/>
        <pt x="585" y="133" on="0"/>
        <pt x="506" y="63" on="0"/>
        <pt x="432" y="63" on="1"/>
        <pt x="401" y="63" on="0"/>
        <pt x="315" y="79" on="0"/>
        <pt x="287" y="87" on="1"/>
        <pt x="253" y="70" on="0"/>
        <pt x="197" y="70" on="1"/>
        <pt x="46" y="70" on="0"/>
        <pt x="46" y="198" on="1"/>
        <pt x="46" y="377" on="1"/>
        <pt x="46" y="505" on="0"/>
        <pt x="197" y="505" on="1"/>
        <pt x="275" y="505" on="0"/>
        <pt x="347" y="441" on="0"/>
        <pt x="347" y="377" on="1"/>
        <pt x="347" y="198" on="1"/>
        <pt x="347" y="161" on="0"/>
        <pt x="335" y="134" on="1"/>
        <pt x="399" y="120" on="0"/>
        <pt x="431" y="120" on="1"/>
        <pt x="523" y="120" on="0"/>
        <pt x="523" y="198" on="1"/>
        <pt x="523" y="368" on="1"/>
        <pt x="523" y="388" on="0"/>
        <pt x="519" y="420" on="0"/>
        <pt x="515" y="437" on="0"/>
        <pt x="514" y="439" on="1"/>
        <pt x="414" y="439" on="1"/>
        <pt x="414" y="494" on="1"/>
        <pt x="721" y="494" on="1"/>
        <pt x="721" y="595" on="1"/>
        <pt x="-24" y="595" on="1"/>
        <pt x="-24" y="649" on="1"/>
        <pt x="878" y="649" on="1"/>
      </contour>
      <contour>
        <pt x="139" y="450" on="0"/>
        <pt x="119" y="419" on="1"/>
        <pt x="289" y="214" on="1"/>
        <pt x="289" y="375" on="1"/>
        <pt x="289" y="450" on="0"/>
        <pt x="198" y="450" on="1"/>
      </contour>
      <contour>
        <pt x="231" y="125" on="0"/>
        <pt x="270" y="142" on="0"/>
        <pt x="279" y="158" on="1"/>
        <pt x="107" y="366" on="1"/>
        <pt x="107" y="199" on="1"/>
        <pt x="107" y="163" on="0"/>
        <pt x="148" y="125" on="0"/>
        <pt x="198" y="125" on="1"/>
      </contour>
    </TTGlyph>
    <TTGlyph name="dvB_JHA" xMin="-24" yMin="-60" xMax="958" yMax="649">
      <contour>
        <pt x="958" y="595" on="1"/>
        <pt x="862" y="595" on="1"/>
        <pt x="862" y="0" on="1"/>
        <pt x="800" y="0" on="1"/>
        <pt x="800" y="260" on="1"/>
        <pt x="651" y="260" on="1"/>
        <pt x="680" y="239" on="0"/>
        <pt x="680" y="189" on="1"/>
        <pt x="680" y="143" on="1"/>
        <pt x="680" y="81" on="0"/>
        <pt x="610" y="20" on="0"/>
        <pt x="533" y="20" on="1"/>
        <pt x="480" y="20" on="0"/>
        <pt x="447" y="29" on="1"/>
        <pt x="447" y="-60" on="1"/>
        <pt x="388" y="-60" on="1"/>
        <pt x="388" y="157" on="1"/>
        <pt x="447" y="157" on="1"/>
        <pt x="447" y="85" on="1"/>
        <pt x="482" y="76" on="0"/>
        <pt x="528" y="76" on="1"/>
        <pt x="619" y="76" on="0"/>
        <pt x="619" y="145" on="1"/>
        <pt x="619" y="189" on="1"/>
        <pt x="619" y="222" on="0"/>
        <pt x="582" y="257" on="0"/>
        <pt x="536" y="257" on="1"/>
        <pt x="523" y="257" on="1"/>
        <pt x="522" y="257" on="1"/>
        <pt x="345" y="257" on="1"/>
        <pt x="345" y="192" on="1"/>
        <pt x="345" y="131" on="0"/>
        <pt x="275" y="67" on="0"/>
        <pt x="197" y="67" on="1"/>
        <pt x="46" y="67" on="0"/>
        <pt x="46" y="195" on="1"/>
        <pt x="46" y="374" on="1"/>
        <pt x="46" y="502" on="0"/>
        <pt x="196" y="502" on="1"/>
        <pt x="213" y="502" on="0"/>
        <pt x="246" y="498" on="0"/>
        <pt x="251" y="497" on="1"/>
        <pt x="251" y="442" on="1"/>
        <pt x="247" y="443" on="0"/>
        <pt x="216" y="447" on="0"/>
        <pt x="198" y="447" on="1"/>
        <pt x="153" y="447" on="0"/>
        <pt x="111" y="416" on="0"/>
        <pt x="108" y="387" on="1"/>
        <pt x="289" y="247" on="1"/>
        <pt x="289" y="312" on="1"/>
        <pt x="394" y="312" on="1"/>
        <pt x="379" y="339" on="0"/>
        <pt x="379" y="378" on="1"/>
        <pt x="379" y="385" on="1"/>
        <pt x="379" y="505" on="0"/>
        <pt x="524" y="505" on="1"/>
        <pt x="611" y="505" on="1"/>
        <pt x="611" y="595" on="1"/>
        <pt x="-24" y="595" on="1"/>
        <pt x="-24" y="649" on="1"/>
        <pt x="958" y="649" on="1"/>
      </contour>
      <contour>
        <pt x="800" y="595" on="1"/>
        <pt x="672" y="595" on="1"/>
        <pt x="672" y="449" on="1"/>
        <pt x="524" y="449" on="1"/>
        <pt x="477" y="449" on="0"/>
        <pt x="441" y="417" on="0"/>
        <pt x="441" y="384" on="1"/>
        <pt x="441" y="378" on="1"/>
        <pt x="441" y="346" on="0"/>
        <pt x="476" y="313" on="0"/>
        <pt x="522" y="312" on="1"/>
        <pt x="800" y="312" on="1"/>
      </contour>
      <contour>
        <pt x="247" y="122" on="0"/>
        <pt x="288" y="157" on="0"/>
        <pt x="289" y="193" on="1"/>
        <pt x="107" y="334" on="1"/>
        <pt x="107" y="196" on="1"/>
        <pt x="107" y="159" on="0"/>
        <pt x="147" y="122" on="0"/>
        <pt x="198" y="122" on="1"/>
      </contour>
    </TTGlyph>
    <TTGlyph name="dvB_J_YA" xMin="46" yMin="0" xMax="1164" yMax="649">
      <contour>
        <pt x="265" y="595" on="1"/>
        <pt x="63" y="595" on="1"/>
        <pt x="63" y="649" on="1"/>
        <pt x="265" y="649" on="1"/>
      </contour>
      <contour>
        <pt x="1164" y="595" on="1"/>
        <pt x="1067" y="595" on="1"/>
        <pt x="1067" y="0" on="1"/>
        <pt x="1005" y="0" on="1"/>
        <pt x="1005" y="97" on="1"/>
        <pt x="959" y="85" on="0"/>
        <pt x="894" y="85" on="1"/>
        <pt x="698" y="85" on="0"/>
        <pt x="698" y="256" on="1"/>
        <pt x="698" y="387" on="1"/>
        <pt x="698" y="420" on="0"/>
        <pt x="661" y="440" on="0"/>
        <pt x="615" y="440" on="1"/>
        <pt x="577" y="440" on="1"/>
        <pt x="578" y="438" on="0"/>
        <pt x="581" y="423" on="0"/>
        <pt x="585" y="391" on="0"/>
        <pt x="585" y="370" on="1"/>
        <pt x="585" y="197" on="1"/>
        <pt x="585" y="133" on="0"/>
        <pt x="506" y="63" on="0"/>
        <pt x="432" y="63" on="1"/>
        <pt x="400" y="63" on="0"/>
        <pt x="310" y="80" on="0"/>
        <pt x="283" y="88" on="1"/>
        <pt x="294" y="144" on="1"/>
        <pt x="324" y="136" on="0"/>
        <pt x="407" y="120" on="0"/>
        <pt x="431" y="120" on="1"/>
        <pt x="523" y="120" on="0"/>
        <pt x="523" y="198" on="1"/>
        <pt x="523" y="368" on="1"/>
        <pt x="523" y="388" on="0"/>
        <pt x="519" y="420" on="0"/>
        <pt x="515" y="437" on="0"/>
        <pt x="514" y="439" on="1"/>
        <pt x="414" y="439" on="1"/>
        <pt x="414" y="494" on="1"/>
        <pt x="631" y="494" on="1"/>
        <pt x="689" y="494" on="0"/>
        <pt x="749" y="453" on="0"/>
        <pt x="752" y="402" on="1"/>
        <pt x="795" y="405" on="0"/>
        <pt x="828" y="437" on="0"/>
        <pt x="828" y="474" on="1"/>
        <pt x="828" y="525" on="1"/>
        <pt x="828" y="545" on="0"/>
        <pt x="824" y="577" on="0"/>
        <pt x="821" y="593" on="0"/>
        <pt x="820" y="595" on="1"/>
        <pt x="291" y="595" on="1"/>
        <pt x="291" y="649" on="1"/>
        <pt x="1164" y="649" on="1"/>
      </contour>
      <contour>
        <pt x="1005" y="595" on="1"/>
        <pt x="881" y="595" on="1"/>
        <pt x="882" y="593" on="0"/>
        <pt x="885" y="577" on="0"/>
        <pt x="889" y="545" on="0"/>
        <pt x="889" y="525" on="1"/>
        <pt x="889" y="469" on="1"/>
        <pt x="889" y="353" on="0"/>
        <pt x="759" y="351" on="1"/>
        <pt x="759" y="260" on="1"/>
        <pt x="759" y="200" on="0"/>
        <pt x="824" y="143" on="0"/>
        <pt x="895" y="143" on="1"/>
        <pt x="950" y="143" on="0"/>
        <pt x="1005" y="154" on="1"/>
      </contour>
      <contour>
        <pt x="231" y="425" on="0"/>
        <pt x="197" y="425" on="1"/>
        <pt x="156" y="425" on="0"/>
        <pt x="131" y="421" on="1"/>
        <pt x="129" y="422" on="1"/>
        <pt x="137" y="450" on="0"/>
        <pt x="188" y="447" on="1"/>
        <pt x="226" y="447" on="0"/>
        <pt x="258" y="422" on="1"/>
      </contour>
      <contour>
        <pt x="107" y="194" on="0"/>
        <pt x="122" y="165" on="0"/>
        <pt x="136" y="153" on="1"/>
        <pt x="46" y="166" on="0"/>
        <pt x="46" y="215" on="1"/>
        <pt x="46" y="360" on="1"/>
        <pt x="46" y="409" on="0"/>
        <pt x="131" y="421" on="1"/>
        <pt x="146" y="409" on="0"/>
        <pt x="289" y="230" on="0"/>
        <pt x="289" y="224" on="1"/>
        <pt x="289" y="365" on="1"/>
        <pt x="289" y="378" on="0"/>
        <pt x="272" y="409" on="0"/>
        <pt x="258" y="422" on="1"/>
        <pt x="347" y="411" on="0"/>
        <pt x="347" y="360" on="1"/>
        <pt x="347" y="215" on="1"/>
        <pt x="347" y="168" on="0"/>
        <pt x="269" y="155" on="1"/>
        <pt x="263" y="155" on="0"/>
        <pt x="107" y="350" on="0"/>
        <pt x="107" y="356" on="1"/>
        <pt x="107" y="209" on="1"/>
      </contour>
      <contour>
        <pt x="236" y="150" on="0"/>
        <pt x="269" y="155" on="1"/>
        <pt x="265" y="140" on="0"/>
        <pt x="236" y="127" on="0"/>
        <pt x="208" y="128" on="1"/>
        <pt x="164" y="128" on="0"/>
        <pt x="136" y="153" on="1"/>
        <pt x="162" y="150" on="0"/>
        <pt x="197" y="150" on="1"/>
      </contour>
    </TTGlyph>
    <TTGlyph name="dvB_JxA" xMin="-24" yMin="-69" xMax="880" yMax="649">
      <contour>
        <pt x="880" y="595" on="1"/>
        <pt x="783" y="595" on="1"/>
        <pt x="783" y="0" on="1"/>
        <pt x="721" y="0" on="1"/>
        <pt x="721" y="440" on="1"/>
        <pt x="577" y="440" on="1"/>
        <pt x="578" y="438" on="0"/>
        <pt x="581" y="423" on="0"/>
        <pt x="585" y="391" on="0"/>
        <pt x="585" y="370" on="1"/>
        <pt x="585" y="197" on="1"/>
        <pt x="585" y="133" on="0"/>
        <pt x="506" y="63" on="0"/>
        <pt x="432" y="63" on="1"/>
        <pt x="401" y="63" on="0"/>
        <pt x="315" y="79" on="0"/>
        <pt x="287" y="87" on="1"/>
        <pt x="253" y="70" on="0"/>
        <pt x="197" y="70" on="1"/>
        <pt x="46" y="70" on="0"/>
        <pt x="46" y="198" on="1"/>
        <pt x="46" y="377" on="1"/>
        <pt x="46" y="505" on="0"/>
        <pt x="197" y="505" on="1"/>
        <pt x="275" y="505" on="0"/>
        <pt x="347" y="441" on="0"/>
        <pt x="347" y="377" on="1"/>
        <pt x="347" y="198" on="1"/>
        <pt x="347" y="161" on="0"/>
        <pt x="335" y="134" on="1"/>
        <pt x="399" y="120" on="0"/>
        <pt x="431" y="120" on="1"/>
        <pt x="523" y="120" on="0"/>
        <pt x="523" y="198" on="1"/>
        <pt x="523" y="368" on="1"/>
        <pt x="523" y="388" on="0"/>
        <pt x="519" y="420" on="0"/>
        <pt x="515" y="437" on="0"/>
        <pt x="514" y="439" on="1"/>
        <pt x="414" y="439" on="1"/>
        <pt x="414" y="494" on="1"/>
        <pt x="721" y="494" on="1"/>
        <pt x="721" y="595" on="1"/>
        <pt x="-24" y="595" on="1"/>
        <pt x="-24" y="649" on="1"/>
        <pt x="880" y="649" on="1"/>
      </contour>
      <contour>
        <pt x="139" y="450" on="0"/>
        <pt x="119" y="419" on="1"/>
        <pt x="289" y="214" on="1"/>
        <pt x="289" y="375" on="1"/>
        <pt x="289" y="450" on="0"/>
        <pt x="198" y="450" on="1"/>
      </contour>
      <contour>
        <pt x="231" y="125" on="0"/>
        <pt x="270" y="142" on="0"/>
        <pt x="279" y="158" on="1"/>
        <pt x="107" y="366" on="1"/>
        <pt x="107" y="199" on="1"/>
        <pt x="107" y="163" on="0"/>
        <pt x="148" y="125" on="0"/>
        <pt x="198" y="125" on="1"/>
      </contour>
      <contour>
        <pt x="345" y="12" on="0"/>
        <pt x="345" y="-28" on="1"/>
        <pt x="345" y="-69" on="0"/>
        <pt x="304" y="-69" on="1"/>
        <pt x="264" y="-69" on="0"/>
        <pt x="264" y="-28" on="1"/>
        <pt x="264" y="12" on="0"/>
        <pt x="305" y="12" on="1"/>
      </contour>
    </TTGlyph>
    <TTGlyph name="dvB_LA" xMin="-24" yMin="0" xMax="880" yMax="649">
      <contour>
        <pt x="880" y="595" on="1"/>
        <pt x="783" y="595" on="1"/>
        <pt x="783" y="0" on="1"/>
        <pt x="722" y="0" on="1"/>
        <pt x="722" y="408" on="1"/>
        <pt x="691" y="422" on="0"/>
        <pt x="649" y="422" on="1"/>
        <pt x="607" y="422" on="0"/>
        <pt x="568" y="384" on="0"/>
        <pt x="568" y="352" on="1"/>
        <pt x="568" y="207" on="1"/>
        <pt x="506" y="207" on="1"/>
        <pt x="506" y="352" on="1"/>
        <pt x="506" y="385" on="0"/>
        <pt x="472" y="422" on="0"/>
        <pt x="429" y="422" on="1"/>
        <pt x="385" y="422" on="0"/>
        <pt x="352" y="384" on="0"/>
        <pt x="352" y="349" on="1"/>
        <pt x="352" y="153" on="1"/>
        <pt x="352" y="107" on="0"/>
        <pt x="396" y="56" on="0"/>
        <pt x="455" y="56" on="1"/>
        <pt x="485" y="56" on="0"/>
        <pt x="513" y="60" on="1"/>
        <pt x="513" y="5" on="1"/>
        <pt x="486" y="0" on="0"/>
        <pt x="454" y="0" on="1"/>
        <pt x="325" y="0" on="0"/>
        <pt x="298" y="93" on="1"/>
        <pt x="261" y="70" on="0"/>
        <pt x="198" y="70" on="1"/>
        <pt x="46" y="70" on="0"/>
        <pt x="46" y="198" on="1"/>
        <pt x="46" y="377" on="1"/>
        <pt x="46" y="505" on="0"/>
        <pt x="196" y="505" on="1"/>
        <pt x="211" y="505" on="0"/>
        <pt x="237" y="502" on="0"/>
        <pt x="241" y="501" on="1"/>
        <pt x="241" y="446" on="1"/>
        <pt x="238" y="447" on="0"/>
        <pt x="213" y="450" on="0"/>
        <pt x="198" y="450" on="1"/>
        <pt x="153" y="450" on="0"/>
        <pt x="111" y="419" on="0"/>
        <pt x="108" y="390" on="1"/>
        <pt x="290" y="250" on="1"/>
        <pt x="290" y="350" on="1"/>
        <pt x="290" y="411" on="0"/>
        <pt x="359" y="479" on="0"/>
        <pt x="428" y="479" on="1"/>
        <pt x="504" y="479" on="0"/>
        <pt x="536" y="434" on="1"/>
        <pt x="570" y="479" on="0"/>
        <pt x="647" y="479" on="1"/>
        <pt x="686" y="479" on="0"/>
        <pt x="722" y="465" on="1"/>
        <pt x="722" y="595" on="1"/>
        <pt x="-24" y="595" on="1"/>
        <pt x="-24" y="649" on="1"/>
        <pt x="880" y="649" on="1"/>
      </contour>
      <contour>
        <pt x="247" y="125" on="0"/>
        <pt x="289" y="160" on="0"/>
        <pt x="290" y="196" on="1"/>
        <pt x="107" y="337" on="1"/>
        <pt x="107" y="199" on="1"/>
        <pt x="107" y="163" on="0"/>
        <pt x="148" y="125" on="0"/>
        <pt x="199" y="125" on="1"/>
      </contour>
    </TTGlyph>
    <TTGlyph name="dvB_L_YA" xMin="-24" yMin="0" xMax="1172" yMax="649">
      <contour>
        <pt x="1172" y="595" on="1"/>
        <pt x="1075" y="595" on="1"/>
        <pt x="1075" y="0" on="1"/>
        <pt x="1013" y="0" on="1"/>
        <pt x="1013" y="97" on="1"/>
        <pt x="967" y="85" on="0"/>
        <pt x="901" y="85" on="1"/>
        <pt x="813" y="85" on="0"/>
        <pt x="705" y="163" on="0"/>
        <pt x="705" y="256" on="1"/>
        <pt x="705" y="349" on="1"/>
        <pt x="705" y="387" on="0"/>
        <pt x="677" y="422" on="0"/>
        <pt x="633" y="422" on="1"/>
        <pt x="593" y="422" on="0"/>
        <pt x="564" y="385" on="0"/>
        <pt x="564" y="349" on="1"/>
        <pt x="564" y="207" on="1"/>
        <pt x="502" y="207" on="1"/>
        <pt x="502" y="349" on="1"/>
        <pt x="502" y="384" on="0"/>
        <pt x="469" y="422" on="0"/>
        <pt x="425" y="422" on="1"/>
        <pt x="381" y="422" on="0"/>
        <pt x="349" y="384" on="0"/>
        <pt x="349" y="349" on="1"/>
        <pt x="349" y="153" on="1"/>
        <pt x="349" y="106" on="0"/>
        <pt x="393" y="56" on="0"/>
        <pt x="452" y="56" on="1"/>
        <pt x="511" y="56" on="1"/>
        <pt x="511" y="1" on="1"/>
        <pt x="508" y="0" on="0"/>
        <pt x="450" y="0" on="1"/>
        <pt x="323" y="0" on="0"/>
        <pt x="296" y="93" on="1"/>
        <pt x="259" y="70" on="0"/>
        <pt x="197" y="70" on="1"/>
        <pt x="46" y="70" on="0"/>
        <pt x="46" y="198" on="1"/>
        <pt x="46" y="377" on="1"/>
        <pt x="46" y="505" on="0"/>
        <pt x="195" y="505" on="1"/>
        <pt x="211" y="505" on="0"/>
        <pt x="237" y="502" on="0"/>
        <pt x="241" y="501" on="1"/>
        <pt x="241" y="446" on="1"/>
        <pt x="238" y="447" on="0"/>
        <pt x="213" y="450" on="0"/>
        <pt x="198" y="450" on="1"/>
        <pt x="153" y="450" on="0"/>
        <pt x="111" y="419" on="0"/>
        <pt x="108" y="390" on="1"/>
        <pt x="288" y="252" on="1"/>
        <pt x="288" y="350" on="1"/>
        <pt x="288" y="412" on="0"/>
        <pt x="356" y="479" on="0"/>
        <pt x="425" y="479" on="1"/>
        <pt x="464" y="479" on="0"/>
        <pt x="518" y="455" on="0"/>
        <pt x="532" y="434" on="1"/>
        <pt x="566" y="479" on="0"/>
        <pt x="632" y="479" on="1"/>
        <pt x="687" y="479" on="0"/>
        <pt x="752" y="430" on="0"/>
        <pt x="761" y="385" on="1"/>
        <pt x="803" y="388" on="0"/>
        <pt x="836" y="419" on="0"/>
        <pt x="836" y="457" on="1"/>
        <pt x="836" y="525" on="1"/>
        <pt x="836" y="545" on="0"/>
        <pt x="832" y="577" on="0"/>
        <pt x="829" y="593" on="0"/>
        <pt x="828" y="595" on="1"/>
        <pt x="-24" y="595" on="1"/>
        <pt x="-24" y="649" on="1"/>
        <pt x="1172" y="649" on="1"/>
      </contour>
      <contour>
        <pt x="1013" y="595" on="1"/>
        <pt x="889" y="595" on="1"/>
        <pt x="890" y="593" on="0"/>
        <pt x="893" y="577" on="0"/>
        <pt x="897" y="545" on="0"/>
        <pt x="897" y="525" on="1"/>
        <pt x="897" y="451" on="1"/>
        <pt x="897" y="391" on="0"/>
        <pt x="829" y="334" on="0"/>
        <pt x="767" y="334" on="1"/>
        <pt x="767" y="260" on="1"/>
        <pt x="767" y="200" on="0"/>
        <pt x="832" y="143" on="0"/>
        <pt x="903" y="143" on="1"/>
        <pt x="958" y="143" on="0"/>
        <pt x="1013" y="154" on="1"/>
      </contour>
      <contour>
        <pt x="246" y="125" on="0"/>
        <pt x="287" y="160" on="0"/>
        <pt x="288" y="197" on="1"/>
        <pt x="107" y="337" on="1"/>
        <pt x="107" y="199" on="1"/>
        <pt x="107" y="163" on="0"/>
        <pt x="148" y="125" on="0"/>
        <pt x="198" y="125" on="1"/>
      </contour>
    </TTGlyph>
    <TTGlyph name="dvB_NA" xMin="-24" yMin="0" xMax="834" yMax="649">
      <contour>
        <pt x="834" y="595" on="1"/>
        <pt x="737" y="595" on="1"/>
        <pt x="737" y="0" on="1"/>
        <pt x="675" y="0" on="1"/>
        <pt x="675" y="423" on="1"/>
        <pt x="536" y="423" on="1"/>
        <pt x="536" y="422" on="0"/>
        <pt x="547" y="390" on="0"/>
        <pt x="547" y="351" on="1"/>
        <pt x="547" y="182" on="1"/>
        <pt x="547" y="61" on="0"/>
        <pt x="417" y="61" on="1"/>
        <pt x="340" y="61" on="0"/>
        <pt x="307" y="103" on="1"/>
        <pt x="271" y="70" on="0"/>
        <pt x="196" y="70" on="1"/>
        <pt x="46" y="70" on="0"/>
        <pt x="46" y="198" on="1"/>
        <pt x="46" y="375" on="1"/>
        <pt x="46" y="503" on="0"/>
        <pt x="196" y="503" on="1"/>
        <pt x="289" y="503" on="0"/>
        <pt x="322" y="453" on="1"/>
        <pt x="356" y="479" on="0"/>
        <pt x="417" y="479" on="1"/>
        <pt x="675" y="479" on="1"/>
        <pt x="675" y="595" on="1"/>
        <pt x="-24" y="595" on="1"/>
        <pt x="-24" y="649" on="1"/>
        <pt x="834" y="649" on="1"/>
      </contour>
      <contour>
        <pt x="152" y="448" on="0"/>
        <pt x="111" y="418" on="0"/>
        <pt x="108" y="389" on="1"/>
        <pt x="285" y="252" on="1"/>
        <pt x="285" y="374" on="1"/>
        <pt x="285" y="412" on="0"/>
        <pt x="245" y="448" on="0"/>
        <pt x="196" y="448" on="1"/>
      </contour>
      <contour>
        <pt x="487" y="350" on="1"/>
        <pt x="487" y="378" on="0"/>
        <pt x="478" y="417" on="0"/>
        <pt x="475" y="423" on="1"/>
        <pt x="417" y="423" on="1"/>
        <pt x="378" y="423" on="0"/>
        <pt x="346" y="391" on="0"/>
        <pt x="346" y="358" on="1"/>
        <pt x="346" y="182" on="1"/>
        <pt x="346" y="150" on="0"/>
        <pt x="378" y="118" on="0"/>
        <pt x="417" y="118" on="1"/>
        <pt x="456" y="118" on="0"/>
        <pt x="487" y="150" on="0"/>
        <pt x="487" y="182" on="1"/>
      </contour>
      <contour>
        <pt x="244" y="125" on="0"/>
        <pt x="285" y="161" on="0"/>
        <pt x="285" y="198" on="1"/>
        <pt x="107" y="335" on="1"/>
        <pt x="107" y="199" on="1"/>
        <pt x="107" y="163" on="0"/>
        <pt x="146" y="125" on="0"/>
        <pt x="196" y="125" on="1"/>
      </contour>
    </TTGlyph>
    <TTGlyph name="dvB_R" xMin="-24" yMin="-67" xMax="372" yMax="649">
      <contour>
        <pt x="372" y="649" on="1"/>
        <pt x="372" y="595" on="1"/>
        <pt x="-24" y="595" on="1"/>
        <pt x="-24" y="649" on="1"/>
      </contour>
      <contour>
        <pt x="279" y="505" on="0"/>
        <pt x="351" y="441" on="0"/>
        <pt x="351" y="377" on="1"/>
        <pt x="351" y="209" on="1"/>
        <pt x="351" y="180" on="0"/>
        <pt x="336" y="139" on="0"/>
        <pt x="307" y="105" on="0"/>
        <pt x="277" y="77" on="1"/>
        <pt x="125" y="-67" on="1"/>
        <pt x="41" y="-67" on="1"/>
        <pt x="201" y="82" on="1"/>
        <pt x="51" y="83" on="0"/>
        <pt x="51" y="209" on="1"/>
        <pt x="51" y="377" on="1"/>
        <pt x="51" y="505" on="0"/>
        <pt x="202" y="505" on="1"/>
      </contour>
      <contour>
        <pt x="157" y="450" on="0"/>
        <pt x="115" y="420" on="0"/>
        <pt x="112" y="391" on="1"/>
        <pt x="293" y="260" on="1"/>
        <pt x="293" y="376" on="1"/>
        <pt x="293" y="414" on="0"/>
        <pt x="252" y="450" on="0"/>
        <pt x="202" y="450" on="1"/>
      </contour>
      <contour>
        <pt x="250" y="136" on="0"/>
        <pt x="292" y="171" on="0"/>
        <pt x="293" y="207" on="1"/>
        <pt x="111" y="338" on="1"/>
        <pt x="111" y="210" on="1"/>
        <pt x="111" y="174" on="0"/>
        <pt x="152" y="136" on="0"/>
        <pt x="202" y="136" on="1"/>
      </contour>
    </TTGlyph>
    <TTGlyph name="dvB_RA" xMin="-24" yMin="-53" xMax="446" yMax="649">
      <contour>
        <pt x="446" y="649" on="1"/>
        <pt x="446" y="595" on="1"/>
        <pt x="349" y="595" on="1"/>
        <pt x="349" y="0" on="1"/>
        <pt x="291" y="0" on="1"/>
        <pt x="291" y="110" on="1"/>
        <pt x="290" y="109" on="0"/>
        <pt x="287" y="109" on="0"/>
        <pt x="286" y="108" on="1"/>
        <pt x="122" y="-53" on="1"/>
        <pt x="41" y="-53" on="1"/>
        <pt x="197" y="97" on="1"/>
        <pt x="51" y="100" on="0"/>
        <pt x="51" y="222" on="1"/>
        <pt x="51" y="377" on="1"/>
        <pt x="51" y="439" on="0"/>
        <pt x="129" y="505" on="0"/>
        <pt x="204" y="505" on="1"/>
        <pt x="255" y="505" on="0"/>
        <pt x="291" y="492" on="1"/>
        <pt x="291" y="595" on="1"/>
        <pt x="-24" y="595" on="1"/>
        <pt x="-24" y="649" on="1"/>
      </contour>
      <contour>
        <pt x="122" y="450" on="0"/>
        <pt x="112" y="392" on="1"/>
        <pt x="291" y="250" on="1"/>
        <pt x="291" y="437" on="1"/>
        <pt x="255" y="450" on="0"/>
        <pt x="207" y="450" on="1"/>
      </contour>
      <contour>
        <pt x="111" y="148" on="0"/>
        <pt x="207" y="148" on="1"/>
        <pt x="247" y="148" on="0"/>
        <pt x="291" y="160" on="1"/>
        <pt x="291" y="195" on="1"/>
        <pt x="111" y="339" on="1"/>
        <pt x="111" y="223" on="1"/>
      </contour>
    </TTGlyph>
    <TTGlyph name="dvB_SA" xMin="-24" yMin="-5" xMax="852" yMax="649">
      <contour>
        <pt x="852" y="595" on="1"/>
        <pt x="755" y="595" on="1"/>
        <pt x="755" y="0" on="1"/>
        <pt x="693" y="0" on="1"/>
        <pt x="693" y="291" on="1"/>
        <pt x="532" y="291" on="1"/>
        <pt x="497" y="254" on="0"/>
        <pt x="421" y="254" on="1"/>
        <pt x="389" y="254" on="0"/>
        <pt x="351" y="263" on="1"/>
        <pt x="351" y="141" on="1"/>
        <pt x="351" y="95" on="0"/>
        <pt x="408" y="52" on="0"/>
        <pt x="463" y="52" on="1"/>
        <pt x="502" y="52" on="0"/>
        <pt x="554" y="61" on="0"/>
        <pt x="586" y="70" on="1"/>
        <pt x="586" y="12" on="1"/>
        <pt x="525" y="-5" on="0"/>
        <pt x="459" y="-5" on="1"/>
        <pt x="395" y="-5" on="0"/>
        <pt x="310" y="44" on="0"/>
        <pt x="296" y="92" on="1"/>
        <pt x="258" y="70" on="0"/>
        <pt x="198" y="70" on="1"/>
        <pt x="46" y="70" on="0"/>
        <pt x="46" y="198" on="1"/>
        <pt x="46" y="377" on="1"/>
        <pt x="46" y="505" on="0"/>
        <pt x="196" y="505" on="1"/>
        <pt x="209" y="505" on="0"/>
        <pt x="227" y="503" on="0"/>
        <pt x="230" y="502" on="1"/>
        <pt x="230" y="447" on="1"/>
        <pt x="227" y="448" on="0"/>
        <pt x="210" y="450" on="0"/>
        <pt x="198" y="450" on="1"/>
        <pt x="153" y="450" on="0"/>
        <pt x="111" y="419" on="0"/>
        <pt x="108" y="390" on="1"/>
        <pt x="289" y="251" on="1"/>
        <pt x="289" y="450" on="1"/>
        <pt x="351" y="450" on="1"/>
        <pt x="351" y="319" on="1"/>
        <pt x="387" y="310" on="0"/>
        <pt x="418" y="310" on="1"/>
        <pt x="465" y="310" on="0"/>
        <pt x="503" y="349" on="0"/>
        <pt x="503" y="383" on="1"/>
        <pt x="503" y="525" on="1"/>
        <pt x="503" y="545" on="0"/>
        <pt x="499" y="577" on="0"/>
        <pt x="495" y="593" on="0"/>
        <pt x="494" y="595" on="1"/>
        <pt x="-24" y="595" on="1"/>
        <pt x="-24" y="649" on="1"/>
        <pt x="852" y="649" on="1"/>
      </contour>
      <contour>
        <pt x="693" y="595" on="1"/>
        <pt x="556" y="595" on="1"/>
        <pt x="557" y="593" on="0"/>
        <pt x="560" y="578" on="0"/>
        <pt x="564" y="546" on="0"/>
        <pt x="564" y="525" on="1"/>
        <pt x="564" y="383" on="1"/>
        <pt x="564" y="361" on="0"/>
        <pt x="560" y="345" on="1"/>
        <pt x="693" y="345" on="1"/>
      </contour>
      <contour>
        <pt x="243" y="125" on="0"/>
        <pt x="285" y="154" on="0"/>
        <pt x="289" y="183" on="1"/>
        <pt x="289" y="196" on="1"/>
        <pt x="107" y="337" on="1"/>
        <pt x="107" y="199" on="1"/>
        <pt x="107" y="163" on="0"/>
        <pt x="148" y="125" on="0"/>
        <pt x="199" y="125" on="1"/>
      </contour>
    </TTGlyph>
    <TTGlyph name="dvB_SHA" xMin="-24" yMin="-4" xMax="846" yMax="654">
      <contour>
        <pt x="511" y="654" on="0"/>
        <pt x="584" y="586" on="0"/>
        <pt x="584" y="525" on="1"/>
        <pt x="584" y="383" on="1"/>
        <pt x="584" y="321" on="0"/>
        <pt x="513" y="255" on="0"/>
        <pt x="440" y="255" on="1"/>
        <pt x="393" y="255" on="0"/>
        <pt x="353" y="269" on="1"/>
        <pt x="353" y="144" on="1"/>
        <pt x="353" y="99" on="0"/>
        <pt x="412" y="53" on="0"/>
        <pt x="467" y="53" on="1"/>
        <pt x="498" y="53" on="0"/>
        <pt x="550" y="62" on="0"/>
        <pt x="582" y="71" on="1"/>
        <pt x="582" y="13" on="1"/>
        <pt x="553" y="5" on="0"/>
        <pt x="499" y="-4" on="0"/>
        <pt x="463" y="-4" on="1"/>
        <pt x="401" y="-4" on="0"/>
        <pt x="314" y="48" on="0"/>
        <pt x="299" y="94" on="1"/>
        <pt x="263" y="70" on="0"/>
        <pt x="198" y="70" on="1"/>
        <pt x="46" y="70" on="0"/>
        <pt x="46" y="198" on="1"/>
        <pt x="46" y="377" on="1"/>
        <pt x="46" y="505" on="0"/>
        <pt x="196" y="505" on="1"/>
        <pt x="211" y="505" on="0"/>
        <pt x="237" y="502" on="0"/>
        <pt x="241" y="501" on="1"/>
        <pt x="241" y="446" on="1"/>
        <pt x="238" y="447" on="0"/>
        <pt x="213" y="450" on="0"/>
        <pt x="198" y="450" on="1"/>
        <pt x="153" y="450" on="0"/>
        <pt x="111" y="419" on="0"/>
        <pt x="108" y="390" on="1"/>
        <pt x="290" y="250" on="1"/>
        <pt x="290" y="253" on="1"/>
        <pt x="291" y="253" on="1"/>
        <pt x="291" y="404" on="1"/>
        <pt x="353" y="404" on="1"/>
        <pt x="353" y="325" on="1"/>
        <pt x="397" y="311" on="0"/>
        <pt x="438" y="311" on="1"/>
        <pt x="485" y="311" on="0"/>
        <pt x="523" y="350" on="0"/>
        <pt x="523" y="384" on="1"/>
        <pt x="523" y="524" on="1"/>
        <pt x="523" y="558" on="0"/>
        <pt x="485" y="596" on="0"/>
        <pt x="438" y="596" on="1"/>
        <pt x="391" y="596" on="0"/>
        <pt x="353" y="557" on="0"/>
        <pt x="353" y="523" on="1"/>
        <pt x="353" y="510" on="0"/>
        <pt x="355" y="490" on="0"/>
        <pt x="356" y="486" on="1"/>
        <pt x="294" y="486" on="1"/>
        <pt x="294" y="488" on="0"/>
        <pt x="291" y="512" on="0"/>
        <pt x="291" y="525" on="1"/>
        <pt x="291" y="586" on="0"/>
        <pt x="365" y="654" on="0"/>
        <pt x="438" y="654" on="1"/>
      </contour>
      <contour>
        <pt x="235" y="595" on="1"/>
        <pt x="-24" y="595" on="1"/>
        <pt x="-24" y="649" on="1"/>
        <pt x="235" y="649" on="1"/>
      </contour>
      <contour>
        <pt x="846" y="649" on="1"/>
        <pt x="846" y="595" on="1"/>
        <pt x="749" y="595" on="1"/>
        <pt x="749" y="0" on="1"/>
        <pt x="687" y="0" on="1"/>
        <pt x="687" y="649" on="1"/>
      </contour>
      <contour>
        <pt x="247" y="125" on="0"/>
        <pt x="289" y="160" on="0"/>
        <pt x="290" y="196" on="1"/>
        <pt x="107" y="337" on="1"/>
        <pt x="107" y="199" on="1"/>
        <pt x="107" y="163" on="0"/>
        <pt x="148" y="125" on="0"/>
        <pt x="199" y="125" on="1"/>
      </contour>
    </TTGlyph>
    <TTGlyph name="dvB_TA" xMin="-24" yMin="-1" xMax="694" yMax="649">
      <contour>
        <pt x="694" y="595" on="1"/>
        <pt x="597" y="595" on="1"/>
        <pt x="597" y="0" on="1"/>
        <pt x="535" y="0" on="1"/>
        <pt x="535" y="434" on="1"/>
        <pt x="487" y="446" on="0"/>
        <pt x="444" y="446" on="1"/>
        <pt x="352" y="446" on="0"/>
        <pt x="352" y="371" on="1"/>
        <pt x="352" y="124" on="1"/>
        <pt x="352" y="90" on="0"/>
        <pt x="391" y="56" on="0"/>
        <pt x="439" y="57" on="1"/>
        <pt x="439" y="-1" on="1"/>
        <pt x="419" y="-1" on="1"/>
        <pt x="309" y="-1" on="0"/>
        <pt x="293" y="90" on="1"/>
        <pt x="258" y="70" on="0"/>
        <pt x="198" y="70" on="1"/>
        <pt x="46" y="70" on="0"/>
        <pt x="46" y="198" on="1"/>
        <pt x="46" y="377" on="1"/>
        <pt x="46" y="505" on="0"/>
        <pt x="196" y="505" on="1"/>
        <pt x="211" y="505" on="0"/>
        <pt x="237" y="502" on="0"/>
        <pt x="241" y="501" on="1"/>
        <pt x="241" y="446" on="1"/>
        <pt x="238" y="447" on="0"/>
        <pt x="213" y="450" on="0"/>
        <pt x="198" y="450" on="1"/>
        <pt x="153" y="450" on="0"/>
        <pt x="111" y="419" on="0"/>
        <pt x="108" y="390" on="1"/>
        <pt x="290" y="250" on="1"/>
        <pt x="290" y="372" on="1"/>
        <pt x="290" y="433" on="0"/>
        <pt x="367" y="503" on="0"/>
        <pt x="440" y="503" on="1"/>
        <pt x="494" y="503" on="0"/>
        <pt x="535" y="490" on="1"/>
        <pt x="535" y="595" on="1"/>
        <pt x="-24" y="595" on="1"/>
        <pt x="-24" y="649" on="1"/>
        <pt x="694" y="649" on="1"/>
      </contour>
      <contour>
        <pt x="247" y="125" on="0"/>
        <pt x="289" y="160" on="0"/>
        <pt x="290" y="196" on="1"/>
        <pt x="107" y="337" on="1"/>
        <pt x="107" y="199" on="1"/>
        <pt x="107" y="163" on="0"/>
        <pt x="148" y="125" on="0"/>
        <pt x="199" y="125" on="1"/>
      </contour>
    </TTGlyph>
    <TTGlyph name="dvB_VA" xMin="-24" yMin="0" xMax="689" yMax="649">
      <contour>
        <pt x="689" y="595" on="1"/>
        <pt x="593" y="595" on="1"/>
        <pt x="593" y="0" on="1"/>
        <pt x="531" y="0" on="1"/>
        <pt x="531" y="83" on="1"/>
        <pt x="521" y="79" on="0"/>
        <pt x="468" y="70" on="0"/>
        <pt x="438" y="70" on="1"/>
        <pt x="355" y="70" on="0"/>
        <pt x="318" y="112" on="1"/>
        <pt x="282" y="70" on="0"/>
        <pt x="198" y="70" on="1"/>
        <pt x="46" y="70" on="0"/>
        <pt x="46" y="198" on="1"/>
        <pt x="46" y="377" on="1"/>
        <pt x="46" y="505" on="0"/>
        <pt x="196" y="505" on="1"/>
        <pt x="211" y="505" on="0"/>
        <pt x="237" y="502" on="0"/>
        <pt x="241" y="501" on="1"/>
        <pt x="241" y="446" on="1"/>
        <pt x="238" y="447" on="0"/>
        <pt x="213" y="450" on="0"/>
        <pt x="198" y="450" on="1"/>
        <pt x="153" y="450" on="0"/>
        <pt x="111" y="419" on="0"/>
        <pt x="108" y="390" on="1"/>
        <pt x="288" y="252" on="1"/>
        <pt x="288" y="375" on="1"/>
        <pt x="288" y="436" on="0"/>
        <pt x="365" y="505" on="0"/>
        <pt x="438" y="505" on="1"/>
        <pt x="468" y="505" on="0"/>
        <pt x="521" y="496" on="0"/>
        <pt x="531" y="492" on="1"/>
        <pt x="531" y="595" on="1"/>
        <pt x="-24" y="595" on="1"/>
        <pt x="-24" y="649" on="1"/>
        <pt x="689" y="649" on="1"/>
      </contour>
      <contour>
        <pt x="532" y="437" on="1"/>
        <pt x="522" y="441" on="0"/>
        <pt x="471" y="450" on="0"/>
        <pt x="442" y="450" on="1"/>
        <pt x="394" y="450" on="0"/>
        <pt x="349" y="408" on="0"/>
        <pt x="349" y="374" on="1"/>
        <pt x="349" y="202" on="1"/>
        <pt x="349" y="165" on="0"/>
        <pt x="393" y="126" on="0"/>
        <pt x="442" y="126" on="1"/>
        <pt x="472" y="126" on="0"/>
        <pt x="523" y="134" on="0"/>
        <pt x="532" y="138" on="1"/>
      </contour>
      <contour>
        <pt x="244" y="125" on="0"/>
        <pt x="286" y="156" on="0"/>
        <pt x="288" y="187" on="1"/>
        <pt x="288" y="197" on="1"/>
        <pt x="107" y="337" on="1"/>
        <pt x="107" y="199" on="1"/>
        <pt x="107" y="163" on="0"/>
        <pt x="148" y="125" on="0"/>
        <pt x="199" y="125" on="1"/>
      </contour>
    </TTGlyph>
    <TTGlyph name="dvB_YA" xMin="-24" yMin="0" xMax="755" yMax="649">
      <contour>
        <pt x="755" y="595" on="1"/>
        <pt x="658" y="595" on="1"/>
        <pt x="658" y="0" on="1"/>
        <pt x="596" y="0" on="1"/>
        <pt x="596" y="97" on="1"/>
        <pt x="550" y="85" on="0"/>
        <pt x="484" y="85" on="1"/>
        <pt x="382" y="85" on="0"/>
        <pt x="333" y="133" on="1"/>
        <pt x="302" y="70" on="0"/>
        <pt x="198" y="70" on="1"/>
        <pt x="46" y="70" on="0"/>
        <pt x="46" y="198" on="1"/>
        <pt x="46" y="377" on="1"/>
        <pt x="46" y="505" on="0"/>
        <pt x="196" y="505" on="1"/>
        <pt x="211" y="505" on="0"/>
        <pt x="237" y="502" on="0"/>
        <pt x="241" y="501" on="1"/>
        <pt x="241" y="446" on="1"/>
        <pt x="238" y="447" on="0"/>
        <pt x="213" y="450" on="0"/>
        <pt x="198" y="450" on="1"/>
        <pt x="153" y="450" on="0"/>
        <pt x="111" y="419" on="0"/>
        <pt x="108" y="390" on="1"/>
        <pt x="289" y="251" on="1"/>
        <pt x="289" y="256" on="1"/>
        <pt x="289" y="384" on="1"/>
        <pt x="309" y="384" on="1"/>
        <pt x="352" y="384" on="0"/>
        <pt x="399" y="396" on="0"/>
        <pt x="419" y="427" on="0"/>
        <pt x="419" y="457" on="1"/>
        <pt x="419" y="525" on="1"/>
        <pt x="419" y="545" on="0"/>
        <pt x="415" y="577" on="0"/>
        <pt x="412" y="593" on="0"/>
        <pt x="411" y="595" on="1"/>
        <pt x="-24" y="595" on="1"/>
        <pt x="-24" y="649" on="1"/>
        <pt x="755" y="649" on="1"/>
      </contour>
      <contour>
        <pt x="596" y="595" on="1"/>
        <pt x="472" y="595" on="1"/>
        <pt x="473" y="593" on="0"/>
        <pt x="476" y="577" on="0"/>
        <pt x="480" y="545" on="0"/>
        <pt x="480" y="525" on="1"/>
        <pt x="480" y="451" on="1"/>
        <pt x="480" y="391" on="0"/>
        <pt x="412" y="334" on="0"/>
        <pt x="350" y="334" on="1"/>
        <pt x="350" y="260" on="1"/>
        <pt x="350" y="200" on="0"/>
        <pt x="415" y="143" on="0"/>
        <pt x="486" y="143" on="1"/>
        <pt x="541" y="143" on="0"/>
        <pt x="596" y="154" on="1"/>
      </contour>
      <contour>
        <pt x="247" y="125" on="0"/>
        <pt x="289" y="160" on="0"/>
        <pt x="290" y="196" on="1"/>
        <pt x="107" y="337" on="1"/>
        <pt x="107" y="199" on="1"/>
        <pt x="107" y="163" on="0"/>
        <pt x="148" y="125" on="0"/>
        <pt x="199" y="125" on="1"/>
      </contour>
    </TTGlyph>
    <TTGlyph name="dvC" xMin="-32" yMin="62" xMax="337" yMax="649">
      <contour>
        <pt x="-32" y="595" on="1"/>
        <pt x="-32" y="649" on="1"/>
        <pt x="326" y="649" on="1"/>
        <pt x="326" y="595" on="1"/>
      </contour>
      <contour>
        <pt x="318" y="72" on="0"/>
        <pt x="255" y="62" on="0"/>
        <pt x="229" y="62" on="1"/>
        <pt x="82" y="62" on="0"/>
        <pt x="82" y="193" on="1"/>
        <pt x="82" y="339" on="1"/>
        <pt x="82" y="364" on="0"/>
        <pt x="86" y="404" on="0"/>
        <pt x="90" y="424" on="0"/>
        <pt x="91" y="426" on="1"/>
        <pt x="4" y="426" on="1"/>
        <pt x="4" y="481" on="1"/>
        <pt x="263" y="481" on="1"/>
        <pt x="263" y="427" on="1"/>
        <pt x="154" y="427" on="1"/>
        <pt x="153" y="425" on="0"/>
        <pt x="148" y="404" on="0"/>
        <pt x="144" y="365" on="0"/>
        <pt x="144" y="339" on="1"/>
        <pt x="144" y="194" on="1"/>
        <pt x="144" y="156" on="0"/>
        <pt x="186" y="118" on="0"/>
        <pt x="234" y="118" on="1"/>
        <pt x="257" y="118" on="0"/>
        <pt x="314" y="127" on="0"/>
        <pt x="337" y="134" on="1"/>
        <pt x="337" y="78" on="1"/>
      </contour>
    </TTGlyph>
    <TTGlyph name="dvCA" xMin="-24" yMin="0" xMax="484" yMax="649">
      <contour>
        <pt x="152" y="156" on="0"/>
        <pt x="193" y="118" on="0"/>
        <pt x="241" y="118" on="1"/>
        <pt x="285" y="118" on="0"/>
        <pt x="326" y="132" on="1"/>
        <pt x="326" y="595" on="1"/>
        <pt x="-24" y="595" on="1"/>
        <pt x="-24" y="649" on="1"/>
        <pt x="484" y="649" on="1"/>
        <pt x="484" y="595" on="1"/>
        <pt x="388" y="595" on="1"/>
        <pt x="388" y="0" on="1"/>
        <pt x="326" y="0" on="1"/>
        <pt x="326" y="76" on="1"/>
        <pt x="284" y="62" on="0"/>
        <pt x="236" y="62" on="1"/>
        <pt x="90" y="62" on="0"/>
        <pt x="90" y="193" on="1"/>
        <pt x="90" y="339" on="1"/>
        <pt x="90" y="364" on="0"/>
        <pt x="94" y="404" on="0"/>
        <pt x="98" y="424" on="0"/>
        <pt x="99" y="426" on="1"/>
        <pt x="12" y="426" on="1"/>
        <pt x="12" y="481" on="1"/>
        <pt x="271" y="481" on="1"/>
        <pt x="271" y="427" on="1"/>
        <pt x="162" y="427" on="1"/>
        <pt x="161" y="425" on="0"/>
        <pt x="156" y="404" on="0"/>
        <pt x="152" y="365" on="0"/>
        <pt x="152" y="339" on="1"/>
        <pt x="152" y="194" on="1"/>
      </contour>
    </TTGlyph>
    <TTGlyph name="dvCH" xMin="-24" yMin="22" xMax="528" yMax="649">
      <contour>
        <pt x="449" y="494" on="0"/>
        <pt x="449" y="371" on="1"/>
        <pt x="449" y="168" on="1"/>
        <pt x="449" y="89" on="0"/>
        <pt x="361" y="22" on="0"/>
        <pt x="256" y="22" on="1"/>
        <pt x="151" y="22" on="0"/>
        <pt x="61" y="88" on="0"/>
        <pt x="61" y="166" on="1"/>
        <pt x="61" y="201" on="1"/>
        <pt x="61" y="278" on="0"/>
        <pt x="121" y="295" on="1"/>
        <pt x="90" y="307" on="0"/>
        <pt x="66" y="355" on="0"/>
        <pt x="66" y="392" on="1"/>
        <pt x="66" y="524" on="1"/>
        <pt x="66" y="553" on="0"/>
        <pt x="81" y="586" on="0"/>
        <pt x="96" y="595" on="1"/>
        <pt x="-24" y="595" on="1"/>
        <pt x="-24" y="649" on="1"/>
        <pt x="528" y="649" on="1"/>
        <pt x="528" y="595" on="1"/>
        <pt x="201" y="595" on="1"/>
        <pt x="163" y="595" on="0"/>
        <pt x="128" y="562" on="0"/>
        <pt x="128" y="523" on="1"/>
        <pt x="128" y="393" on="1"/>
        <pt x="128" y="359" on="0"/>
        <pt x="162" y="325" on="0"/>
        <pt x="210" y="324" on="1"/>
        <pt x="262" y="324" on="1"/>
        <pt x="262" y="268" on="1"/>
        <pt x="211" y="268" on="1"/>
        <pt x="162" y="268" on="0"/>
        <pt x="123" y="234" on="0"/>
        <pt x="123" y="199" on="1"/>
        <pt x="123" y="167" on="1"/>
        <pt x="123" y="132" on="0"/>
        <pt x="145" y="94" on="0"/>
        <pt x="201" y="78" on="0"/>
        <pt x="256" y="78" on="1"/>
        <pt x="310" y="78" on="0"/>
        <pt x="367" y="95" on="0"/>
        <pt x="388" y="134" on="0"/>
        <pt x="388" y="170" on="1"/>
        <pt x="388" y="366" on="1"/>
        <pt x="388" y="404" on="0"/>
        <pt x="356" y="439" on="0"/>
        <pt x="311" y="439" on="1"/>
        <pt x="292" y="439" on="0"/>
        <pt x="260" y="431" on="0"/>
        <pt x="256" y="429" on="1"/>
        <pt x="256" y="485" on="1"/>
        <pt x="261" y="487" on="0"/>
        <pt x="295" y="494" on="0"/>
        <pt x="315" y="494" on="1"/>
      </contour>
    </TTGlyph>
    <TTGlyph name="dvCHA" xMin="-24" yMin="22" xMax="528" yMax="649">
      <contour>
        <pt x="66" y="546" on="0"/>
        <pt x="70" y="577" on="0"/>
        <pt x="75" y="593" on="0"/>
        <pt x="76" y="595" on="1"/>
        <pt x="-24" y="595" on="1"/>
        <pt x="-24" y="649" on="1"/>
        <pt x="528" y="649" on="1"/>
        <pt x="528" y="595" on="1"/>
        <pt x="375" y="595" on="1"/>
        <pt x="375" y="486" on="1"/>
        <pt x="413" y="477" on="0"/>
        <pt x="448" y="419" on="0"/>
        <pt x="448" y="371" on="1"/>
        <pt x="448" y="168" on="1"/>
        <pt x="448" y="89" on="0"/>
        <pt x="360" y="22" on="0"/>
        <pt x="255" y="22" on="1"/>
        <pt x="150" y="22" on="0"/>
        <pt x="60" y="88" on="0"/>
        <pt x="60" y="166" on="1"/>
        <pt x="60" y="201" on="1"/>
        <pt x="60" y="277" on="0"/>
        <pt x="120" y="295" on="1"/>
        <pt x="89" y="307" on="0"/>
        <pt x="66" y="355" on="0"/>
        <pt x="66" y="392" on="1"/>
        <pt x="66" y="525" on="1"/>
      </contour>
      <contour>
        <pt x="127" y="359" on="0"/>
        <pt x="162" y="325" on="0"/>
        <pt x="209" y="324" on="1"/>
        <pt x="261" y="324" on="1"/>
        <pt x="261" y="268" on="1"/>
        <pt x="210" y="268" on="1"/>
        <pt x="161" y="268" on="0"/>
        <pt x="122" y="234" on="0"/>
        <pt x="122" y="199" on="1"/>
        <pt x="122" y="167" on="1"/>
        <pt x="122" y="132" on="0"/>
        <pt x="144" y="94" on="0"/>
        <pt x="200" y="78" on="0"/>
        <pt x="255" y="78" on="1"/>
        <pt x="309" y="78" on="0"/>
        <pt x="366" y="95" on="0"/>
        <pt x="387" y="134" on="0"/>
        <pt x="387" y="170" on="1"/>
        <pt x="387" y="366" on="1"/>
        <pt x="387" y="404" on="0"/>
        <pt x="356" y="439" on="0"/>
        <pt x="311" y="439" on="1"/>
        <pt x="292" y="439" on="0"/>
        <pt x="259" y="432" on="0"/>
        <pt x="255" y="431" on="1"/>
        <pt x="255" y="486" on="1"/>
        <pt x="260" y="487" on="0"/>
        <pt x="296" y="494" on="0"/>
        <pt x="318" y="494" on="1"/>
        <pt x="318" y="595" on="1"/>
        <pt x="138" y="595" on="1"/>
        <pt x="137" y="593" on="0"/>
        <pt x="132" y="576" on="0"/>
        <pt x="127" y="545" on="0"/>
        <pt x="127" y="525" on="1"/>
        <pt x="127" y="393" on="1"/>
      </contour>
    </TTGlyph>
    <TTGlyph name="dvCH_R" xMin="-24" yMin="-302" xMax="528" yMax="649">
      <component glyphName="dvCHA" x="0" y="0" flags="0x0"/>
      <component glyphName="dvRashtrasign" x="472" y="19" flags="0x4"/>
      <component glyphName="dvVirama" x="360" y="-95" flags="0x4"/>
    </TTGlyph>
    <TTGlyph name="dvCH_RA" xMin="-24" yMin="-126" xMax="528" yMax="649">
      <component glyphName="dvCHA" x="0" y="0" flags="0x0"/>
      <component glyphName="dvRashtrasign" x="472" y="19" flags="0x4"/>
    </TTGlyph>
    <TTGlyph name="dvCH_R_YA" xMin="-24" yMin="-126" xMax="1024" yMax="649">
      <contour>
        <pt x="1024" y="595" on="1"/>
        <pt x="927" y="595" on="1"/>
        <pt x="927" y="0" on="1"/>
        <pt x="865" y="0" on="1"/>
        <pt x="865" y="86" on="1"/>
        <pt x="797" y="75" on="0"/>
        <pt x="746" y="75" on="1"/>
        <pt x="659" y="75" on="0"/>
        <pt x="558" y="152" on="0"/>
        <pt x="558" y="245" on="1"/>
        <pt x="558" y="297" on="1"/>
        <pt x="588" y="297" on="1"/>
        <pt x="645" y="297" on="0"/>
        <pt x="688" y="324" on="0"/>
        <pt x="688" y="363" on="1"/>
        <pt x="688" y="371" on="1"/>
        <pt x="688" y="405" on="0"/>
        <pt x="658" y="438" on="0"/>
        <pt x="617" y="438" on="1"/>
        <pt x="436" y="438" on="1"/>
        <pt x="448" y="411" on="0"/>
        <pt x="448" y="371" on="1"/>
        <pt x="448" y="168" on="1"/>
        <pt x="448" y="102" on="0"/>
        <pt x="388" y="34" on="0"/>
        <pt x="319" y="26" on="1"/>
        <pt x="401" y="-126" on="1"/>
        <pt x="336" y="-126" on="1"/>
        <pt x="259" y="22" on="1"/>
        <pt x="255" y="22" on="1"/>
        <pt x="179" y="-126" on="1"/>
        <pt x="113" y="-126" on="1"/>
        <pt x="196" y="25" on="1"/>
        <pt x="124" y="33" on="0"/>
        <pt x="60" y="100" on="0"/>
        <pt x="60" y="166" on="1"/>
        <pt x="60" y="201" on="1"/>
        <pt x="60" y="277" on="0"/>
        <pt x="120" y="295" on="1"/>
        <pt x="89" y="307" on="0"/>
        <pt x="66" y="355" on="0"/>
        <pt x="66" y="392" on="1"/>
        <pt x="66" y="525" on="1"/>
        <pt x="66" y="546" on="0"/>
        <pt x="70" y="577" on="0"/>
        <pt x="75" y="593" on="0"/>
        <pt x="76" y="595" on="1"/>
        <pt x="-24" y="595" on="1"/>
        <pt x="-24" y="649" on="1"/>
        <pt x="1024" y="649" on="1"/>
      </contour>
      <contour>
        <pt x="387" y="366" on="1"/>
        <pt x="387" y="404" on="0"/>
        <pt x="356" y="439" on="0"/>
        <pt x="311" y="439" on="1"/>
        <pt x="292" y="439" on="0"/>
        <pt x="259" y="432" on="0"/>
        <pt x="255" y="431" on="1"/>
        <pt x="255" y="486" on="1"/>
        <pt x="260" y="487" on="0"/>
        <pt x="296" y="494" on="0"/>
        <pt x="318" y="494" on="1"/>
        <pt x="318" y="595" on="1"/>
        <pt x="138" y="595" on="1"/>
        <pt x="137" y="593" on="0"/>
        <pt x="132" y="576" on="0"/>
        <pt x="127" y="545" on="0"/>
        <pt x="127" y="525" on="1"/>
        <pt x="127" y="393" on="1"/>
        <pt x="127" y="359" on="0"/>
        <pt x="162" y="325" on="0"/>
        <pt x="209" y="324" on="1"/>
        <pt x="261" y="324" on="1"/>
        <pt x="261" y="268" on="1"/>
        <pt x="210" y="268" on="1"/>
        <pt x="161" y="268" on="0"/>
        <pt x="122" y="234" on="0"/>
        <pt x="122" y="199" on="1"/>
        <pt x="122" y="167" on="1"/>
        <pt x="122" y="132" on="0"/>
        <pt x="144" y="94" on="0"/>
        <pt x="200" y="78" on="0"/>
        <pt x="255" y="78" on="1"/>
        <pt x="309" y="78" on="0"/>
        <pt x="366" y="95" on="0"/>
        <pt x="387" y="134" on="0"/>
        <pt x="387" y="170" on="1"/>
      </contour>
      <contour>
        <pt x="865" y="595" on="1"/>
        <pt x="375" y="595" on="1"/>
        <pt x="375" y="495" on="1"/>
        <pt x="616" y="495" on="1"/>
        <pt x="684" y="495" on="0"/>
        <pt x="749" y="435" on="0"/>
        <pt x="749" y="374" on="1"/>
        <pt x="749" y="362" on="1"/>
        <pt x="749" y="303" on="0"/>
        <pt x="681" y="246" on="0"/>
        <pt x="619" y="246" on="1"/>
        <pt x="619" y="245" on="1"/>
        <pt x="619" y="186" on="0"/>
        <pt x="678" y="132" on="0"/>
        <pt x="748" y="132" on="1"/>
        <pt x="801" y="132" on="0"/>
        <pt x="865" y="144" on="1"/>
      </contour>
    </TTGlyph>
</ttFont>
